<svg xmlns="http://www.w3.org/2000/svg" xmlns:xlink="http://www.w3.org/1999/xlink" id="Capa_1" x="0px" y="0px" viewBox="0 0 651.3 617.8" style="enable-background:new 0 0 651.3 617.8;" xml:space="preserve">
<style type="text/css">
	.st0{fill:#B5E9F6;}
	.st1{opacity:0.25;fill:#FFFFFF;enable-background:new    ;}
	.st2{fill:#27028A;}
	.st3{enable-background:new    ;}
	.st4{fill:#FFFFFF;}
	.st5{fill:#2A2B35;}
	.st6{fill:#BF3943;}
	.st7{fill:#E5B185;}
	.st8{fill:#DA916A;}
</style>
<g id="Group_1305" transform="translate(258.367 7355.073)">
	<g id="Group_1183" transform="translate(-258.367 -7355.073)">
		<path id="Rectangle_149" class="st0" d="M10,0.5h631.3c5.5,0,10,4.5,10,10v597.3c0,5.5-4.5,10-10,10H10c-5.5,0-10-4.5-10-10V10.5    C0,5,4.5,0.5,10,0.5z"></path>
		<path id="Path_1914" class="st1" d="M0,617.8V0h650.9L0,617.8z"></path>
	</g>
	<path id="Rectangle_151" class="st2" d="M-206-6868.3H66.4c5.5,0,10,4.5,10,10v67.5c0,5.5-4.5,10-10,10H-206c-5.5,0-10-4.5-10-10   v-67.5C-216-6863.9-211.5-6868.3-206-6868.3z"></path>
	<g class="st3">
		<path class="st4" d="M-111.5-6820.9h-11l-2.5,6.8h-3.6l10.2-26.3h3.1l10,26.3h-3.6L-111.5-6820.9z M-121.4-6823.8h8.9l-4.3-12    h-0.1L-121.4-6823.8z"></path>
		<path class="st4" d="M-101-6814.1v-16.9h-3.1v-2.6h3.1v-2.5c0-2.1,0.5-3.7,1.6-4.8c1.1-1.1,2.6-1.7,4.6-1.7c0.4,0,0.8,0,1.2,0.1    c0.4,0.1,0.9,0.2,1.4,0.3l-0.4,2.7c-0.2,0-0.5-0.1-0.8-0.1c-0.3,0-0.6-0.1-1-0.1c-1,0-1.8,0.3-2.3,0.9s-0.8,1.5-0.8,2.7v2.5h4.1    v2.6h-4.1v16.9H-101z"></path>
		<path class="st4" d="M-85.9-6814.1h-3.6v-19.5h3.6V-6814.1z M-86-6840.8h4.2l0,0.1l-4.9,4.7h-2.7L-86-6840.8z"></path>
		<path class="st4" d="M-76.5-6814.1h-3.6v-28.2h3.6V-6814.1z"></path>
		<path class="st4" d="M-67.2-6838.6h-3.6v-3.6h3.6V-6838.6z M-67.2-6814.1h-3.6v-19.5h3.6V-6814.1z"></path>
		<path class="st4" d="M-49.7-6814.1c-0.1-0.6-0.2-1.1-0.3-1.6c-0.1-0.5-0.1-0.9-0.1-1.4c-0.7,0.9-1.5,1.7-2.6,2.4    c-1.1,0.6-2.2,0.9-3.4,0.9c-2,0-3.6-0.5-4.7-1.6c-1.1-1-1.6-2.5-1.6-4.3c0-1.9,0.8-3.3,2.3-4.4c1.5-1.1,3.6-1.6,6.2-1.6h3.9v-1.9    c0-1.1-0.3-2.1-1-2.7c-0.7-0.7-1.7-1-3-1c-1.1,0-2.1,0.3-2.8,0.9c-0.7,0.6-1.1,1.3-1.1,2.1h-3.4l0-0.1c-0.1-1.4,0.6-2.7,2-3.9    c1.4-1.2,3.2-1.8,5.5-1.8c2.2,0,4,0.6,5.3,1.7c1.3,1.1,2,2.7,2,4.9v9.4c0,0.7,0,1.4,0.1,2s0.2,1.3,0.4,1.9H-49.7z M-55.6-6816.7    c1.3,0,2.5-0.3,3.5-1c1-0.7,1.7-1.4,2-2.3v-3.2h-4c-1.4,0-2.6,0.4-3.4,1.1c-0.9,0.7-1.3,1.6-1.3,2.5c0,0.9,0.3,1.5,0.8,2.1    C-57.5-6817-56.7-6816.7-55.6-6816.7z M-52.6-6841.2h4.2l0,0.1l-4.9,4.7h-2.7L-52.6-6841.2z"></path>
		<path class="st4" d="M-36.7-6838.3v4.7h3.7v2.6h-3.7v11.9c0,0.9,0.2,1.6,0.6,1.9c0.4,0.4,0.9,0.6,1.5,0.6c0.2,0,0.4,0,0.7-0.1    c0.2,0,0.5-0.1,0.7-0.2l0.5,2.4c-0.3,0.2-0.7,0.4-1.2,0.5c-0.5,0.1-1,0.2-1.5,0.2c-1.4,0-2.6-0.4-3.5-1.3    c-0.9-0.9-1.3-2.2-1.3-4.1v-11.9h-3.1v-2.6h3.1v-4.7H-36.7z"></path>
		<path class="st4" d="M-20.5-6813.7c-2.7,0-4.9-0.9-6.5-2.7c-1.6-1.8-2.4-4.2-2.4-7.1v-0.8c0-2.8,0.8-5.1,2.5-6.9    c1.7-1.8,3.6-2.8,5.9-2.8c2.6,0,4.6,0.8,6,2.4c1.3,1.6,2,3.7,2,6.4v2.2h-12.7l-0.1,0.1c0,1.9,0.5,3.4,1.4,4.6    c0.9,1.2,2.2,1.8,3.8,1.8c1.2,0,2.3-0.2,3.2-0.5c0.9-0.3,1.7-0.8,2.4-1.4l1.4,2.3c-0.7,0.7-1.6,1.3-2.8,1.7    C-17.5-6813.9-18.9-6813.7-20.5-6813.7z M-21-6831.2c-1.2,0-2.2,0.5-3.1,1.5c-0.8,1-1.4,2.3-1.6,3.8l0,0.1h9v-0.5    c0-1.4-0.4-2.6-1.1-3.5C-18.5-6830.7-19.6-6831.2-21-6831.2z"></path>
	</g>
	<g class="st3">
		<path class="st2" d="M-195-7033.7v17.7h-3.5v-42.7h14.7c4.5,0,7.9,1.1,10.4,3.4c2.5,2.3,3.7,5.3,3.7,9c0,3.8-1.2,6.8-3.7,9.1    c-2.5,2.3-5.9,3.4-10.4,3.4H-195z M-195-7036.7h11.2c3.5,0,6.2-0.9,7.9-2.7c1.8-1.8,2.7-4,2.7-6.8c0-2.7-0.9-5-2.6-6.8    s-4.4-2.7-7.9-2.7H-195V-7036.7z"></path>
		<path class="st2" d="M-147.8-7044.7l-2.6-0.2c-2.2,0-4,0.6-5.4,1.9c-1.4,1.2-2.4,2.9-3,5.1v21.9h-3.5v-31.7h3.1l0.4,5.3v0.4    c0.9-2,2.1-3.5,3.7-4.6c1.5-1.1,3.4-1.6,5.5-1.6c0.4,0,0.9,0,1.3,0.1c0.4,0.1,0.8,0.1,1,0.2L-147.8-7044.7z"></path>
		<path class="st2" d="M-144.5-7032.3c0-4.7,1.3-8.5,3.8-11.5c2.6-3,5.9-4.5,10.2-4.5c4.2,0,7.6,1.5,10.2,4.5    c2.6,3,3.8,6.8,3.8,11.5v1c0,4.7-1.3,8.5-3.8,11.5s-5.9,4.5-10.2,4.5c-4.3,0-7.7-1.5-10.2-4.5c-2.6-3-3.8-6.8-3.8-11.5V-7032.3z     M-141-7031.4c0,3.7,0.9,6.8,2.8,9.2c1.9,2.5,4.4,3.7,7.8,3.7c3.3,0,5.8-1.2,7.7-3.7c1.9-2.5,2.8-5.6,2.8-9.2v-1    c0-3.6-0.9-6.7-2.8-9.2s-4.5-3.8-7.7-3.8s-5.8,1.3-7.7,3.8c-1.9,2.5-2.8,5.6-2.8,9.2V-7031.4z"></path>
		<path class="st2" d="M-110.5-7031.6c0-5.1,1.1-9.1,3.2-12.1c2.2-3,5.2-4.6,9-4.6c2.2,0,4.2,0.5,5.8,1.5s3,2.4,4.1,4.2l0.4-5.1h3    v31.3c0,4.1-1.1,7.3-3.4,9.7s-5.4,3.5-9.4,3.5c-1.5,0-3.1-0.2-4.9-0.6c-1.7-0.4-3.2-0.9-4.5-1.5l0.9-3c1.2,0.6,2.6,1.1,4,1.4    c1.4,0.3,2.9,0.5,4.5,0.5c3.1,0,5.4-0.9,7-2.7c1.6-1.8,2.4-4.2,2.4-7.4v-4c-1.1,1.6-2.4,2.8-4.1,3.7s-3.6,1.3-5.7,1.3    c-3.8,0-6.8-1.4-9-4.2c-2.2-2.8-3.2-6.6-3.2-11.3V-7031.6z M-107-7031c0,3.8,0.8,6.9,2.3,9.2c1.6,2.3,3.9,3.4,7,3.4    c2.3,0,4.2-0.5,5.7-1.6c1.5-1,2.7-2.5,3.5-4.3v-14.7c-0.8-1.9-1.9-3.4-3.4-4.6c-1.5-1.2-3.4-1.8-5.8-1.8c-3.1,0-5.4,1.3-7,3.8    c-1.6,2.6-2.4,5.8-2.4,9.9V-7031z"></path>
		<path class="st2" d="M-61.1-7044.7l-2.6-0.2c-2.2,0-4,0.6-5.4,1.9c-1.4,1.2-2.4,2.9-3,5.1v21.9h-3.5v-31.7h3.1l0.4,5.3v0.4    c0.9-2,2.1-3.5,3.7-4.6c1.5-1.1,3.4-1.6,5.5-1.6c0.4,0,0.9,0,1.3,0.1c0.4,0.1,0.8,0.1,1,0.2L-61.1-7044.7z"></path>
		<path class="st2" d="M-35.2-7016c-0.2-1.1-0.4-2-0.5-2.8c-0.1-0.8-0.1-1.6-0.1-2.4c-1.2,1.7-2.7,3-4.7,4.1c-2,1.1-4.2,1.6-6.6,1.6    c-3.1,0-5.5-0.8-7.2-2.5c-1.7-1.6-2.6-3.8-2.6-6.6c0-2.9,1.3-5.3,3.8-7c2.5-1.8,5.9-2.6,10.2-2.6h7v-3.9c0-2.3-0.7-4-2.2-5.3    c-1.5-1.3-3.5-1.9-6.1-1.9c-2.4,0-4.5,0.6-6.1,1.8s-2.4,2.7-2.4,4.5l-3.2,0l-0.1-0.2c-0.1-2.4,1-4.5,3.2-6.3    c2.3-1.9,5.2-2.8,8.7-2.8c3.5,0,6.3,0.9,8.4,2.7c2.1,1.8,3.2,4.3,3.2,7.6v15.6c0,1.1,0.1,2.2,0.2,3.3c0.1,1.1,0.3,2.1,0.6,3.1    H-35.2z M-46.7-7018.5c2.5,0,4.7-0.6,6.7-1.8s3.3-2.7,4.2-4.5v-6.6h-7.1c-3.2,0-5.7,0.7-7.6,2s-2.9,3-2.9,5.1    c0,1.7,0.6,3.1,1.8,4.2C-50.4-7019-48.8-7018.5-46.7-7018.5z"></path>
		<path class="st2" d="M-20-7047.7l0.3,5.2c1-1.9,2.4-3.3,4.1-4.3c1.7-1,3.7-1.5,6-1.5c2.4,0,4.4,0.6,6.1,1.8c1.6,1.2,2.8,3,3.5,5.4    c1-2.2,2.3-4,4.1-5.2c1.8-1.3,3.9-1.9,6.5-1.9c3.4,0,6,1.1,7.8,3.4c1.8,2.2,2.8,5.7,2.8,10.4v18.5h-3.5v-18.6    c0-3.9-0.7-6.7-2.1-8.3s-3.3-2.4-5.8-2.4c-2.7,0-4.8,0.9-6.3,2.6c-1.5,1.7-2.4,3.9-2.8,6.5c0,0.1,0,0.3,0,0.6c0,0.3,0,0.4,0,0.6    v19.1h-3.5v-18.6c0-3.8-0.7-6.6-2.1-8.2c-1.4-1.7-3.3-2.5-5.8-2.5c-2.5,0-4.4,0.6-5.9,1.9c-1.5,1.3-2.5,3-3.1,5.1v22.3h-3.5v-31.7    H-20z"></path>
		<path class="st2" d="M50.2-7016c-0.2-1.1-0.4-2-0.5-2.8c-0.1-0.8-0.1-1.6-0.1-2.4c-1.2,1.7-2.7,3-4.7,4.1c-2,1.1-4.2,1.6-6.6,1.6    c-3.1,0-5.5-0.8-7.2-2.5c-1.7-1.6-2.6-3.8-2.6-6.6c0-2.9,1.3-5.3,3.8-7c2.5-1.8,5.9-2.6,10.2-2.6h7v-3.9c0-2.3-0.7-4-2.2-5.3    c-1.5-1.3-3.5-1.9-6.1-1.9c-2.4,0-4.5,0.6-6.1,1.8s-2.4,2.7-2.4,4.5l-3.2,0l-0.1-0.2c-0.1-2.4,1-4.5,3.2-6.3    c2.3-1.9,5.2-2.8,8.7-2.8c3.5,0,6.3,0.9,8.4,2.7c2.1,1.8,3.2,4.3,3.2,7.6v15.6c0,1.1,0.1,2.2,0.2,3.3c0.1,1.1,0.3,2.1,0.6,3.1    H50.2z M38.7-7018.5c2.5,0,4.7-0.6,6.7-1.8s3.3-2.7,4.2-4.5v-6.6h-7.1c-3.2,0-5.7,0.7-7.6,2s-2.9,3-2.9,5.1c0,1.7,0.6,3.1,1.8,4.2    C35-7019,36.6-7018.5,38.7-7018.5z"></path>
	</g>
	<g class="st3">
		<path class="st2" d="M-191.6-6966.5v15.5h-8.6v-42.7h17c4.9,0,8.8,1.3,11.6,3.8s4.2,5.8,4.2,9.9s-1.4,7.4-4.2,9.8    s-6.7,3.7-11.6,3.7H-191.6z M-191.6-6973.1h8.4c2.4,0,4.2-0.6,5.4-1.9s1.8-3,1.8-5c0-2.1-0.6-3.7-1.8-5.1c-1.2-1.3-3-2-5.4-2h-8.4    V-6973.1z"></path>
		<path class="st2" d="M-148.1-6950.4c-4.6,0-8.2-1.5-11-4.4c-2.7-2.9-4.1-6.7-4.1-11.2v-1.2c0-4.7,1.3-8.6,3.9-11.6    c2.6-3,6.1-4.6,10.4-4.5c4.3,0,7.6,1.3,10,3.9c2.4,2.6,3.5,6.1,3.5,10.5v4.7h-18.9l-0.1,0.2c0.2,2.1,0.9,3.8,2.1,5.1    c1.2,1.3,2.9,2,5.1,2c1.9,0,3.5-0.2,4.7-0.6c1.2-0.4,2.6-1,4.1-1.8l2.3,5.3c-1.3,1.1-3,1.9-5.1,2.6    C-143.3-6950.7-145.6-6950.4-148.1-6950.4z M-148.9-6976.7c-1.6,0-2.8,0.6-3.8,1.8c-0.9,1.2-1.5,2.8-1.7,4.8l0.1,0.1h10.5v-0.8    c0-1.8-0.4-3.3-1.3-4.4S-147.2-6976.7-148.9-6976.7z"></path>
		<path class="st2" d="M-113.7-6975.3l-3.1-0.1c-1.3,0-2.3,0.3-3.1,0.8s-1.4,1.3-1.9,2.2v21.4h-8.5v-31.7h7.9l0.4,4.7    c0.7-1.7,1.7-3,2.9-3.9c1.2-0.9,2.5-1.4,4.1-1.4c0.4,0,0.8,0,1.2,0.1c0.4,0.1,0.7,0.2,1.1,0.2L-113.7-6975.3z"></path>
		<path class="st2" d="M-92.3-6959.7c0-0.9-0.5-1.7-1.4-2.4s-2.6-1.3-5.1-1.8c-3.8-0.8-6.6-1.9-8.5-3.4s-2.9-3.5-2.9-6.1    c0-2.7,1.1-5.1,3.4-7c2.3-1.9,5.4-2.9,9.2-2.9c4,0,7.3,0.9,9.7,2.8c2.4,1.9,3.5,4.3,3.4,7.2l-0.1,0.2h-8.3c0-1.3-0.4-2.3-1.2-3.1    c-0.8-0.8-2-1.2-3.6-1.2c-1.4,0-2.5,0.3-3.3,1s-1.2,1.5-1.2,2.5c0,1,0.4,1.8,1.2,2.4c0.8,0.6,2.5,1.2,5.1,1.7    c3.9,0.8,6.8,1.9,8.7,3.4c1.9,1.5,2.8,3.6,2.8,6.3c0,2.9-1.2,5.2-3.7,7c-2.4,1.8-5.7,2.7-9.7,2.7c-4.2,0-7.6-1.1-10-3.2    c-2.5-2.1-3.6-4.6-3.5-7.3l0.1-0.2h7.8c0.1,1.7,0.6,2.9,1.7,3.7s2.4,1.1,4.1,1.1c1.6,0,2.8-0.3,3.6-0.9    C-92.7-6957.8-92.3-6958.7-92.3-6959.7z"></path>
		<path class="st2" d="M-79.8-6967.1c0-4.7,1.3-8.6,4-11.6s6.3-4.5,11-4.5c4.7,0,8.4,1.5,11,4.5c2.7,3,4,6.9,4,11.6v0.6    c0,4.8-1.3,8.6-4,11.6c-2.6,3-6.3,4.5-11,4.5c-4.7,0-8.4-1.5-11-4.5c-2.6-3-4-6.9-4-11.6V-6967.1z M-71.3-6966.5    c0,2.9,0.5,5.2,1.5,6.9c1,1.7,2.7,2.6,4.9,2.6c2.2,0,3.8-0.9,4.8-2.6s1.5-4.1,1.5-6.9v-0.6c0-2.8-0.5-5.1-1.6-6.9    c-1-1.8-2.7-2.7-4.9-2.7c-2.2,0-3.8,0.9-4.8,2.7s-1.5,4.1-1.5,6.9V-6966.5z"></path>
		<path class="st2" d="M-36.8-6982.7l0.4,4.5c1.1-1.6,2.4-2.9,3.9-3.8c1.5-0.9,3.3-1.3,5.2-1.3c3.2,0,5.7,1,7.5,3    c1.8,2,2.7,5.2,2.7,9.5v19.8h-8.6v-19.8c0-2.1-0.4-3.6-1.3-4.5c-0.9-0.9-2.2-1.3-3.9-1.3c-1.1,0-2.1,0.2-3,0.7    c-0.9,0.5-1.7,1.1-2.3,2v23.1h-8.6v-31.7H-36.8z"></path>
		<path class="st2" d="M7.9-6951c-0.3-0.7-0.6-1.5-0.8-2.3c-0.2-0.8-0.4-1.6-0.5-2.5c-0.9,1.5-2,2.8-3.5,3.8s-3.1,1.5-5.1,1.5    c-3.3,0-5.9-0.9-7.7-2.6c-1.8-1.7-2.7-4-2.7-7c0-3.1,1.2-5.5,3.6-7.2c2.4-1.7,5.9-2.6,10.5-2.6h4.8v-2.5c0-1.5-0.4-2.7-1.2-3.5    c-0.8-0.8-2-1.3-3.5-1.3c-1.4,0-2.5,0.3-3.2,1c-0.8,0.7-1.1,1.6-1.1,2.8l-8.3,0l0-0.2c-0.1-2.7,1-5,3.5-6.9s5.7-2.9,9.7-2.9    c3.8,0,6.9,1,9.2,2.9c2.4,1.9,3.5,4.7,3.5,8.2v13.1c0,1.5,0.1,2.9,0.3,4.2c0.2,1.3,0.6,2.6,1.1,3.9H7.9z M0-6956.7    c1.5,0,2.8-0.4,4-1.1s2-1.6,2.4-2.6v-4.5H1.7c-1.8,0-3.2,0.5-4.1,1.4s-1.4,2-1.4,3.3c0,1.1,0.4,1.9,1.1,2.5S-1.2-6956.7,0-6956.7z    "></path>
		<path class="st2" d="M30.5-6951h-8.6v-45.7h8.6V-6951z"></path>
	</g>
	<g id="Group_1189" transform="translate(150.026 -7294.536)">
		<path id="Path_641" class="st5" d="M95.7,245H70.4c-9.4,0-17-7.6-17.1-17.1v-118c0-9.4,7.6-17,17.1-17.1h43.9    c13.5,0,24.5,11,24.5,24.5v84.5C138.8,225.6,119.5,244.9,95.7,245z"></path>
		<g id="Group_187" transform="translate(0 445.98)">
			<path id="Path_642" class="st6" d="M63,18.4C60.7,27.1,46,30,41,31.1s-11,6.2-14.7,8.8s-12.4,5.2-19.6,3.6     c-3.7-0.8-5.4-3.8-6.2-6.4c-0.1-0.4-0.2-0.8-0.3-1.2c-0.3-1.2-0.2-2.5,0.3-3.6v0c0.3-0.8,0.9-1.6,1.5-2.1     c3.8-3.4,11.3-10,14.1-11.3C19.9,17,28,8.3,29,4.3s4.4-3.8,4.4-3.8c3.8,0.8,7.7,1.2,11.7,1.4C53.9,2.2,56.7,0,56.7,0     c1.3,3.6,2.9,7.1,4.7,10.5c0.4,0.8,0.8,1.7,1.1,2.5C63.7,16.4,63,18.4,63,18.4z"></path>
			<path id="Path_643" class="st5" d="M63,18.4C60.7,27.1,46,30,41,31.1s-11,6.2-14.7,8.8s-12.4,5.2-19.6,3.6     c-3.7-0.8-5.4-3.8-6.2-6.4C6,45.6,16.9,41,22.6,38.2s11.6-8.6,16.7-9.8s9.4-2.1,16.1-5.8c4.2-2.3,6.2-6.6,7.1-9.6     C63.7,16.4,63,18.4,63,18.4z"></path>
		</g>
		<path id="Path_644" class="st5" d="M29.2,256.2c0,0-7.8,44.7-5.4,55.5s2.5,24.5,2.1,35.2s-1.7,18.6,0,23.4s1.4,22.5,3.5,29.7    s-1.9,12.1,0,17.2s4.6,9.3,3.7,10.7s-5.6,3.7-3,10s3.2,8.6,3.2,8.6s8.8,5.7,23.3,0c0.4-3.2,1.3-6.3,2.5-9.3    c1.9-3.9,0.5-8.8-1.2-19c-1.6-9.6-2.3-19.3-2.1-29c0.1-5.5,0.6-10.9,1.5-16.3c1.5-5.1,2.4-10.4,2.6-15.7c0.3-8.4,1-10.2,2.6-14.4    s2.3-4.2,3.2-10.7s1.6-14.2,3.5-14.6s3.9,0.9,7.2,12.3s5,33.2,7.3,38.3s0.9,10.9,2.8,15.8s3.6,7.2,3.1,9.1s0.2,17.4,0.1,24.4    s0.6,10.9,0,18.8s2.9,10,2.9,11.5s-5.1,9.9-1.2,16.4c0,0,4.6,6.3,5.3,9.1c0,0,13.9,3.5,16.7-3.7c0,0,0.7-8.6,3-14.2    s3.5-7.9,3.2-14.2s0.5-15.1,0-35.5s-3.5-28.5-4-34.1s-1.4-7.9-1.6-10s1.4-0.7,2.1-5.8s-0.7-13,1.4-19s2-12.8,2.3-15.8    s3.3-8.1,3.3-16.9s-2.8-5.6,0-15.8s-1.4-28.5-1.4-28.5C88.2,269.1,57.6,265.3,29.2,256.2z"></path>
		<g id="Group_188" transform="translate(91.566 463.911)">
			<path id="Path_645" class="st6" d="M29.4,31.5c-0.7,7.8-4.1,14.7-9.3,16.9S7.6,49.4,4.2,46s-4.6-10.9-4.1-15.8     c0.3-3.5,1.7-4.4,2.2-7.9c0-0.3,0.1-0.5,0.1-0.5c0.2-1.7,0.2-3.5,0.1-5.2c-0.1-1.3-0.2-2.4-0.3-3.4v0C1.5,7.1,0.8,5,2.5,3.4     c0.7,0.9,1.3,1.9,1.7,2.9c0,0,2.9-4.6,9.9-4.4C20.9,2,22,5.3,22,5.5v0c0,0,0.6-4.4,0.8-5.5c2.1,1.5,3.4,3.8,3.6,6.3     c0.3,4.3-0.6,6.3-0.2,7.1c0,0.1,0.1,0.2,0.1,0.3c0.3,0.7,1,2.6,1.6,5v0c0.1,0.3,0.1,0.5,0.2,0.8v0C29.2,23.4,29.7,27.5,29.4,31.5     z"></path>
			<path id="Path_646" class="st5" d="M29.4,31.5c-0.7,7.8-4.1,14.7-9.3,16.9S7.6,49.4,4.2,46s-4.6-10.9-4.1-15.8     c0.3-3.5,1.7-4.4,2.2-7.9c-0.3,2-1.2,9.6-0.6,13C2.4,39.3,4.6,46.2,9,46.7l2.1-1.6l3.2,0.1l2.1,2c0,0,8.5-1,11-12.1     c1.9-8.5,1.2-13.6,0.8-15.5C29.2,23.4,29.7,27.5,29.4,31.5z"></path>
		</g>
		<path id="Path_647" class="st7" d="M34.1,164.9L27,190.7c0,0-8.2,9.8-20.3,2.4l0,0c-0.7-0.4-1.3-0.9-2-1.4    c-1-0.8,4.2-20.1,9.5-31.7c0.7-1.6,1.5-3.2,2.5-4.6C18.7,159.7,25.8,162.4,34.1,164.9z"></path>
		<path id="Path_648" class="st8" d="M34.1,164.9L27,190.7c0,0-8.2,9.8-20.3,2.4c10.7-2.2,16.1-22.3,13.7-26.6    c-1.8-3.1-4.7-4.8-6.2-6.5c0.7-1.6,1.5-3.2,2.5-4.6C18.7,159.7,25.8,162.4,34.1,164.9z"></path>
		<path id="Path_649" class="st6" d="M154.4,163.9c-4.4,12.4-31.5,12.4-31.5,12.4l-2.3-4.8l-1.5-3.1c0,0,3.9,41.6,3.5,46.9    s2.8,20.4,0,26.7s0,20.4,0,20.4c-3,4.4-28.3,17.4-56.2,16.7s-37.8-18.6-37.8-18.6s0.9-4.9,1.7-10.7c0.5-3.7,1-7.7,1.1-11.1    c0.5-8.8,3.7-8.8,5.3-14.2s-2.1-2.6-0.2-17.4s-2.3-42.2-2.3-42.2c-14.8,0.2-20.9-10-20.9-10l1.7-3.8l16.3-36.9    c1.3-2.9,3.8-5.1,6.8-6l17.6-5.3l6.9-2.1l34.2-1.6c0,0,2,0.5,5,1.3c3.4,0.9,8.2,2.1,12.8,3.3h0c7.9,2.1,15.7,4.2,16.5,4.8    c1.6,1.2,4.4,3.7,8.4,12.4c2.9,6.4,5.4,18.5,5.4,18.5s2.9,7.1,4.4,10.6c1,2.8,2.2,5.4,3.7,8c0,0,0.1,0.1,0.1,0.1    C154.7,161.7,154.4,163.9,154.4,163.9z"></path>
		<path id="Path_650" class="st5" d="M154.4,163.9c-4.4,12.4-31.5,12.4-31.5,12.4l-2.3-4.8c2.8-0.1,24.5-1.6,32.2-13.4    C154.7,161.7,154.4,163.9,154.4,163.9z"></path>
		<path id="Path_651" class="st5" d="M34.1,161.4v3.5c-14.8,0.2-20.9-10-20.9-10l1.7-3.8C17.7,154.1,25.4,161.3,34.1,161.4z"></path>
		<path id="Path_652" class="st5" d="M101.6,100.5c-0.2,2.5-6.6,15.2-21,17.7c-12.7,2.2-24.5,2.2-22.3-16.1l4.1-1.2l34.2-1.6    C96.6,99.2,98.6,99.7,101.6,100.5z"></path>
		<circle id="Ellipse_22" class="st5" cx="86.2" cy="44.6" r="20.7"></circle>
		<circle id="Ellipse_23" class="st5" cx="93.3" cy="72.5" r="9.8"></circle>
		<circle id="Ellipse_24" class="st5" cx="48.6" cy="37.5" r="9.6"></circle>
		<circle id="Ellipse_25" class="st5" cx="52.1" cy="50" r="9.6"></circle>
		<g id="Group_189" transform="translate(46.692 21.618)">
			<path id="Path_653" class="st7" d="M57.6,46.3c-3.4,10.9-9.4,9-9.4,9c-1.9,18,2.6,24,2.6,24C41,91.1,29.2,92.9,22.3,92.8     c-1.5,0-3-0.2-4.5-0.4c-0.8-0.1-1.4-0.9-1.3-1.7c1.5-11.1-4.9-22-4.9-22c35.5-5,34-30.7,34-30.7l2.6-1.9     C54.2,32.4,61,35.4,57.6,46.3z"></path>
			<path id="Path_654" class="st7" d="M40.1,57.9c-8.7,9.8-21.7,12.3-29.6,10.5c-0.2,0-0.4-0.1-0.6-0.1l0,0     c-1.1-0.3-2.1-0.7-3.1-1.2c-0.3-0.2-0.5-0.3-0.8-0.5c-1.5-1.2-2.6-2.7-3.5-4.3c-2.7-4.8-2.8-10-2.3-15.5l1.1-12.2v-0.1l-0.4-6.9     L0.2,14.7C1,14.1,1.8,13.5,2.6,13c18.7-13,41.1-1.2,41.1-1.2S53.2,43.2,40.1,57.9z"></path>
			<path id="Path_655" class="st8" d="M10.5,68.5c-0.2,0-0.4-0.1-0.6-0.1l0,0c-0.2-0.1-0.3-0.2-0.5-0.3L10.5,68.5z"></path>
			<path id="Path_656" class="st4" d="M27.4,49h-22c0,0-0.5,10.3,11,10.3C27.4,59.3,27.4,49,27.4,49z"></path>
			<path id="Path_657" class="st5" d="M10.7,30.7C10.8,31.8,10,32.8,9,33s-2.1-0.6-2.2-1.7c-0.1-1.1,0.6-2.1,1.7-2.2     C9.5,28.9,10.5,29.6,10.7,30.7z"></path>
			<path id="Path_658" class="st5" d="M31.7,30.2c0.1,1.1-0.6,2.1-1.7,2.2c-1.1,0.1-2.1-0.6-2.2-1.7c-0.1-1.1,0.6-2.1,1.7-2.2     C30.5,28.4,31.5,29.2,31.7,30.2z"></path>
			<path id="Path_659" class="st5" d="M22.8,22.5l0.1,3c2.6-0.8,5.4-0.7,7.9,0.3c3.9,1.7,4.2,2.5,4.2,2.5l1-1.8     C36.1,26.6,32.3,20.4,22.8,22.5z"></path>
			<path id="Path_660" class="st5" d="M37,9.7c0,0,0.5,7.1,7,10.1c0,0,0.5,13.1-1.5,19.9h4.3l2.4-22C49.2,17.6,42.5,5.1,37,9.7z"></path>
			<path id="Path_661" class="st5" d="M41.8,10.9c0,0-18.4-3.5-23.1-1.1c-6.6,3.3-6.4-2.2-16.2,3.1c0,0-0.6,4.2-2.1,6.5l-0.2-4.6     l6.5-8.6l10.5-3.9l10.7-1.9L38.6,0L41.8,10.9z"></path>
			<path id="Path_662" class="st8" d="M42.5,54.6c0,0-0.3,15.1-14,21.9c-2.3,1.1-4.2,3-5.4,5.3c-1.2,2.5-1.9,6.1-0.9,11.1     c-1.5,0-3.1-0.2-4.6-0.4c-0.8-0.1-1.3-0.9-1.2-1.7c1.5-11.2-4.9-22-4.9-22C23.8,70.8,36.1,65.2,42.5,54.6z"></path>
			<path id="Path_663" class="st8" d="M53.9,40.2c0,0-7.1-0.3-4.7,9.6C49.2,49.8,48.7,42.6,53.9,40.2z"></path>
			<path id="Path_664" class="st8" d="M49.4,46.8c0,0,1.1-3.2,3.6-1.8c0,0-0.5-1.8-3.2-1.3L49.4,46.8z"></path>
			<path id="Path_665" class="st8" d="M18.8,41c0,0-0.1-2.9-4.8-2.9c-4.2,0-5.3,2.9-5.3,2.9H18.8z"></path>
			<path id="Path_666" class="st5" d="M1.9,27.3l0.8,2.1c1.3-1.7,3.2-2.9,5.3-3.2c1.4-0.3,2.8-0.3,4.1,0.1l0.1-2.8     C8.3,22.1,4,23.7,1.9,27.3z"></path>
			<path id="Path_667" class="st8" d="M10.5,60.3c0,0,0.7,0.8,5.5,1.1c2.7,0.2,5.3-0.2,7.9-1C23.9,60.4,16.3,67.7,10.5,60.3z"></path>
		</g>
		<circle id="Ellipse_26" class="st5" cx="70.6" cy="14.8" r="9.6"></circle>
		<path id="Path_668" class="st5" d="M93.3,18.4c0,5.3-4.3,9.6-9.6,9.6s-9.6-4.3-9.6-9.6s4.3-9.6,9.6-9.6    C89,8.8,93.3,13.1,93.3,18.4z"></path>
		<circle id="Ellipse_27" class="st5" cx="92.1" cy="27.1" r="9.6"></circle>
		<circle id="Ellipse_28" class="st5" cx="53.8" cy="18.4" r="14.1"></circle>
		<path id="Path_669" class="st5" d="M63.3,32.5c0,5.3-4.3,9.6-9.6,9.6c-5.3,0-9.6-4.3-9.6-9.6c0-5.3,4.3-9.6,9.6-9.6c0,0,0,0,0,0    C59.1,22.9,63.3,27.2,63.3,32.5z"></path>
		<circle id="Ellipse_29" class="st5" cx="63.9" cy="29.5" r="6.7"></circle>
		<path id="Path_670" class="st5" d="M100.9,100.3c0,0-10.7,19.1-7.2,45.3c4,30.5,27.4,46.1,27.4,46.1s6.4-10-2.1-23.4    c0,0-11.4-12.3-13-29.5s9.7-34.7,9.7-34.7S112,95.3,100.9,100.3z"></path>
		<path id="Path_671" class="st5" d="M62.4,100.8c0,0-11.9-2.1-22.3,8.7c-9,9.3-22.2,41.7-3.9,73.5l-0.8-18.1c0,0-2-15.3,3.7-34.6    c5.5-18.8,24.2-25.1,24.2-25.1C63,103.7,62.7,102.3,62.4,100.8z"></path>
		<path id="Path_672" class="st7" d="M163.1,202.7c-2.6,7.1-2.6,11.3-7,12s-6.8-2.8-11.7-3.7c-3.8-0.7-10.2-5.7-20.1-13.2    c-0.6-0.5-3.4-2.1-5.3-3.3c-0.5-0.3-1-0.6-1.4-0.8s-0.5-0.3-0.5-0.3l3.3-13.1l0.6-2.8c1.5,0.1,2.9,0.3,4.4,0.5    c-0.5-1-0.8-2.1-1-3.2c3.6-1.9,7.3-4,11.3-5.8c1.3-0.6,2.7-1.2,4.2-1.7c1.9-0.7,3.9-1.3,5.9-1.8c2.5-0.7,5.1-1.4,7.7-1.8l0.8,2.3    l4.4,12.5c0.7,1.9,1.4,3.7,2,5.2C163.5,190.3,165.8,195.6,163.1,202.7z"></path>
		<path id="Path_673" class="st8" d="M147.6,178.2c4.7,6.1,2.9,11,2.9,11c-2.9-7.1-9.8-6.7-13.9-8c-4.2-1.3-11-2.9-11-2.9    c-0.5-1-0.8-2.1-1-3.2c3.6-1.9,7.3-4,11.3-5.8c0,0,0,0,0,0c0.6-0.3,1.2-0.5,1.8-0.8c0.1,0,0.1-0.1,0.2-0.1    c0.7-0.3,1.4-0.6,2.1-0.8c1.9-0.7,3.9-1.3,5.9-1.8c2.5-0.7,5.1-1.4,7.7-1.8l0.8,2.3c0,0-14.6,0.3-10.6,6.9    C145,174.7,146.2,176.4,147.6,178.2z"></path>
		<path id="Path_674" class="st8" d="M140,167.5c-0.7,0.3-1.4,0.5-2.1,0.8C138.6,168.1,139.3,167.8,140,167.5z"></path>
		<path id="Path_675" class="st8" d="M119.1,194.6c-0.5-0.3-1-0.6-1.4-0.8c1.1-1.3,1.9-2.8,2.3-4.4    C120.2,191.1,119.9,193,119.1,194.6z"></path>
		<path id="Path_676" class="st7" d="M121.1,177.6l-2.9,16c-3.7,0-7.5-0.2-11.2-0.6c-4.9-0.6-11.4-3.6-11.7-5.5    c-0.2-1.8,0.7-2,0.9-2h0c-0.4-0.2-0.8-0.4-1.2-0.7l0,0c-1.4-0.8-2.1-2.2-2-3.8c0.4-2.4,1.1-2.8,1.4-2.8h0c0,0,0.1,0,0.1,0    c-0.3-0.2-0.6-0.5-0.8-0.8c-0.6-1-0.7-2.2-0.2-3.3c1-3,2-2.7,2-2.7c0-0.3-0.1-0.6-0.1-0.9c0-1.3,0.1-3.7,1.7-4.5    c2.1-1.2,8.4-1,11.1-0.5c0.2,0,0.3,0.1,0.5,0.1c1.2-1.1,2-2.6,2.4-4.2c0.1-0.8-0.5-2.7-0.9-4.8c-0.6-3.4-0.8-7.5,3.4-8.9    c0,0,2.1-0.9,1.9,3.2s1,5.1,1.7,8.5s1.5,5.7,1.2,9.1S121.1,177.6,121.1,177.6z"></path>
		<path id="Path_677" class="st8" d="M109.8,166.1l-1.6-0.5c0.2,0,0.3,0.1,0.5,0.1c1.2-1.1,2-2.6,2.4-4.2c0.1-0.8-0.5-2.7-0.9-4.8    l0,0c0.9,1.7,1.6,3.6,2.1,5.5C112.7,164.1,109.8,166.1,109.8,166.1z"></path>
		<path id="Path_678" class="st8" d="M102,172.4c-2.1-0.6-4.3-0.9-6.5-0.9c0-0.3-0.1-0.6-0.1-0.9C99.8,170.4,101.9,172.3,102,172.4z    "></path>
		<path id="Path_679" class="st8" d="M94.5,178.3L94.5,178.3C94.4,178.3,94.4,178.3,94.5,178.3z"></path>
		<path id="Path_680" class="st8" d="M101.1,179.5c-1.5-0.8-6.6-1.2-6.6-1.2c-0.3-0.2-0.6-0.5-0.8-0.8    C99.7,177.6,101.1,179.5,101.1,179.5z"></path>
		<path id="Path_681" class="st8" d="M100.3,186.7c-1.3-0.6-2.7-1-4.1-1.1c-0.4-0.2-0.8-0.4-1.2-0.7    C98.8,184.8,100.2,186.5,100.3,186.7z"></path>
		<path id="Path_682" class="st7" d="M21.8,186.9l5.7,15.2c3.7-0.7,7.3-1.5,10.9-2.6c4.7-1.5,10.6-5.6,10.5-7.5    c-0.1-1.8-1-1.8-1.2-1.8h0c0.4-0.3,0.8-0.5,1.1-0.9l0,0c1.2-1,1.7-2.6,1.3-4.1c-0.8-2.3-1.6-2.5-1.9-2.5h0c0,0-0.1,0-0.1,0    c0.3-0.3,0.5-0.6,0.7-1c0.4-1.1,0.2-2.3-0.4-3.3c-1.5-2.8-2.4-2.3-2.4-2.3s0-0.3-0.1-0.8c-0.2-1.3-0.8-3.6-2.5-4.2    c-2.2-0.8-8.5,0.5-11,1.6c-0.2,0.1-0.3,0.1-0.4,0.2c-1.4-0.9-2.5-2.2-3.1-3.7c-0.3-0.8,0-2.7,0-4.9c0-3.5-0.5-7.5-4.9-8.1    c0,0-2.2-0.5-1.3,3.5s0,5.1-0.1,8.7s-0.4,5.8,0.4,9.2S21.8,186.9,21.8,186.9z"></path>
		<path id="Path_683" class="st8" d="M31,173.5l1.4-0.8c-0.2,0.1-0.3,0.1-0.4,0.2c-1.4-0.9-2.5-2.2-3.1-3.7c-0.3-0.8,0-2.7,0-4.9    l0,0c-0.6,1.9-0.9,3.8-1.1,5.8C27.7,172,31,173.5,31,173.5z"></path>
		<path id="Path_684" class="st8" d="M39.7,178.3c2-1,4.1-1.7,6.3-2.1c0,0,0-0.3-0.1-0.8C41.5,176,39.8,178.2,39.7,178.3z"></path>
		<path id="Path_685" class="st8" d="M48.2,182.8C48.2,182.8,48.3,182.8,48.2,182.8C48.3,182.8,48.2,182.8,48.2,182.8z"></path>
		<path id="Path_686" class="st8" d="M41.9,185.1c1.4-1.1,6.3-2.3,6.3-2.3c0.3-0.3,0.5-0.6,0.7-1C42.9,183,41.9,185.1,41.9,185.1z"></path>
		<path id="Path_687" class="st8" d="M44,192c1.2-0.8,2.5-1.4,3.8-1.8c0.4-0.3,0.8-0.5,1.1-0.9C45.1,190,44,191.9,44,192z"></path>
		<path id="Path_688" class="st7" d="M27.6,202.1c-0.3,0.4-0.6,0.8-0.9,1.2c-2.6,3.1-6.1,5.3-10,6.5c-10.3,3.5-14.8-9.4-13.4-15.3    s8-6,8.5-6.3s10.9-4.8,10.9-4.8L27.6,202.1z"></path>
		<path id="Path_689" class="st8" d="M27.6,202.1c0,0,0,0.1-0.6,0.9c-0.8-1.8-1.2-3.7-1.2-5.6C26.8,200.1,27.5,201.9,27.6,202.1    L27.6,202.1z"></path>
	</g>
	<g class="st3">
		<path class="st2" d="M-46.8-7120.4h-81.4v-13.4l39.8-52.4c6.4-9.1,10.9-16.6,13.5-22.6c2.6-6,3.8-11.7,3.8-17.3    c0-7.7-1.6-13.9-4.8-18.7c-3.2-4.8-7.7-7.3-13.3-7.3c-7.1,0-12.4,2.7-16,8c-3.6,5.3-5.3,12.6-5.3,21.9h-19.4l-0.2-0.5    c-0.3-12.6,3.3-23.1,10.7-31.8c7.4-8.6,17.5-12.9,30.3-12.9c11.8,0,21.2,3.7,28,11.2s10.3,17.3,10.3,29.6c0,8.3-2.1,16.5-6.3,24.6    c-4.2,8.1-10.3,17.1-18.4,27l-27.4,39.3h56.1V-7120.4z"></path>
		<path class="st2" d="M-3.7-7133.7c7.4,0,13.3-3.4,17.9-10.3c4.5-6.8,6.8-16.7,6.8-29.6v-7.1c-2.8,4.8-6.2,8.4-10.3,10.8    c-4.1,2.5-8.5,3.7-13.2,3.7c-11.6,0-20.7-4.5-27.4-13.4c-6.7-8.9-10.1-21-10.1-36.3c0-14.8,3.8-27.1,11.4-37    c7.6-9.9,17-14.8,28.2-14.8c12.6,0,22.6,4.8,30.2,14.3c7.6,9.6,11.4,23.3,11.4,41.3v37.9c0,17.7-4.2,31.4-12.6,41.1    c-8.4,9.7-19.2,14.6-32.4,14.6c-4.1,0-8.4-0.5-12.9-1.5c-4.5-1-8.7-2.5-12.6-4.4l2.7-14.7c3.5,1.9,7.1,3.3,10.7,4.1    C-12.2-7134.1-8.1-7133.7-3.7-7133.7z M-0.4-7181.4c5.2,0,9.6-1.5,13.2-4.4c3.6-3,6.4-6.8,8.2-11.4v-16.8c0-12.5-1.9-22-5.6-28.4    c-3.7-6.5-8.9-9.7-15.5-9.7c-5.6,0-10.3,3.5-14.1,10.5c-3.8,7-5.6,15.6-5.6,25.8c0,10.2,1.7,18.5,5.1,25    C-11.3-7184.6-6.5-7181.4-0.4-7181.4z"></path>
	</g>
	<g class="st3">
		<path class="st2" d="M61.1-7217.9H55v-6h6.1V-7217.9z"></path>
		<path class="st2" d="M76.5-7221.9c2.2,0,4-1,5.3-3.1c1.4-2,2-5,2-8.8v-2.1c-0.8,1.4-1.9,2.5-3.1,3.2c-1.2,0.7-2.5,1.1-4,1.1    c-3.5,0-6.2-1.3-8.2-4c-2-2.7-3-6.3-3-10.9c0-4.4,1.1-8.1,3.4-11.1c2.3-2.9,5.1-4.4,8.4-4.4c3.8,0,6.8,1.4,9,4.3    c2.3,2.9,3.4,7,3.4,12.4v11.3c0,5.3-1.3,9.4-3.8,12.3c-2.5,2.9-5.7,4.4-9.7,4.4c-1.2,0-2.5-0.2-3.9-0.5s-2.6-0.8-3.8-1.3l0.8-4.4    c1.1,0.6,2.1,1,3.2,1.2C73.9-7222,75.1-7221.9,76.5-7221.9z M77.5-7236.1c1.5,0,2.9-0.4,3.9-1.3s1.9-2,2.5-3.4v-5    c0-3.7-0.6-6.6-1.7-8.5c-1.1-1.9-2.7-2.9-4.6-2.9c-1.7,0-3.1,1-4.2,3.1c-1.1,2.1-1.7,4.7-1.7,7.7c0,3.1,0.5,5.5,1.5,7.5    S75.6-7236.1,77.5-7236.1z"></path>
		<path class="st2" d="M117.6-7234.7c0,5.6-1.1,9.9-3.2,12.9c-2.2,3-5.1,4.5-8.8,4.5c-3.7,0-6.7-1.5-8.8-4.5    c-2.2-3-3.3-7.3-3.3-12.9v-9.8c0-5.6,1.1-9.9,3.2-12.9c2.2-3,5.1-4.5,8.8-4.5s6.6,1.5,8.8,4.5c2.2,3,3.3,7.3,3.3,12.9V-7234.7z     M111.6-7245.4c0-3.9-0.5-6.9-1.6-8.9c-1-2-2.5-3-4.5-3s-3.4,1-4.5,3c-1,2-1.5,5-1.5,8.9v11.5c0,3.9,0.5,6.9,1.6,9    c1,2,2.5,3,4.5,3c1.9,0,3.4-1,4.4-3c1-2,1.5-5,1.5-9V-7245.4z"></path>
	</g>
	<g class="st3">
		<path class="st2" d="M-180.1-7205.3c0-3.1-0.9-5.6-2.6-7.5c-1.7-2-4.7-3.7-9-5.2c-6.2-1.9-10.9-4.3-14.2-7.3    c-3.3-3-4.9-7-4.9-11.9c0-5.1,1.8-9.3,5.5-12.5c3.7-3.3,8.4-4.9,14.1-4.9c6,0,10.8,1.9,14.5,5.7c3.7,3.8,5.4,8.3,5.3,13.7    l-0.1,0.3h-8.7c0-3.8-1-6.8-2.9-9.2c-1.9-2.4-4.7-3.5-8.2-3.5c-3.3,0-5.9,1-7.8,3c-1.8,2-2.7,4.5-2.7,7.5c0,2.8,1,5.1,2.9,7    c2,1.9,5.2,3.6,9.7,5.1c5.9,1.8,10.4,4.3,13.5,7.5c3.1,3.2,4.6,7.3,4.6,12.3c0,5.3-1.8,9.5-5.5,12.6c-3.6,3.1-8.4,4.7-14.4,4.7    c-5.8,0-10.8-1.7-15.1-5.1c-4.3-3.4-6.4-8.2-6.2-14.5l0.1-0.3h8.7c0,4.4,1.2,7.7,3.5,9.8c2.3,2.1,5.4,3.2,9.1,3.2    c3.4,0,6-0.9,7.9-2.8C-181.1-7199.6-180.1-7202.1-180.1-7205.3z"></path>
		<path class="st2" d="M-160.6-7183.4h-7.1l21.4-70.3h7.1L-160.6-7183.4z"></path>
	</g>
	<g class="st3">
		<path class="st2" d="M-192.1-6905.1c0-0.6-0.2-1.1-0.6-1.5c-0.4-0.4-1.2-0.7-2.2-1c-1.9-0.5-3.3-1.2-4.2-1.9c-1-0.7-1.4-1.7-1.4-3    s0.5-2.3,1.6-3.1c1.1-0.8,2.5-1.2,4.2-1.2c1.7,0,3.1,0.5,4.2,1.4c1.1,0.9,1.6,2,1.6,3.4l0,0.1h-3c0-0.7-0.2-1.3-0.7-1.8    c-0.5-0.4-1.2-0.7-2-0.7c-0.8,0-1.5,0.2-1.9,0.6c-0.5,0.4-0.7,0.8-0.7,1.4c0,0.5,0.2,1,0.7,1.3c0.5,0.3,1.3,0.7,2.5,1.1    c1.7,0.5,3,1.1,3.9,1.9c0.9,0.8,1.3,1.8,1.3,3.1c0,1.3-0.5,2.4-1.6,3.2c-1.1,0.8-2.5,1.2-4.2,1.2c-1.7,0-3.2-0.4-4.5-1.3    c-1.3-0.9-1.9-2.1-1.8-3.7l0-0.1h3.1c0,0.9,0.3,1.6,0.9,2c0.6,0.4,1.4,0.7,2.4,0.7c0.9,0,1.5-0.2,2-0.5    S-192.1-6904.5-192.1-6905.1z"></path>
		<path class="st2" d="M-183.3-6901h-3.1v-15.6h3.1V-6901z"></path>
		<path class="st2" d="M-167.5-6901h-3.1l-6.3-10.7l-0.1,0v10.7h-3.1v-15.6h3.1l6.3,10.7l0.1,0v-10.7h3.1V-6901z"></path>
		<path class="st2" d="M-155.9-6906.7v5.7h-3.1v-15.6h6.2c1.8,0,3.2,0.5,4.2,1.4s1.5,2.1,1.5,3.6s-0.5,2.7-1.5,3.6s-2.4,1.4-4.2,1.4    H-155.9z M-155.9-6909.1h3.1c0.9,0,1.5-0.2,2-0.7c0.5-0.5,0.7-1.1,0.7-1.8c0-0.8-0.2-1.4-0.7-1.9c-0.4-0.5-1.1-0.7-2-0.7h-3.1    V-6909.1z"></path>
		<path class="st2" d="M-138.2-6904.4h-5.5l-1.1,3.4h-3.2l5.4-15.6h3.2l5.4,15.6h-3.2L-138.2-6904.4z M-142.9-6906.8h3.9l-1.9-6.1    h-0.1L-142.9-6906.8z"></path>
		<path class="st2" d="M-120.5-6903.1c-0.5,0.6-1.2,1.2-2.2,1.6c-1,0.5-2.2,0.7-3.7,0.7c-1.9,0-3.5-0.6-4.7-1.8    c-1.2-1.2-1.8-2.7-1.8-4.6v-3.3c0-1.9,0.6-3.4,1.7-4.6c1.2-1.2,2.7-1.8,4.5-1.8c1.9,0,3.4,0.5,4.4,1.4c1,0.9,1.5,2.1,1.6,3.7    l0,0.1h-3c-0.1-0.8-0.3-1.5-0.8-2c-0.5-0.5-1.2-0.7-2.1-0.7c-1,0-1.7,0.4-2.3,1.1c-0.6,0.7-0.9,1.7-0.9,2.9v3.3    c0,1.2,0.3,2.2,0.9,2.9c0.6,0.7,1.4,1.1,2.5,1.1c0.7,0,1.3-0.1,1.8-0.2c0.4-0.2,0.8-0.3,1-0.6v-2.9h-2.8v-2.2h5.9V-6903.1z"></path>
		<path class="st2" d="M-105.2-6907.4c0,1.9-0.6,3.5-1.8,4.8s-2.8,1.9-4.7,1.9c-1.9,0-3.5-0.6-4.7-1.9s-1.8-2.8-1.8-4.8v-2.8    c0-1.9,0.6-3.5,1.8-4.8c1.2-1.3,2.8-1.9,4.7-1.9c1.9,0,3.5,0.6,4.7,1.9c1.2,1.3,1.8,2.8,1.8,4.8V-6907.4z M-108.3-6910.2    c0-1.2-0.3-2.2-0.9-3c-0.6-0.8-1.4-1.2-2.5-1.2c-1.1,0-1.9,0.4-2.5,1.2c-0.6,0.8-0.9,1.8-0.9,3v2.8c0,1.2,0.3,2.3,0.9,3    c0.6,0.8,1.4,1.2,2.5,1.2c1.1,0,1.9-0.4,2.5-1.2s0.9-1.8,0.9-3V-6910.2z"></path>
		<path class="st2" d="M-97.3-6901v-15.6h5.4c1.9,0,3.5,0.6,4.7,1.8c1.2,1.2,1.9,2.8,1.9,4.7v2.6c0,1.9-0.6,3.5-1.9,4.7    c-1.2,1.2-2.8,1.8-4.7,1.8H-97.3z M-94.1-6914.2v10.8h2.1c1.1,0,2-0.4,2.6-1.1c0.6-0.8,1-1.7,1-3v-2.6c0-1.2-0.3-2.2-1-3    c-0.6-0.8-1.5-1.1-2.6-1.1H-94.1z"></path>
		<path class="st2" d="M-73.2-6907.9h-6.5v4.5h7.6v2.4h-10.7v-15.6h10.7v2.4h-7.6v3.9h6.5V-6907.9z"></path>
		<path class="st2" d="M-56.3-6904.4h-5.5l-1.1,3.4h-3.2l5.4-15.6h3.2l5.4,15.6h-3.2L-56.3-6904.4z M-61.1-6906.8h3.9l-1.9-6.1h-0.1    L-61.1-6906.8z"></path>
		<path class="st2" d="M-41-6907.5h-6.6v6.5h-3.1v-15.6h10.8v2.4h-7.6v4.3h6.6V-6907.5z"></path>
		<path class="st2" d="M-34.6-6901h-3.1v-15.6h3.1V-6901z"></path>
		<path class="st2" d="M-28.4-6903.4h7v2.4h-10.1v-15.6h3.1V-6903.4z"></path>
		<path class="st2" d="M-16.3-6901h-3.1v-15.6h3.1V-6901z"></path>
		<path class="st2" d="M-4.7-6904.4h-5.5l-1.1,3.4h-3.2l5.4-15.6h3.2l5.4,15.6h-3.2L-4.7-6904.4z M-9.5-6906.8h3.9l-1.9-6.1h-0.1    L-9.5-6906.8z"></path>
		<path class="st2" d="M12.8-6906.3L12.8-6906.3c0,1.7-0.5,3.1-1.5,4.1c-1.1,1-2.5,1.5-4.4,1.5c-1.9,0-3.4-0.6-4.6-1.8    c-1.2-1.2-1.8-2.8-1.8-4.7v-3.1c0-1.9,0.6-3.5,1.7-4.7c1.1-1.2,2.6-1.8,4.5-1.8c1.9,0,3.4,0.5,4.5,1.5c1.1,1,1.6,2.3,1.6,4.1    l0,0.1H9.7c0-1-0.2-1.8-0.7-2.4c-0.5-0.5-1.3-0.8-2.3-0.8c-0.9,0-1.7,0.4-2.2,1.1c-0.6,0.8-0.8,1.7-0.8,2.9v3.1    c0,1.2,0.3,2.2,0.9,2.9c0.6,0.8,1.4,1.1,2.4,1.1c1,0,1.7-0.3,2.2-0.8c0.5-0.5,0.7-1.3,0.7-2.3H12.8z"></path>
		<path class="st2" d="M18.3-6901h-3.1v-15.6h3.1V-6901z"></path>
		<path class="st2" d="M34-6907.4c0,1.9-0.6,3.5-1.8,4.8s-2.8,1.9-4.7,1.9c-1.9,0-3.5-0.6-4.7-1.9s-1.8-2.8-1.8-4.8v-2.8    c0-1.9,0.6-3.5,1.8-4.8c1.2-1.3,2.8-1.9,4.7-1.9c1.9,0,3.5,0.6,4.7,1.9c1.2,1.3,1.8,2.8,1.8,4.8V-6907.4z M30.9-6910.2    c0-1.2-0.3-2.2-0.9-3c-0.6-0.8-1.4-1.2-2.5-1.2c-1.1,0-1.9,0.4-2.5,1.2c-0.6,0.8-0.9,1.8-0.9,3v2.8c0,1.2,0.3,2.3,0.9,3    c0.6,0.8,1.4,1.2,2.5,1.2c1.1,0,1.9-0.4,2.5-1.2s0.9-1.8,0.9-3V-6910.2z M28.1-6920.8h3.3l0,0.1l-3,2.8h-2.5L28.1-6920.8z"></path>
		<path class="st2" d="M49.1-6901H46l-6.3-10.7l-0.1,0v10.7h-3.1v-15.6h3.1L46-6906l0.1,0v-10.7h3.1V-6901z"></path>
	</g>
</g>
</svg>