<svg xmlns="http://www.w3.org/2000/svg" xmlns:xlink="http://www.w3.org/1999/xlink" id="Capa_1" x="0px" y="0px" viewBox="0 0 651.3 617.8" style="enable-background:new 0 0 651.3 617.8;" xml:space="preserve">
<style type="text/css">
	.st0{fill:#FFB9B2;}
	.st1{opacity:0.25;fill:#FFFFFF;enable-background:new    ;}
	.st2{enable-background:new    ;}
	.st3{fill:#27028A;}
	.st4{fill-rule:evenodd;clip-rule:evenodd;fill:#E8BF96;}
	.st5{fill-rule:evenodd;clip-rule:evenodd;fill:#D5813F;}
	.st6{fill-rule:evenodd;clip-rule:evenodd;fill:#D5801E;}
	.st7{fill-rule:evenodd;clip-rule:evenodd;fill:#57997B;}
	.st8{fill-rule:evenodd;clip-rule:evenodd;fill:#D6AA80;}
	.st9{fill-rule:evenodd;clip-rule:evenodd;fill:#FFFFFF;}
	.st10{fill-rule:evenodd;clip-rule:evenodd;fill:#513B30;}
	.st11{fill-rule:evenodd;clip-rule:evenodd;fill:#3F3D3C;}
	.st12{fill-rule:evenodd;clip-rule:evenodd;fill:#AB6B27;}
	.st13{fill-rule:evenodd;clip-rule:evenodd;fill:#604952;}
	.st14{fill-rule:evenodd;clip-rule:evenodd;fill:#B4403D;}
	.st15{fill-rule:evenodd;clip-rule:evenodd;fill:#BA7B39;}
	.st16{fill-rule:evenodd;clip-rule:evenodd;fill:#CF6D6C;}
	.st17{fill-rule:evenodd;clip-rule:evenodd;fill:#E0A887;}
	.st18{fill-rule:evenodd;clip-rule:evenodd;fill:#80736B;}
	.st19{fill-rule:evenodd;clip-rule:evenodd;fill:#8A4D39;}
	.st20{fill-rule:evenodd;clip-rule:evenodd;fill:#E4B480;}
	.st21{fill-rule:evenodd;clip-rule:evenodd;fill:#E5E3E2;}
	.st22{fill-rule:evenodd;clip-rule:evenodd;fill:#E0A884;}
	.st23{fill-rule:evenodd;clip-rule:evenodd;fill:#FDFAD9;}
	.st24{fill-rule:evenodd;clip-rule:evenodd;fill:#C1721F;}
	.st25{fill-rule:evenodd;clip-rule:evenodd;fill:#373434;}
	.st26{fill-rule:evenodd;clip-rule:evenodd;fill:#EFF0F0;}
	.st27{fill-rule:evenodd;clip-rule:evenodd;fill:#4E8970;}
	.st28{fill-rule:evenodd;clip-rule:evenodd;fill:#4A352B;}
	.st29{fill-rule:evenodd;clip-rule:evenodd;fill:#A66328;}
	.st30{fill-rule:evenodd;clip-rule:evenodd;fill:#71635C;}
	.st31{fill:#FFFFFF;}
</style>
<g id="Group_1303" transform="translate(1603 6719.523)">
	<g id="Group_1184" transform="translate(-1603 -6719.523)">
		<path id="Rectangle_149" class="st0" d="M10,0.5h631.3c5.5,0,10,4.5,10,10v597.3c0,5.5-4.5,10-10,10H10c-5.5,0-10-4.5-10-10V10.5    C0,5,4.5,0.5,10,0.5z"></path>
		<path id="Path_1914" class="st1" d="M0,617.8V0h650.9L0,617.8z"></path>
	</g>
	<g class="st2">
		<path class="st3" d="M-1544.9-6410.7v17.7h-3.5v-42.7h14.7c4.5,0,7.9,1.1,10.4,3.4c2.5,2.3,3.7,5.3,3.7,9c0,3.8-1.2,6.8-3.7,9.1    c-2.5,2.3-5.9,3.4-10.4,3.4H-1544.9z M-1544.9-6413.7h11.2c3.5,0,6.2-0.9,7.9-2.7c1.8-1.8,2.7-4,2.7-6.8c0-2.7-0.9-5-2.6-6.8    s-4.4-2.7-7.9-2.7h-11.2V-6413.7z"></path>
		<path class="st3" d="M-1497.6-6421.7l-2.6-0.2c-2.2,0-4,0.6-5.4,1.9c-1.4,1.2-2.4,2.9-3,5.1v21.9h-3.5v-31.7h3.1l0.4,5.3v0.4    c0.9-2,2.1-3.5,3.7-4.6c1.5-1.1,3.4-1.6,5.5-1.6c0.4,0,0.9,0,1.3,0.1c0.4,0.1,0.8,0.1,1,0.2L-1497.6-6421.7z"></path>
		<path class="st3" d="M-1494.4-6409.3c0-4.7,1.3-8.5,3.8-11.5c2.6-3,5.9-4.5,10.2-4.5c4.2,0,7.6,1.5,10.2,4.5    c2.6,3,3.8,6.8,3.8,11.5v1c0,4.7-1.3,8.5-3.8,11.5s-5.9,4.5-10.2,4.5c-4.3,0-7.7-1.5-10.2-4.5c-2.6-3-3.8-6.8-3.8-11.5V-6409.3z     M-1490.8-6408.4c0,3.7,0.9,6.8,2.8,9.2c1.9,2.5,4.4,3.7,7.8,3.7c3.3,0,5.8-1.2,7.7-3.7c1.9-2.5,2.8-5.6,2.8-9.2v-1    c0-3.6-0.9-6.7-2.8-9.2s-4.5-3.8-7.7-3.8s-5.8,1.3-7.7,3.8c-1.9,2.5-2.8,5.6-2.8,9.2V-6408.4z"></path>
		<path class="st3" d="M-1460.4-6408.6c0-5.1,1.1-9.1,3.2-12.1c2.2-3,5.2-4.6,9-4.6c2.2,0,4.2,0.5,5.8,1.5s3,2.4,4.1,4.2l0.4-5.1h3    v31.3c0,4.1-1.1,7.3-3.4,9.7s-5.4,3.5-9.4,3.5c-1.5,0-3.1-0.2-4.9-0.6c-1.7-0.4-3.2-0.9-4.5-1.5l0.9-3c1.2,0.6,2.6,1.1,4,1.4    c1.4,0.3,2.9,0.5,4.5,0.5c3.1,0,5.4-0.9,7-2.7c1.6-1.8,2.4-4.2,2.4-7.4v-4c-1.1,1.6-2.4,2.8-4.1,3.7s-3.6,1.3-5.7,1.3    c-3.8,0-6.8-1.4-9-4.2c-2.2-2.8-3.2-6.6-3.2-11.3V-6408.6z M-1456.9-6408c0,3.8,0.8,6.9,2.3,9.2c1.6,2.3,3.9,3.4,7,3.4    c2.3,0,4.2-0.5,5.7-1.6c1.5-1,2.7-2.5,3.5-4.3v-14.7c-0.8-1.9-1.9-3.4-3.4-4.6c-1.5-1.2-3.4-1.8-5.8-1.8c-3.1,0-5.4,1.3-7,3.8    c-1.6,2.6-2.4,5.8-2.4,9.9V-6408z"></path>
		<path class="st3" d="M-1411-6421.7l-2.6-0.2c-2.2,0-4,0.6-5.4,1.9c-1.4,1.2-2.4,2.9-3,5.1v21.9h-3.5v-31.7h3.1l0.4,5.3v0.4    c0.9-2,2.1-3.5,3.7-4.6c1.5-1.1,3.4-1.6,5.5-1.6c0.4,0,0.9,0,1.3,0.1c0.4,0.1,0.8,0.1,1,0.2L-1411-6421.7z"></path>
		<path class="st3" d="M-1385.1-6393c-0.2-1.1-0.4-2-0.5-2.8c-0.1-0.8-0.1-1.6-0.1-2.4c-1.2,1.7-2.7,3-4.7,4.1    c-2,1.1-4.2,1.6-6.6,1.6c-3.1,0-5.5-0.8-7.2-2.5c-1.7-1.6-2.6-3.8-2.6-6.6c0-2.9,1.3-5.3,3.8-7c2.5-1.8,5.9-2.6,10.2-2.6h7v-3.9    c0-2.3-0.7-4-2.2-5.3c-1.5-1.3-3.5-1.9-6.1-1.9c-2.4,0-4.5,0.6-6.1,1.8s-2.4,2.7-2.4,4.5l-3.2,0l-0.1-0.2c-0.1-2.4,1-4.5,3.2-6.3    c2.3-1.9,5.2-2.8,8.7-2.8c3.5,0,6.3,0.9,8.4,2.7c2.1,1.8,3.2,4.3,3.2,7.6v15.6c0,1.1,0.1,2.2,0.2,3.3c0.1,1.1,0.3,2.1,0.6,3.1    H-1385.1z M-1396.6-6395.5c2.5,0,4.7-0.6,6.7-1.8s3.3-2.7,4.2-4.5v-6.6h-7.1c-3.2,0-5.7,0.7-7.6,2s-2.9,3-2.9,5.1    c0,1.7,0.6,3.1,1.8,4.2C-1400.3-6396-1398.7-6395.5-1396.6-6395.5z"></path>
		<path class="st3" d="M-1369.9-6424.7l0.3,5.2c1-1.9,2.4-3.3,4.1-4.3c1.7-1,3.7-1.5,6-1.5c2.4,0,4.4,0.6,6.1,1.8    c1.6,1.2,2.8,3,3.5,5.4c1-2.2,2.3-4,4.1-5.2c1.8-1.3,3.9-1.9,6.5-1.9c3.4,0,6,1.1,7.8,3.4c1.8,2.2,2.8,5.7,2.8,10.4v18.5h-3.5    v-18.6c0-3.9-0.7-6.7-2.1-8.3s-3.3-2.4-5.8-2.4c-2.7,0-4.8,0.9-6.3,2.6c-1.5,1.7-2.4,3.9-2.8,6.5c0,0.1,0,0.3,0,0.6    c0,0.3,0,0.4,0,0.6v19.1h-3.5v-18.6c0-3.8-0.7-6.6-2.1-8.2c-1.4-1.7-3.3-2.5-5.8-2.5c-2.5,0-4.4,0.6-5.9,1.9    c-1.5,1.3-2.5,3-3.1,5.1v22.3h-3.5v-31.7H-1369.9z"></path>
		<path class="st3" d="M-1299.7-6393c-0.2-1.1-0.4-2-0.5-2.8c-0.1-0.8-0.1-1.6-0.1-2.4c-1.2,1.7-2.7,3-4.7,4.1    c-2,1.1-4.2,1.6-6.6,1.6c-3.1,0-5.5-0.8-7.2-2.5c-1.7-1.6-2.6-3.8-2.6-6.6c0-2.9,1.3-5.3,3.8-7c2.5-1.8,5.9-2.6,10.2-2.6h7v-3.9    c0-2.3-0.7-4-2.2-5.3c-1.5-1.3-3.5-1.9-6.1-1.9c-2.4,0-4.5,0.6-6.1,1.8s-2.4,2.7-2.4,4.5l-3.2,0l-0.1-0.2c-0.1-2.4,1-4.5,3.2-6.3    c2.3-1.9,5.2-2.8,8.7-2.8c3.5,0,6.3,0.9,8.4,2.7c2.1,1.8,3.2,4.3,3.2,7.6v15.6c0,1.1,0.1,2.2,0.2,3.3c0.1,1.1,0.3,2.1,0.6,3.1    H-1299.7z M-1311.2-6395.5c2.5,0,4.7-0.6,6.7-1.8s3.3-2.7,4.2-4.5v-6.6h-7.1c-3.2,0-5.7,0.7-7.6,2s-2.9,3-2.9,5.1    c0,1.7,0.6,3.1,1.8,4.2C-1314.9-6396-1313.3-6395.5-1311.2-6395.5z"></path>
	</g>
	<g class="st2">
		<path class="st3" d="M-1532.5-6340.4h-12l-2.3,7.4h-6.9l11.7-34.1h7l11.7,34.1h-6.9L-1532.5-6340.4z M-1542.8-6345.7h8.6    l-4.2-13.4h-0.1L-1542.8-6345.7z"></path>
		<path class="st3" d="M-1521.7-6345.5c0-4,0.9-7.2,2.6-9.7s4.2-3.7,7.3-3.7c1.3,0,2.4,0.3,3.4,0.8s1.9,1.3,2.7,2.3v-13.9h6.9v36.6    h-5.9l-0.6-3.1c-0.8,1.2-1.7,2.1-2.8,2.7s-2.3,0.9-3.7,0.9c-3.1,0-5.5-1.1-7.3-3.4s-2.6-5.3-2.6-9V-6345.5z M-1514.9-6345    c0,2.2,0.4,4,1.1,5.3s2,1.9,3.7,1.9c1,0,1.8-0.2,2.6-0.6s1.3-1,1.8-1.8v-10.9c-0.5-0.8-1.1-1.4-1.8-1.9s-1.6-0.7-2.5-0.7    c-1.7,0-2.9,0.7-3.7,2.2c-0.8,1.5-1.2,3.4-1.2,5.8V-6345z"></path>
		<path class="st3" d="M-1478-6336.7c-0.8,1.3-1.8,2.4-3,3.1s-2.6,1.1-4.1,1.1c-2.7,0-4.8-0.9-6.3-2.6s-2.3-4.4-2.3-8v-15.3h6.8    v15.4c0,1.8,0.3,3.2,0.9,4c0.6,0.8,1.5,1.2,2.8,1.2c1.1,0,2-0.2,2.8-0.5c0.8-0.4,1.4-0.9,1.9-1.6v-18.5h6.8v25.4h-5.8    L-1478-6336.7z"></path>
		<path class="st3" d="M-1459.2-6333h-6.8v-36.6h6.8V-6333z"></path>
		<path class="st3" d="M-1445.5-6364.6v6.2h4.3v4.8h-4.3v12.9c0,1,0.2,1.7,0.6,2.1s1,0.6,1.6,0.6c0.4,0,0.7,0,0.9-0.1    s0.6-0.1,0.9-0.2l0.6,4.9c-0.7,0.2-1.4,0.4-2,0.5s-1.4,0.2-2.1,0.2c-2.4,0-4.2-0.6-5.4-1.9s-1.9-3.4-1.9-6.2v-12.9h-3.7v-4.8h3.7    v-6.2H-1445.5z"></path>
		<path class="st3" d="M-1437.9-6345.9c0-3.8,1.1-6.9,3.2-9.3s5-3.6,8.8-3.6c3.8,0,6.7,1.2,8.8,3.6s3.2,5.5,3.2,9.3v0.5    c0,3.8-1.1,6.9-3.2,9.3s-5,3.6-8.8,3.6c-3.8,0-6.7-1.2-8.8-3.6s-3.2-5.5-3.2-9.3V-6345.9z M-1431.1-6345.4c0,2.3,0.4,4.2,1.2,5.6    c0.8,1.4,2.1,2.1,3.9,2.1c1.8,0,3.1-0.7,3.9-2.1c0.8-1.4,1.2-3.3,1.2-5.5v-0.5c0-2.2-0.4-4.1-1.2-5.5s-2.1-2.1-3.9-2.1    c-1.8,0-3.1,0.7-3.9,2.1s-1.2,3.3-1.2,5.5V-6345.4z"></path>
		<path class="st3" d="M-1388.3-6367.1l8.7,25.1h0.1l8.8-25.1h9v34.1h-6.8v-10.2l0.7-15.1l-0.1,0l-9.1,25.3h-4.6l-9.1-25.2l-0.1,0    l0.7,15v10.2h-6.8v-34.1H-1388.3z"></path>
		<path class="st3" d="M-1341-6333c-0.3-0.6-0.5-1.2-0.6-1.8s-0.3-1.3-0.4-2c-0.7,1.2-1.6,2.3-2.8,3.1s-2.5,1.2-4.1,1.2    c-2.7,0-4.7-0.7-6.1-2.1s-2.2-3.2-2.2-5.6c0-2.5,1-4.4,2.9-5.8s4.7-2.1,8.4-2.1h3.8v-2c0-1.2-0.3-2.2-1-2.8s-1.6-1-2.8-1    c-1.1,0-2,0.3-2.6,0.8s-0.9,1.3-0.9,2.2l-6.6,0l0-0.1c-0.1-2.1,0.8-4,2.8-5.5s4.6-2.3,7.8-2.3c3,0,5.5,0.8,7.4,2.3    s2.8,3.7,2.8,6.6v10.5c0,1.2,0.1,2.3,0.3,3.4s0.5,2.1,0.9,3.1H-1341z M-1347.3-6337.6c1.2,0,2.3-0.3,3.2-0.9s1.6-1.3,1.9-2.1v-3.6    h-3.8c-1.5,0-2.6,0.4-3.3,1.1s-1.1,1.6-1.1,2.6c0,0.8,0.3,1.5,0.8,2S-1348.3-6337.6-1347.3-6337.6z"></path>
		<path class="st3" d="M-1321.4-6343.6l0.3,1.4h0.1l4.9-16.1h7.4l-10.3,29.2c-0.7,1.8-1.7,3.3-2.9,4.6s-3.1,1.9-5.6,1.9    c-0.6,0-1.1,0-1.6-0.1s-1.1-0.2-1.8-0.4l0.8-5c0.2,0,0.4,0.1,0.7,0.1s0.4,0,0.6,0c1.1,0,2-0.3,2.6-0.8s1.1-1.2,1.4-2.1l0.8-2    l-9-25.3h7.4L-1321.4-6343.6z"></path>
		<path class="st3" d="M-1307.5-6345.9c0-3.8,1.1-6.9,3.2-9.3s5-3.6,8.8-3.6c3.8,0,6.7,1.2,8.8,3.6s3.2,5.5,3.2,9.3v0.5    c0,3.8-1.1,6.9-3.2,9.3s-5,3.6-8.8,3.6c-3.8,0-6.7-1.2-8.8-3.6s-3.2-5.5-3.2-9.3V-6345.9z M-1300.7-6345.4c0,2.3,0.4,4.2,1.2,5.6    c0.8,1.4,2.1,2.1,3.9,2.1c1.8,0,3.1-0.7,3.9-2.1c0.8-1.4,1.2-3.3,1.2-5.5v-0.5c0-2.2-0.4-4.1-1.2-5.5s-2.1-2.1-3.9-2.1    c-1.8,0-3.1,0.7-3.9,2.1s-1.2,3.3-1.2,5.5V-6345.4z"></path>
		<path class="st3" d="M-1266-6352.5l-2.5-0.1c-1,0-1.9,0.2-2.5,0.6s-1.2,1-1.5,1.8v17.1h-6.8v-25.4h6.4l0.3,3.8    c0.6-1.3,1.4-2.4,2.3-3.1s2-1.1,3.3-1.1c0.3,0,0.7,0,0.9,0.1s0.6,0.1,0.9,0.2L-1266-6352.5z"></path>
	</g>
	<g id="Group_1190" transform="translate(-1251.72 -6623.97)">
		<path id="Path_1973" class="st4" d="M183.9,334.4c0.1,2.3,4.6,78.2,4.6,78.2s-14.7,9.3-13.3,9.4c0.7,0,6.5,2.9,11.6,2.7    c3-0.3,5.9-1.4,8.4-3.2l0.4-87.2L183.9,334.4z"></path>
		<path id="Path_1974" class="st5" d="M188,422.6c-0.2-0.5,0.1-10.3-7.2-8s-13,12.4-5.6,14.3s20.3-6.4,20.3-6.8    c0-0.5,0.5-0.4-0.3-4.2C193.3,420.8,191.4,422.7,188,422.6z"></path>
		<path id="Path_1975" class="st6" d="M120.1,144.2c0-2.3,9-26,9-26l51.6,61.6c0,0,0.1,18.2-9.6,13S120.1,144.2,120.1,144.2z"></path>
		<path id="Path_1976" class="st4" d="M214.9,334c-0.1,2.3-4.6,78.2-4.6,78.2s14.7,9.3,13.3,9.4c-0.7,0-6.5,2.9-11.6,2.7    c-3-0.3-5.9-1.4-8.4-3.2l-0.4-87.2L214.9,334z"></path>
		<path id="Path_1977" class="st5" d="M210.8,422.2c0.2-0.5-0.1-10.3,7.2-8c7.3,2.2,13,12.4,5.6,14.3s-20.3-6.4-20.3-6.8    s-0.5-0.4,0.3-4.2C205.5,420.4,207.3,422.3,210.8,422.2z"></path>
		<path id="Path_1978" class="st7" d="M197.2,151.5c0,0-35.6-2.5-37.6,12.6c-7.9,59.4-13.4,165.1-12,180.2    c0.6,6.1,25.9,10.4,52.1,11.1c26.2-0.7,51.5-4.9,52.1-11.1c1.5-15.1-4.1-120.7-12-180.2c-2-15.1-37.6-12.6-37.6-12.6l-2.6,0.2    L197.2,151.5z"></path>
		<path id="Path_1979" class="st4" d="M171.6,178.1c-0.9-2.5-12.4-17.4-12.4-17.4c-23.5,53.8-33.6,89.7,26.3,120.6l0.1-6.1    C142.1,240.5,152.3,210.5,171.6,178.1z"></path>
		<path id="Path_1980" class="st8" d="M173.5,274.6c-7.2-7.7-23.7-26.9-24.8-40.8c-1.4-17.8,5.2-35.2,5.2-35.2l-6-9.8    C135.5,224.2,136.3,251,173.5,274.6z"></path>
		<path id="Path_1981" class="st7" d="M164.6,205.5c0,0-21.2-4.6-21.5-8.7c-0.3-4.1,4.7-25.4,10.2-32.2c5.5-6.8,15.9-10.1,15.9-10.1    s6.1,12.5,5.5,24.3C174,190.6,164.6,205.5,164.6,205.5z"></path>
		<path id="Path_1982" class="st4" d="M185.5,275.3c0.7-0.2,5.1-1.3,5.1-1.3s10.8-0.4,10.1,0.9c-0.7,1.4-4.8,2.9-4.8,2.9    s10.7,6.6,9,8.3c-1.6,1.8-8.6,1.7-12.2,0.2s-8.6-6.2-8.6-6.2L185.5,275.3z"></path>
		<path id="Path_1983" class="st4" d="M214.2,275.2c-0.7-0.2-5.1-1.3-5.1-1.3s-10.8-0.4-10.1,0.9c0.7,1.4,4.8,2.9,4.8,2.9    s-10.7,6.6-9,8.3c1.6,1.8,8.6,1.7,12.2,0.2s8.6-6.2,8.6-6.2L214.2,275.2z"></path>
		<path id="Path_1984" class="st4" d="M228,178c0.9-2.5,12.4-17.4,12.4-17.4c23.5,53.8,33.6,89.7-26.3,120.7l-0.1-6.1    C257.5,240.5,247.4,210.4,228,178z"></path>
		<path id="Path_1985" class="st7" d="M235.1,205.4c0,0,21.2-4.6,21.5-8.7c0.3-4.1-4.7-25.4-10.2-32.2c-5.5-6.8-15.9-10.1-15.9-10.1    s-6.1,12.5-5.5,24.3C225.7,190.6,235.1,205.4,235.1,205.4z"></path>
		<path id="Path_1986" class="st9" d="M169.4,155c-1.6,3-1.1,10.4,8.7,11.5c0,0-4.1,6.1-1.2,8.4c2.8,2.3,8.2-0.5,8.2-0.5    s-1,7.3,3.2,8.2c4.2,0.9,7.9-3.2,7.9-3.2s2.1,4.5,3.5,5.2c1.4-0.8,3.5-5.2,3.5-5.2s3.6,4.1,7.9,3.2c4.2-0.9,3.2-8.2,3.2-8.2    s5.3,2.8,8.2,0.5c2.8-2.3-1.2-8.4-1.2-8.4c9.9-1.1,10.1-7.2,8.7-11.5c-1.5-4.7-27.8-3.5-29.1-3.4c-0.4,0-0.8,3.3-1.2,7.1    c-0.3-3.7-0.8-7-1.2-7.1C197.2,151.5,171.7,150.7,169.4,155z"></path>
		<path id="Path_1987" class="st10" d="M57.6,407.7c-1.2,1-5.8,4.9-5.8,4.9s-17.7,10.6-17.1,12.8c0.6,2.2,20.5-1,21.1-1.7    c0.4-0.5,0.9-0.9,1.4-1.3l1.3,0.8l5.3-1.1l-0.4-11.5L57.6,407.7z"></path>
		<path id="Path_1988" class="st10" d="M119.3,407.7c1.2,1,5.8,4.9,5.8,4.9s17.7,10.6,17.1,12.8c-0.6,2.2-20.5-1-21.1-1.7    c-0.4-0.5-0.9-0.9-1.4-1.3l-1.3,0.8l-5.3-1.1l0.4-11.5L119.3,407.7z"></path>
		<path id="Path_1989" class="st11" d="M65.5,239.7C61.6,242.6,49,257,49,257l2.6,155.8l12.8,0.9c0,0,1.1-123.1,27.6-123    c26.5,0.2,19.9,123.8,19.9,123.8s13.4,0.6,13-2S138,258.6,138,258.6l-31.7-18L65.5,239.7z"></path>
		<path id="Path_1990" class="st4" d="M5.5,257.3c-1,3.5-1.5,12.9-1.1,17.2c0.3,4.2,3.8,9,5.3,7.9c1.5-1.1,1.5-5.3,3-5.5    s1.6,4.3,3,1s-3-17.5-3-17.5L5.5,257.3z"></path>
		<path id="Path_1991" class="st6" d="M74,150.9c-2.8-5.4-14.7-29.4-14.7-29.4c-40.2,37.7-71.6,55-54.6,140.9l8.2-1.5    C7.6,212.3,28.6,170.9,74,150.9z"></path>
		<path id="Path_1992" class="st6" d="M130.8,110.5c-1.2,16.7,6.2,85,7.5,158.6c0.2,8.3-92.4,9.9-91.6-1.6    c2.9-44.1,10.2-160.6,14-160.4L130.8,110.5z"></path>
		<path id="Path_1993" class="st12" d="M70.8,121.6c-2.4,1.8-7.8,7.2-7.8,7.2l30.6,66.5l37.4-70.4c0,0-23.2-3.1-28.7-4.2    c-5.4-1.2-29.3-0.2-29.3-0.2L70.8,121.6z"></path>
		<path id="Path_1994" class="st13" d="M68,121.8c0,2.3,26.2,69.3,26.2,69.3l31.5-74L68,121.8z"></path>
		<path id="Path_1995" class="st4" d="M136,58.3c14.6-12.2,23.8,3.2,11.2,13.2c-7.1,5.7-12.1,2.8-12.5,1.6    C134.4,72,136,58.3,136,58.3z"></path>
		<path id="Path_1996" class="st4" d="M57.4,59.2C42.8,47,33.6,62.5,46.2,72.5c7.1,5.7,12.1,2.8,12.5,1.6    C59,72.9,57.4,59.2,57.4,59.2z"></path>
		<path id="Path_1997" class="st9" d="M51.6,44c0.5,3.1,5.5,14.9,5,32c-0.5,17.2-3.2,27.9-2.8,27.7s2.8-1.1,2.4-0.6    s-0.6,6.7,0.2,13.4c0.7,6.6,2.2,10.4,2.2,9.9s2-2.8,2-2.8c3.6,4.1,7.5,7.9,11.7,11.5c7.9,7,9.6,7.1,9.6,7.1l-0.5-5.2    c0,0,5.7,2.9,7.9,8.6s2.9,7.9,3.2,7s7.4-9.4,7.4-9.4s1,6.6,1.9,4.8s9-3.6,16-11s9.1-11.7,9.1-10.8s-0.2,4.5,0.4,3.5    s5.9-6,9.3-17.1c3.4-11.1-0.4-22.6-0.4-22.6s2.7,3.7,2.3,2.8c-0.3-0.9-0.9-21-0.7-34.1c0.2-13.1,2.6-20.1,2.6-20.1s0.4-1.2,1-9.2    c0.6-8-1.5-14.5-1.5-13.7c-0.2,1.9-0.6,3.9-1,5.7c0.2-1.2,0.4-2.4-3.6-7.4c-4.1-4.9-5.7-5.6-5.7-5.6s2,7.2,1.9,6.5    c-0.2-0.7-12.3-8.1-25.9-13.6S71.9,9.6,62.2,12S48.2,13,49,13.6c0.8,0.6,7.4,2.7,5.3,3c-2.1,0.3-9.4-0.2-8.9,0s8.3,12,7.6,13    s-5.1,6.7-4.8,8.3C48.3,39.3,51.6,44,51.6,44z"></path>
		<path id="Path_1998" class="st4" d="M61.1,103.8c-2.8,14.7,13.2,16.9,35,19c21.8-2.1,37.8-4.3,35-19c-2.9-14.9,2.4-55.4,5-66.2    c0,0-20.1-1.7-40-3c-19.9,1.3-40,3-40,3C58.7,48.4,64,89,61.1,103.8z"></path>
		<path id="Path_1999" class="st9" d="M132.6,26.2c1.1,1.8,3.4,11.4,3.4,11.4s0.2,1.2-8.9,8.7s-15.5,9.4-15.5,9.4l7-10    c0,0-4.1,5-17.1,7.3S82,53.4,82.9,53.7c0.9,0.3,9.3-8.3,9.3-8.3s-12.5,3.6-18,5.1s-7.8,1.5-7,1.3c0.7-0.2,5.3-8.4,5.3-8.4    l-10.8,3.2l-5.6-9c0,0,33.5-12.3,35.3-12.1C93.1,25.6,132.6,26.2,132.6,26.2z"></path>
		<path id="Path_2000" class="st9" d="M59.8,90.9c0.2-2.1,1.4-7.5,1.4-7.5c3.2,3.8,7,7,11.4,9.4c8.6,4.7,6.3-0.6,11.6-2.8    c3.2-1.3,23.6-0.5,26.1,0.4c3.1,1.1,4.4,6,6.4,5.4c5.7-1.8,12-5.5,18.3-8.6c0.3,27.1-3.8,42.4-35.4,39.3    C74,123.9,61.4,120,59.1,114C56.7,108.2,59.8,90.9,59.8,90.9z"></path>
		<path id="Path_2001" class="st14" d="M109,93.6c0.3,1,0.4,2.1,0.4,3.2c0,7.1-5.5,12.8-12.2,12.8S85,103.9,85,96.8    c0-1.1,0.1-2.2,0.4-3.2L109,93.6z"></path>
		<path id="Path_2002" class="st11" d="M77.7,71.5c3.3,0,6-3.3,6-7.3S81,57,77.7,57c-3.3,0-6,3.3-6,7.3S74.4,71.5,77.7,71.5z"></path>
		<path id="Path_2003" class="st9" d="M80.5,66c1,0,1.8-1.2,1.8-2.6s-0.8-2.6-1.8-2.6c-1,0-1.8,1.2-1.8,2.6    C78.7,64.8,79.5,66,80.5,66z"></path>
		<path id="Path_2004" class="st9" d="M85.8,60.7c-7.1-0.9-13.1-0.7-18,0.8c-4,1.3-4.2-1.6-0.1-4.6c4.1-3,13.1-3.2,18.7-2.6    C92,54.8,90.8,61.8,85.8,60.7z"></path>
		<path id="Path_2005" class="st11" d="M114.6,72.5c3.3,0,6-3.3,6-7.3s-2.7-7.3-6-7.3c-3.3,0-6,3.3-6,7.3S111.3,72.5,114.6,72.5z"></path>
		<path id="Path_2006" class="st9" d="M117.4,66.9c1,0,1.8-1.2,1.8-2.6c0-1.5-0.8-2.6-1.8-2.6c-1,0-1.8,1.2-1.8,2.6    C115.6,65.8,116.4,66.9,117.4,66.9z"></path>
		<path id="Path_2007" class="st9" d="M108.3,60.9c7.1-0.9,13.1-0.7,18,0.8c4,1.3,4.2-1.6,0.1-4.6c-4.1-3-13.1-3.2-18.7-2.6    C102.1,55,103.3,62,108.3,60.9z"></path>
		<path id="Path_2008" class="st15" d="M53,60.7c-1.5-1-5.9-4.1-7.7-1.4s1,8.4,4.4,11c3.4,2.6,5.2,0.1,3.4-2.2    c-1.8-2.3-0.9-4.1,0.2-5.1C54.4,62,53,60.7,53,60.7z"></path>
		<path id="Path_2009" class="st9" d="M107.6,93.6h-3v4.8h1.6c0.8,0,1.5-0.6,1.5-1.4c0,0,0,0,0,0V93.6z M100.8,93.6H86.4V97    c0,0.8,0.6,1.5,1.4,1.5c0,0,0,0,0,0h12.9V93.6z"></path>
		<path id="Path_2010" class="st16" d="M107.1,104.3c-2.1-1.3-5.8-2.1-9.9-2.1c-4.1,0-7.8,0.8-9.9,2.1c3.6,5.5,11,7,16.4,3.4    C105.1,106.8,106.2,105.7,107.1,104.3z"></path>
		<path id="Path_2011" class="st17" d="M84.5,80.3c2.2,11.3,16.9,10.8,18.6,0.3c0.8-5.2-5.6-21.4-5.6-21.4    C94.2,80.4,83.9,77.1,84.5,80.3z"></path>
		<path id="Path_2012" class="st18" d="M9.9,279.4l10.3,146.1l2.3,0.1c0,0-7.7-145.4-8.1-148.1C13.7,272,9.6,274.7,9.9,279.4z"></path>
		<path id="Path_2013" class="st19" d="M93.9,59.9h-0.8c-0.1,0.9-0.2,1.7-0.3,2.5c-1.4,7.8-4.9,15.7-12.9,18.3    c-3.9,1.3-8.2,1.2-12.1-0.3c-5.4-2.1-8-4.9-10.1-10.3c-1.1-3-1.8-6.1-2.4-9.3c-0.1-1.3-0.9-2.3-2.1-2.7c-0.4-0.1-0.7-0.5-0.7-0.9    c0-1.1-0.1-2.2-0.1-3.2c0-0.5,0.3-0.7,0.7-0.8c0.6-0.1,1.2-0.3,1.8-0.4c4-0.7,8-1.2,12-1.4c6.8-0.3,13.5,0.2,20.1,1.7    c2.3,0.3,4.3,1.6,5.5,3.6c0.1,0.3,0.4,0.5,0.7,0.4c2.2,0,4.2,0,6.4,0c0.3,0,0.6-0.2,0.7-0.4c1.2-2,3.2-3.3,5.5-3.6    c6.6-1.5,13.4-2,20.1-1.7c4,0.2,8,0.7,12,1.4c0.6,0.1,1.2,0.3,1.8,0.4c0.4,0.1,0.7,0.3,0.7,0.8c0,1.1-0.1,2.2-0.1,3.2    c0,0.4-0.3,0.8-0.7,0.9c-1.2,0.4-2,1.5-2.1,2.7c-0.5,3.2-1.3,6.3-2.4,9.3c-2,5.4-4.7,8.3-10.1,10.3c-3.9,1.5-8.1,1.6-12.1,0.3    c-8-2.6-11.5-10.5-12.9-18.3c-0.1-0.8-0.2-1.6-0.3-2.5h-0.8C97.2,59.9,95.7,59.9,93.9,59.9L93.9,59.9z M103.5,61.3L103.5,61.3    c-0.1,1.5,0,3.1,0.3,4.6c1.1,6,3.5,11,9.8,12.8c3.6,1.1,7.4,1,10.9-0.2c7.7-2.6,10.6-11.4,9.7-18.9c-0.3-2.7-2.3-4.8-5-5.3    c-1.1-0.2-2.1-0.4-3.2-0.4c-5.3-0.3-13.4-0.3-18.2,1.7C105.5,56.5,103.7,58.8,103.5,61.3L103.5,61.3z M89.4,61.3L89.4,61.3    c-0.2-2.6-1.9-4.8-4.4-5.7c-4.7-2-12.9-2.1-18.2-1.7c-1.1,0.1-2.1,0.3-3.2,0.4c-2.6,0.5-4.7,2.6-5,5.3c-0.8,7.5,2,16.3,9.7,18.9    c3.5,1.2,7.3,1.3,10.9,0.2c6.3-1.8,8.7-6.8,9.8-12.8C89.5,64.4,89.6,62.9,89.4,61.3L89.4,61.3z"></path>
		<path id="Path_2014" class="st20" d="M199.4,169.3c5.5,0,10-7.7,10-17.2c0-9.5-4.5-17.2-10-17.2c-5.5,0-10,7.7-10,17.2    C189.4,161.6,193.9,169.3,199.4,169.3z"></path>
		<path id="Path_2015" class="st15" d="M140.4,59.7c1.5-1,5.9-4.1,7.7-1.4s-1,8.4-4.4,11c-3.4,2.6-5.2,0.1-3.4-2.2    c1.8-2.3,0.9-4.1-0.2-5.1C139,61.1,140.4,59.7,140.4,59.7z"></path>
		<g id="Group_713" transform="translate(137.618 22.752)">
			<path id="Path_2016" class="st21" d="M40.5,0.6c9.9-2.9,21,4.4,24.8,16.3C69,28.8,64,40.8,54.1,43.7c-9.9,2.9-21-4.4-24.8-16.3     S30.6,3.6,40.5,0.6z"></path>
			<path id="Path_2017" class="st9" d="M19.4,102.3C11.7,95.3,6.6,86,4.8,75.7c-2.9-16.5-5.4-24.4,4-36.5s26.4-15.3,35.9-13.4     c12.8,2.5,41.5,0.8,48,4.9c8.7,5.5,15.8,12.1,16.2,27c0.4,14.9-6.5,31-6.5,31L19.4,102.3z"></path>
			<path id="Path_2018" class="st4" d="M98.6,68.4c13.2-13.7,24,0.6,12.6,11.9c-6.5,6.4-11.8,4.1-12.2,2.9     C98.6,82.1,98.6,68.4,98.6,68.4z"></path>
			<path id="Path_2019" class="st15" d="M103.2,69.3c1.3-1.1,5.4-4.8,7.6-2.2c2.2,2.5-0.1,8.5-3.1,11.5c-3.1,3-5.2,0.6-3.7-1.8     c1.5-2.5,0.4-4.1-0.8-5C101.9,70.8,103.2,69.3,103.2,69.3z"></path>
			<path id="Path_2020" class="st4" d="M16.8,76.6C0.9,66.1-6.5,82.5,7.1,91c7.7,4.8,12.4,1.4,12.5,0.2     C19.8,90.1,16.8,76.6,16.8,76.6z"></path>
			<path id="Path_2021" class="st15" d="M12.5,78.5C11,77.7,6.2,75.1,4.7,78s1.9,8.3,5.5,10.5c3.6,2.2,5.2-0.5,3.2-2.5     c-2-2.1-1.3-3.9-0.3-5.1C14.1,79.7,12.5,78.5,12.5,78.5z"></path>
			<path id="Path_2022" class="st4" d="M63.8,128.5c62.2-6.8,28.7-46.1,34.9-83.4c0,0-22.1,0.9-43.9,2c-21.5,3.6-43.3,7.6-43.3,7.6     C26,90.2,0.4,135.5,63.8,128.5z"></path>
			<path id="Path_2023" class="st9" d="M62.7,49.2c10.8,16.9,32.7,24,36.4,20c25.1-27.1-17.3-63-45.7-43     C9.5,14.7-10.9,58.5,12.5,78.5C20.6,85.4,48.7,62.5,62.7,49.2z"></path>
			<path id="Path_2024" class="st11" d="M36.3,75c3.3-0.4,6.4,2.6,6.8,6.6c0.4,4-1.9,7.5-5.2,7.9c-3.3,0.4-6.4-2.6-6.8-6.6     S33,75.3,36.3,75z"></path>
			<path id="Path_2025" class="st9" d="M39.5,78.3c1-0.1,1.9,1,2,2.4c0.2,1.5-0.5,2.7-1.5,2.8s-1.9-1-2-2.4     C37.8,79.7,38.5,78.5,39.5,78.3z"></path>
			<path id="Path_2026" class="st9" d="M44.3,71.8c-6,0.2-12,1-17.8,2.4c-3.9,1.1-4.2-0.4-0.3-2.3c3.9-1.9,12.9-3,18.4-3.4     S49.4,71.8,44.3,71.8z"></path>
			<path id="Path_2027" class="st11" d="M79.2,69.8c-3.3,0.4-5.6,3.9-5.2,7.9c0.4,4,3.5,7,6.8,6.6s5.6-3.9,5.2-7.9     C85.6,72.4,82.5,69.5,79.2,69.8z"></path>
			<path id="Path_2028" class="st9" d="M76.9,73.8c-1,0.1-1.6,1.4-1.5,2.8s1.1,2.5,2,2.4c1-0.1,1.6-1.4,1.5-2.8     C78.8,74.8,77.8,73.7,76.9,73.8z"></path>
			<path id="Path_2029" class="st9" d="M71.9,69.6c5.9-1.2,11.9-1.7,17.9-1.6c4,0.2,4.1-1.3-0.2-2.3c-4.2-1-13.2-0.1-18.7,0.7     C65.4,67.4,66.9,70.7,71.9,69.6z"></path>
			<path id="Path_2030" class="st14" d="M71.5,102c0.4,0.9,0.6,1.9,0.7,2.9c0.7,6.6-3.8,12.5-10,13.2c-6.3,0.7-11.9-4.1-12.7-10.7     c-0.1-1-0.1-2,0-3L71.5,102z"></path>
			<path id="Path_2031" class="st9" d="M70.2,102.1l-2.1,0.2l-0.7,0.1l-3.5,0.4l-2.4,0.3l-10.9,1.2l0.3,3.1c0.1,0.7,0.8,1.3,1.5,1.2     l9.6-1l2.4-0.3l3.5-0.4l0.7-0.1l0.7-0.1c0.7-0.1,1.3-0.8,1.2-1.5L70.2,102.1z"></path>
			<path id="Path_2032" class="st16" d="M70.8,112.1c-3-1.1-6.3-1.4-9.4-1c-3.8,0.4-7.1,1.6-9,3c2.4,2.9,6.1,4.3,9.8,3.9     C65.9,117.7,69.1,115.4,70.8,112.1z"></path>
			<path id="Path_2033" class="st17" d="M50.9,94.8c3.1,9.9,16.3,8,16.8-1.6c0.2-4.8-7.1-18.7-7.1-18.7C59.7,94,50,91.9,50.9,94.8z"></path>
			<path id="Path_2034" class="st22" d="M34.5,93.1c5.5-0.6,10.1,0.3,10.3,2s-4.1,3.5-9.6,4.2c-5.5,0.6-10.1-0.3-10.3-2     S29,93.7,34.5,93.1z"></path>
			<path id="Path_2035" class="st22" d="M83.4,86.5c5.5-0.6,10.1,0.3,10.3,2s-4.1,3.5-9.6,4.2c-5.5,0.6-10.1-0.3-10.3-2     C73.6,89,77.9,87.1,83.4,86.5z"></path>
			<path id="Path_2036" class="st23" d="M13.9,89.8c2.2-0.2,4.2,1.3,4.5,3.6c0.2,2.2-1.3,4.2-3.6,4.5c-2.2,0.2-4.2-1.3-4.5-3.6     c0,0,0,0,0,0C10.1,92,11.7,90,13.9,89.8z"></path>
			<path id="Path_2037" class="st23" d="M103.5,80.5c2.2-0.2,4.2,1.3,4.5,3.6c0.2,2.2-1.3,4.2-3.6,4.5c-2.2,0.2-4.2-1.3-4.5-3.6     c0,0,0,0,0,0C99.7,82.7,101.3,80.7,103.5,80.5z"></path>
		</g>
		<path id="Path_2038" class="st11" d="M93.6,207.4c1.7,0,3.1-1.4,3.1-3.1c0-1.7-1.4-3.1-3.1-3.1c-1.7,0-3.1,1.4-3.1,3.1    C90.5,206,91.9,207.4,93.6,207.4z"></path>
		<path id="Path_2039" class="st11" d="M93.6,233.6c1.7,0,3.1-1.4,3.1-3.1c0-1.7-1.4-3.1-3.1-3.1c-1.7,0-3.1,1.4-3.1,3.1    C90.5,232.2,91.9,233.6,93.6,233.6z"></path>
		<path id="Path_2040" class="st11" d="M93.6,258.2c1.7,0,3.1-1.4,3.1-3.1s-1.4-3.1-3.1-3.1c-1.7,0-3.1,1.4-3.1,3.1    C90.5,256.8,91.9,258.1,93.6,258.2z"></path>
		<path id="Path_2041" class="st24" d="M13.3,205.3c-6.5,23-5.9,52.9-5.9,52.9s-1,0.8-2.5,1.8c-0.2,0.2-0.4,0.3-0.6,0.5    c0.1,0.6,0.2,1.3,0.4,1.9l8.1-1.5h0c-4.4-40.8,9.7-76.6,41.3-98.8c0.3-4.2,0.7-8.3,1-12.2c-2.7,4.2-5.5,8.4-5.9,9.2    C48.4,160.7,19.8,182.3,13.3,205.3z"></path>
		<path id="Path_2042" class="st24" d="M54.1,162.1c-2.9,36.3-5.8,81.5-7.4,105.4c-0.1,1.2,0.8,2.2,2.5,3.1c9.9,5.4,47,6.2,70.1,3.9    c-10.7-1.6-41.5-5.6-46.8-11.2c-3.3-3.5-4.8-14-5.5-23.6c-0.7-9.4-0.8-18-1.1-19c-0.6-1.9,12.3-7.4,13.6-6.5    c0.9,0.7-9.1-37.3-14.8-58.8c-2.2-8.5-3.8-14.4-3.8-14.4l-5.8,8.8C54.8,153.9,54.5,157.9,54.1,162.1z"></path>
		<path id="Path_2043" class="st25" d="M119.3,274.5c-23.1,2.3-60.2,1.5-70.1-3.9l2.4,142.1l3.5,0.2l1.5-0.8c0,0,0-1.3,0.1-3.7    c0.6-20.2,3.9-117.4,10.9-123.2c7.8-6.5,53.6-9.4,55.4-10C123.2,275.2,121.8,274.9,119.3,274.5z"></path>
		<path id="Path_2044" class="st4" d="M219.2,153.9c2.8,1.6,9.7,0.7,9.7,0.7s-1.6,1.9,1.8,6.3c3.4,4.4,10.2,7.5,12.5,4.8    s2.7-6.1-0.9-10.2c-3.6-4.2-12.8-5.6-14.2-5.3C226.4,150.5,216.4,152.3,219.2,153.9z"></path>
		<path id="Path_2045" class="st25" d="M92,290.7c26.5,0.2,19.9,123.8,19.9,123.8s0.6,0,1.5,0c1.2,0,3,0,4.8-0.1    c0.1-1.7,0.3-3.9,0.4-6.4c2.3-31.9,8.7-119.6-25.4-118c-1.4,0.1-2.8,0.5-4.1,1.2C90.1,290.9,91,290.7,92,290.7z"></path>
		<path id="Path_2046" class="st24" d="M125.6,162.6c0,0,7.2,49.9,12.1,83.2c-1.1-33.1-3.2-64.1-4.8-88.3c-0.2-3.1-0.4-6-0.6-8.9    c-3-3.3-5.3-5.9-5.3-6.2c0-0.4-0.3,3.8-0.6,8.4C126,156.4,125.6,162.6,125.6,162.6z"></path>
		<path id="Path_2047" class="st24" d="M132.9,157.5c4.8,4.9,10.4,10.5,15.9,15.9c1.1-3.1,2.6-6.1,4.5-8.7c2.5-2.8,5.4-5.2,8.8-7    l-2.4-2.9c-0.6,0.1-1.3,0.3-1.9,0.5c-7.1,2.4-9.2,7.4-9.4,9.1c-0.1,1.1-9.8-8.9-16.1-15.8C132.5,151.4,132.7,154.4,132.9,157.5z"></path>
		<path id="Path_2048" class="st26" d="M77.4,29.9c-5.1-0.1-8.8-0.1-9.1-0.1C67.1,30,83.1,23.3,84,23.1s-15,0.1-19.8-1.2    c-4.7-1.3-19-5.3-19-5.3c0,0,0,0,0,0l0,0c0.5,0.2,8.3,12,7.6,13l3.2,8.1l5.6,9l10.8-3.2c0,0-3.6,6.6-4.9,8.1c1,0,2-0.1,3.1-0.1    c1-0.2,2.2-0.5,3.6-0.9c5.5-1.5,18-5.1,18-5.1s-4.9,5.1-7.7,7.3c0.8,0.1,1.6,0.3,2.4,0.5c1,0.2,1.9,0.5,2.8,1    c3.9-0.1,7.9-0.4,11.8-1.1c13-2.3,17.1-7.3,17.1-7.3l-4.2,6.1l2.3-0.2c3.4-4.1,7.6-9.2,7.9-9.7c0.4-0.7-27.9,9.3-27.9,9.3    s12.8-9.1,21.3-15.1c3.8-2.6,6.7-4.7,7.3-5c1.1-0.6-6.9,2.1-14.2,4.5c-5.2,1.7-10,3.3-10.8,3.3c-0.9,0,1.6-1.8,4.5-3.7    c2.9-1.9,6.2-3.9,6.7-4.2C112.1,30.7,90.3,30.1,77.4,29.9z"></path>
		<path id="Path_2049" class="st26" d="M59.6,92.5l-2.8-17l-0.1-0.9c0,0.3,0,0.6,0,0.9c0,0.2,0,0.3,0,0.5    c-0.5,17.2-3.2,27.9-2.8,27.7s2.8-1.1,2.4-0.6c-0.3,0.5-0.6,6.7,0.2,13.4c0.2,2.3,0.6,4.5,1.1,6.7c0,0.1,0.1,0.3,0.1,0.4    c0.5,2,0.9,3,0.9,2.7c0.5-1,1.1-1.8,1.9-2.6c0.1-0.1,0.2-0.2,0.2-0.2s1.2,1.5,3.7,4c1.9,1.9,4.5,4.5,8,7.5l0.5,0.4    c7.5,6.5,9.1,6.7,9.1,6.7l-0.5-5.2c0,0,5.7,2.9,7.9,8.6c2.3,5.7,2.9,7.9,3.2,7s7.4-9.4,7.4-9.4s1,6.6,1.9,4.8    c0.9-1.7,8.2-3.4,14.9-9.9c0.4-0.4,0.7-0.7,1.1-1.1c2.8-2.9,5.3-6,7.7-9.2c1-1.4,1.4-2,1.5-1.6c0.1,0.9-0.2,4.5,0.4,3.5    c0.3-0.5,1.7-2,3.5-4.6c0.5-0.8,1-1.6,1.6-2.6c1.8-3.1,3.2-6.4,4.2-9.9c0.3-0.9,0.5-1.7,0.7-2.6c-1.5,1-3.1-3.3-4.5-4.9    c-0.1,0.1-2.4,10.9-2.5,10.9c-0.4,0.8-0.9,1.5-1.4,2.2c-0.8,1.1-1.8,2.2-2.9,3.1c-0.6,0.9-1.3,1.8-2,2.7c-0.8,0.9-0.2-20-1-19.2    c-2.3,10-6,19.7-11.1,28.6l1.4-18.6c-4.5,12-10.5,20.9-12.9,23.4c0,0-3.9-5.7-4.1-6.6s-2.9,6.1-2.9,6.1s-4.2-2.4-9.6-9.7    c-0.9-1.3-1.7-2.6-2.3-4c-0.5-1-0.9-2-1.3-3.1c0,0,0-0.1,0-0.1c-0.1-0.2-0.1-0.4-0.2-0.6c-1.3-3.7-2.1-7.5-2.5-11.4l-6.6,8.3    l-1.9-9.5l-2.9-14.8l-4.2,4.5l-1.3,1.3L59.6,92.5z"></path>
		<path id="Path_2050" class="st27" d="M158.8,204.1c-8.1,23.1-4.9,45.9,26.7,71.2c0.7-0.2,5.1-1.3,5.1-1.3s6.5-0.3,9.1,0.3    c2.3-0.6,9.3-0.3,9.3-0.3s4.4,1,5.1,1.3c31.6-25.3,34.8-48.2,26.7-71.2c-3.3,0.9-5.8,1.4-5.8,1.4s-0.8-1.3-1.9-3.3    c-0.8,0.5-1.5,0.9-2,1.1c-2,1.1,8.6,3.9,8.6,3.9s1.9,24.3-5,39S213,272.2,213,272.2s-18.6-0.5-28.5-4.5    c-9.9-4.1-11.8-16.5-13.7-25.7c-1.9-9.2,5.3-15.2,5.3-15.2s-13-5.7-14.6-14.9c-0.3-2.3-0.1-4.7,0.4-6.9    C161.1,204.6,160,204.4,158.8,204.1z"></path>
		<path id="Path_2051" class="st27" d="M144.7,198.8c2.3,1.6,6.6,3.1,10.6,4.3c1.2,0.3,2.4,0.7,3.5,1c1.2,0.3,2.2,0.6,3.2,0.8    c1.2-5.1,2.8-10.1,4.8-15c2.1-5.1,3.9-9.3,3.8-10.2c-0.1-1-3.1,3.4-6.2,8.2c-3.2,5-6.5,10.4-6.5,10.4c-0.7-0.2-1.5-0.4-2.1-0.8    c-2.3-1-4.3-2.7-5.8-4.8c-0.9-1.3-1.2-4-1-7.3c0.2-3.6,0.7-7.1,1.4-10.6c1-5.1,2.3-9.6,2.8-10.4c-0.1,0.1-0.2,0.2-0.3,0.3    c-0.1,0.1-0.2,0.3-0.3,0.5c-1.6,2.5-2.9,5.2-3.9,8c-3.4,8.9-5.9,20.5-5.7,23.5C143.2,197.5,143.8,198.1,144.7,198.8z"></path>
		<path id="Path_2052" class="st27" d="M238.8,198.8c0,0-3.2,1.9-5.7,3.3c1.1,2.1,1.9,3.3,1.9,3.3s2.5-0.5,5.8-1.4    c1.1-0.3,2.2-0.6,3.4-1c4-1.2,8.4-2.7,10.7-4.3c1-0.7,1.6-1.4,1.6-2c0-1.3-0.1-2.6-0.3-3.9c-1,0.3-1.9,0.6-2.9,0.8    c-2.4,0.8-5,1.4-7.5,1.6c-0.6,0-1.6-0.7-2.6-1.8c-4.8-5.2-12.4-20-12.4-20L238.8,198.8z"></path>
		<path id="Path_2053" class="st27" d="M185.4,281.4c-16.2-8.4-27.2-17-34.3-26.4c-2.9,42.3-4.3,80.6-3.5,89.3    c0.5,5,17.2,8.7,37.4,10.3c3.4,0.3,6.9,0.5,10.4,0.6c1.4,0.1,2.8,0.1,4.3,0.1c1.2,0,2.3-0.1,3.5-0.1c3.5-0.1,7-0.3,10.4-0.6    c7.5-0.5,15.1-1.5,22.5-2.9c-5.1-0.9-11.3-2.2-18.9-3.8c-1.1-0.2-2.1-0.4-3.1-0.7c-3.9-0.8-7.5-1.7-10.9-2.5    c-2.7-0.6-5.3-1.3-7.7-1.9c-4.4-1.1-8.2-2.2-11.4-3.1c-7.9-2.4-12.2-4.3-12.8-5.7c-1.1-2.6,7-8.9,8.7-9.4c1.8-0.5-6-8.6-9.4-15.7    c-3.4-7.1-6.5-24.3-6.5-24.3s39.3,12,56.6,1.8c17.3-10.2,21.1-24.4,21.1-24.4c-6.8,6.6-16,13-27.8,19.1c-2.2,2-4.6,3.7-7.3,5    c-1.9,0.7-3.8,1-5.8,1.1c-2.8,0.3-5.7-0.1-8.4-1C190.1,285,187.6,283.3,185.4,281.4z"></path>
		<path id="Path_2054" class="st26" d="M186.8,70.8c-7.1,6.9-22,20.2-33.5,22.4c-3.2,0.7-6.5,0.7-9.7,0.1c0.5,0.9,1,1.8,1.6,2.6    c1.4,2,3,3.8,4.9,5.3c0,0,0.1,0.1,0.1,0.1c1.4,1,3.1,1.4,4.8,1.1c17.4-3.8,31.6-17.6,45.2-30.6c9.3,14.5,27,23.1,35.9,20.4    c0.1-0.1,0.2-0.2,0.3-0.3l0.1-0.1c1.2-1.2,2.2-2.6,3.2-4c1.4-2,2.5-4.3,3.3-6.6c-1.8,0.6-3.6,1-5.4,1.2c-0.6,0.1-1.3,0.1-2,0.1    c-7.1,0.2-19.4-2-25.8-9.9c-0.9-1.2-1.8-2.4-2.4-3.8c-3.7-7.6-0.9-15.3-0.5-16.7c0.2-0.6-2.1,2-5.2,5.6c-1.7,1.9-3.6,4.2-5.5,6.4    c-1.7,2-3.5,4-5,5.7c-1.5,1.8-3.2,3.6-4.9,5.2c-1.3,0.8,0.4-2,2-4.7c1.3-2,2.5-3.8,2.5-3.8S189.3,68.3,186.8,70.8z"></path>
		<path id="Path_2055" class="st8" d="M155.9,124c1.8,14.7,6.8,25.8,27.1,27.7h0.1c2,0.2,4.1,0.3,6.3,0.3c2.7,0,5.6-0.1,8.8-0.4h0    c1-0.1,2.1-0.2,3.2-0.3c2.9-0.3,5.5-0.7,8-1.1c17.6-3.2,25.6-9.7,28.7-18.3c-1.4,1.3-3,2.8-4.7,4.5c-5.9,5.8-14.7,10.2-24.2,12.3    c-6.5,1.5-13.2,1.8-19.7,0.9c-13.1-1.9-24.5-9.5-27.8-25.2c-0.9-4.6-1.2-9.2-0.8-13.8c0.2-3,2.5-7.7,4.2-10.9    c-3,1.7-10.7,3-10.8,3s0.3,1.1,0.1,1.1c0.3,3.5,0.4,7,0.6,10.4c0.4,0.4,0.6,0.9,0.8,1.5c0.1,0.2,0.1,0.4,0.1,0.6    c0.1,0.9-0.1,1.8-0.6,2.6C155.5,120.5,155.7,122.3,155.9,124z"></path>
		<path id="Path_2056" class="st8" d="M155.1,114c-0.2-3.7-0.4-7.6-0.7-11.5c-1.5,0.1-2.9-0.3-4.1-1.1c0.3,0.3,1.3,1.3,0.4,2.2    c-1,1.2-1.7,3,0.3,5.1c2,2.1,0.4,4.8-3.2,2.5c-0.7-0.5-1.4-1-2-1.6c-2.8-2.6-4.8-6.5-3.5-8.9c0.1-0.2,0.3-0.4,0.4-0.6    c1.9-1.9,6,0.4,7.4,1.1c-1.8-1.6-3.5-3.3-4.9-5.3c-1.1-0.1-2.2,0.1-3.2,0.5c-1.8,0.6-3.2,2-3.9,3.8c-0.6,1.8-0.7,3.7-0.1,5.5    c0.8,2.8,3,5.7,6.7,8c1,0.7,2.2,1.2,3.3,1.7c0.1-0.3,0.2-0.6,0.3-0.9c0.6-1.1,1.8-1.9,3.1-2.1C152.9,112.4,154.2,113,155.1,114z"></path>
		<path id="Path_2057" class="st28" d="M44.7,422.7c-0.6-0.5,14.2-9.4,14.9-9.4l-4.5-0.3l-3.5-0.2c-2.2,1.3-17.4,10.6-16.9,12.6    c0.4,1.6,10.9,0.3,16.9-0.7C48.6,423.9,45,423,44.7,422.7z"></path>
		<path id="Path_2058" class="st28" d="M113.4,414.5l-0.3,7.6l5.3,1.1l1.3-0.8c0.5,0.4,1,0.8,1.4,1.3c0.5,0.6,16.2,3.2,20.2,2.2    c0.6-0.3,0.9-0.6,0.9-0.6l-14.9-6.7l-9.6,0.4l0.5-4.6C116.4,414.6,114.6,414.6,113.4,414.5z"></path>
		<path id="Path_2059" class="st8" d="M191.5,413.8c0.6-0.2-3.1-54.4-3.1-54.4l7.1-0.5l0-3.8c-3.5-0.1-7-0.3-10.4-0.6    c1.4,23.2,3.4,58,3.4,58s-1.5,1-3.5,2.2c0.6,0.4,1.2,1,1.5,1.6c0,0,0,0.1,0.1,0.1C186.6,416.5,190.8,414,191.5,413.8z"></path>
		<path id="Path_2060" class="st29" d="M180.8,414.5c-7.3,2.2-13,12.4-5.6,14.3c1.1,0.3,2.2,0.3,3.3,0.3c-1-0.6-1.9-1.2-2.7-2    c-1-1.1-0.8-2.9,0.4-4.8c1.2-1.9,2.8-3.5,4.7-4.7c0.3-0.2,0.5-0.3,0.8-0.5c3.4-2.2,4.6-1,4.9-0.6c-0.4-0.7-0.9-1.2-1.5-1.6    C183.7,414.1,182.2,414,180.8,414.5z"></path>
		<path id="Path_2061" class="st29" d="M203.6,417.3c-0.8,3.8-0.3,3.8-0.3,4.2c0,0.3,4,2.9,8.8,4.9c-0.7-0.8-1.6-1.7-2.3-2.5    c-0.6-0.7-1.2-1.4-1.7-2.2C206.2,421.1,204.9,419.5,203.6,417.3z"></path>
		<path id="Path_2062" class="st8" d="M203.6,417.3c1.3,2.2,2.7,3.8,4.6,4.5c-1-1.5-1.6-3.2-1.9-5c-0.5-2.8,0.4-49,0.6-61.8    c-1.2,0.1-2.4,0.1-3.6,0.2L203.6,417.3z"></path>
		<path id="Path_2063" class="st27" d="M242.3,218.7c0-1.3-1.9-13.6-2.3-12.6c-0.3,1,1.5,6.3-7.4,12.2s-15.5,6.6-12.2,7.4    c3.2,0.7,13.2,2.1,13.2,2.1c2.1,3.5,3,7.6,2.8,11.7c-0.5,6.7-3.2,11.6-1.7,9.9c1.5-1.7,6.6-16.1,7.2-21.7    C242.3,224.7,242.4,221.7,242.3,218.7z"></path>
		<path id="Path_2064" class="st30" d="M10.1,282l10.1,143.5l1.4,0l-9.4-148.5l-0.2-2.6c-1.2,0.4-2.4,2.4-2.2,5L10.1,282z"></path>
	</g>
	<path id="Rectangle_244" class="st3" d="M-1539-6231.3h272.4c5.5,0,10,4.5,10,10v67.5c0,5.5-4.5,10-10,10H-1539   c-5.5,0-10-4.5-10-10v-67.5C-1549-6226.8-1544.5-6231.3-1539-6231.3z"></path>
	<g class="st2">
		<path class="st31" d="M-1444.5-6183.8h-11l-2.5,6.8h-3.6l10.2-26.3h3.1l10,26.3h-3.6L-1444.5-6183.8z M-1454.4-6186.8h8.9l-4.3-12    h-0.1L-1454.4-6186.8z"></path>
		<path class="st31" d="M-1434-6177v-16.9h-3.1v-2.6h3.1v-2.5c0-2.1,0.5-3.7,1.6-4.8c1.1-1.1,2.6-1.7,4.6-1.7c0.4,0,0.8,0,1.2,0.1    c0.4,0.1,0.9,0.2,1.4,0.3l-0.4,2.7c-0.2,0-0.5-0.1-0.8-0.1c-0.3,0-0.6-0.1-1-0.1c-1,0-1.8,0.3-2.3,0.9s-0.8,1.5-0.8,2.7v2.5h4.1    v2.6h-4.1v16.9H-1434z"></path>
		<path class="st31" d="M-1418.9-6177h-3.6v-19.5h3.6V-6177z M-1419-6203.8h4.2l0,0.1l-4.9,4.7h-2.7L-1419-6203.8z"></path>
		<path class="st31" d="M-1409.5-6177h-3.6v-28.2h3.6V-6177z"></path>
		<path class="st31" d="M-1400.2-6201.6h-3.6v-3.6h3.6V-6201.6z M-1400.2-6177h-3.6v-19.5h3.6V-6177z"></path>
		<path class="st31" d="M-1382.7-6177c-0.1-0.6-0.2-1.1-0.3-1.6c-0.1-0.5-0.1-0.9-0.1-1.4c-0.7,0.9-1.5,1.7-2.6,2.4    c-1.1,0.6-2.2,0.9-3.4,0.9c-2,0-3.6-0.5-4.7-1.6c-1.1-1-1.6-2.5-1.6-4.3c0-1.9,0.8-3.3,2.3-4.4c1.5-1.1,3.6-1.6,6.2-1.6h3.9v-1.9    c0-1.1-0.3-2.1-1-2.7c-0.7-0.7-1.7-1-3-1c-1.1,0-2.1,0.3-2.8,0.9c-0.7,0.6-1.1,1.3-1.1,2.1h-3.4l0-0.1c-0.1-1.4,0.6-2.7,2-3.9    c1.4-1.2,3.2-1.8,5.5-1.8c2.2,0,4,0.6,5.3,1.7c1.3,1.1,2,2.7,2,4.9v9.4c0,0.7,0,1.4,0.1,2s0.2,1.3,0.4,1.9H-1382.7z     M-1388.6-6179.6c1.3,0,2.5-0.3,3.5-1c1-0.7,1.7-1.4,2-2.3v-3.2h-4c-1.4,0-2.6,0.4-3.4,1.1c-0.9,0.7-1.3,1.6-1.3,2.5    c0,0.9,0.3,1.5,0.8,2.1C-1390.5-6179.9-1389.7-6179.6-1388.6-6179.6z M-1385.6-6204.1h4.2l0,0.1l-4.9,4.7h-2.7L-1385.6-6204.1z"></path>
		<path class="st31" d="M-1369.7-6201.3v4.7h3.7v2.6h-3.7v11.9c0,0.9,0.2,1.6,0.6,1.9c0.4,0.4,0.9,0.6,1.5,0.6c0.2,0,0.4,0,0.7-0.1    c0.2,0,0.5-0.1,0.7-0.2l0.5,2.4c-0.3,0.2-0.7,0.4-1.2,0.5c-0.5,0.1-1,0.2-1.5,0.2c-1.4,0-2.6-0.4-3.5-1.3    c-0.9-0.9-1.3-2.2-1.3-4.1v-11.9h-3.1v-2.6h3.1v-4.7H-1369.7z"></path>
		<path class="st31" d="M-1353.5-6176.7c-2.7,0-4.9-0.9-6.5-2.7c-1.6-1.8-2.4-4.2-2.4-7.1v-0.8c0-2.8,0.8-5.1,2.5-6.9    c1.7-1.8,3.6-2.8,5.9-2.8c2.6,0,4.6,0.8,6,2.4c1.3,1.6,2,3.7,2,6.4v2.2h-12.7l-0.1,0.1c0,1.9,0.5,3.4,1.4,4.6    c0.9,1.2,2.2,1.8,3.8,1.8c1.2,0,2.3-0.2,3.2-0.5c0.9-0.3,1.7-0.8,2.4-1.4l1.4,2.3c-0.7,0.7-1.6,1.3-2.8,1.7    C-1350.5-6176.9-1351.9-6176.7-1353.5-6176.7z M-1354-6194.1c-1.2,0-2.2,0.5-3.1,1.5c-0.8,1-1.4,2.3-1.6,3.8l0,0.1h9v-0.5    c0-1.4-0.4-2.6-1.1-3.5C-1351.5-6193.7-1352.6-6194.1-1354-6194.1z"></path>
	</g>
	<g class="st2">
		<path class="st3" d="M-1437.4-6575.9h13.8c6.7,0,11.6-2.2,14.7-6.8c3.1-4.5,4.6-10.6,4.6-18.3c0-7.9-1.6-14-4.8-18.6    c-3.2-4.5-7.9-6.8-14.1-6.8c-5.6,0-10.3,2.3-13.9,6.8c-3.6,4.5-5.4,10.5-5.4,17.8h-19.2l-0.3-0.6c-0.3-11.2,3.3-20.6,10.6-28.1    c7.3-7.5,16.6-11.3,27.9-11.3c12,0,21.5,3.6,28.7,10.7s10.8,17.2,10.8,30.3c0,6.4-1.7,12.6-5.1,18.5s-8.2,10.3-14.4,13.4    c7.3,2.7,12.7,7.1,16.2,13.2c3.5,6.1,5.3,13.1,5.3,21.1c0,13.1-3.9,23.4-11.6,30.9c-7.7,7.5-17.6,11.2-29.7,11.2    c-11.3,0-20.8-3.6-28.6-10.7c-7.8-7.1-11.6-17.1-11.3-29.8l0.3-0.6h19.3c0,7.6,1.9,13.8,5.7,18.6s8.8,7.2,14.9,7.2    c6.5,0,11.6-2.3,15.3-6.9c3.7-4.6,5.5-11.2,5.5-19.6c0-9-1.8-15.7-5.3-19.9c-3.5-4.3-8.8-6.4-15.9-6.4h-13.8V-6575.9z"></path>
		<path class="st3" d="M-1336.7-6507.7c7.4,0,13.3-3.4,17.9-10.3c4.5-6.8,6.8-16.7,6.8-29.6v-7.1c-2.8,4.8-6.2,8.4-10.3,10.8    c-4.1,2.5-8.5,3.7-13.2,3.7c-11.6,0-20.7-4.5-27.4-13.4c-6.7-8.9-10.1-21-10.1-36.3c0-14.8,3.8-27.1,11.4-37    c7.6-9.9,17-14.8,28.2-14.8c12.6,0,22.6,4.8,30.2,14.3c7.6,9.6,11.4,23.3,11.4,41.3v37.9c0,17.7-4.2,31.4-12.6,41.1    c-8.4,9.7-19.2,14.6-32.4,14.6c-4.1,0-8.4-0.5-12.9-1.5c-4.5-1-8.7-2.5-12.6-4.4l2.7-14.7c3.5,1.9,7.1,3.3,10.7,4.1    C-1345.2-6508.1-1341.1-6507.7-1336.7-6507.7z M-1333.4-6555.4c5.2,0,9.6-1.5,13.2-4.4c3.6-3,6.4-6.8,8.2-11.4v-16.8    c0-12.5-1.9-22-5.6-28.4c-3.7-6.5-8.9-9.7-15.5-9.7c-5.6,0-10.3,3.5-14.1,10.5c-3.8,7-5.6,15.6-5.6,25.8c0,10.2,1.7,18.5,5.1,25    C-1344.3-6558.6-1339.5-6555.4-1333.4-6555.4z"></path>
	</g>
	<g class="st2">
		<path class="st3" d="M-1271.9-6591.9h-6.1v-6h6.1V-6591.9z"></path>
		<path class="st3" d="M-1256.5-6595.9c2.2,0,4-1,5.3-3.1c1.4-2,2-5,2-8.8v-2.1c-0.8,1.4-1.9,2.5-3.1,3.2c-1.2,0.7-2.5,1.1-4,1.1    c-3.5,0-6.2-1.3-8.2-4c-2-2.7-3-6.3-3-10.9c0-4.4,1.1-8.1,3.4-11.1c2.3-2.9,5.1-4.4,8.4-4.4c3.8,0,6.8,1.4,9,4.3    c2.3,2.9,3.4,7,3.4,12.4v11.3c0,5.3-1.3,9.4-3.8,12.3c-2.5,2.9-5.7,4.4-9.7,4.4c-1.2,0-2.5-0.2-3.9-0.5s-2.6-0.8-3.8-1.3l0.8-4.4    c1.1,0.6,2.1,1,3.2,1.2C-1259.1-6596-1257.9-6595.9-1256.5-6595.9z M-1255.5-6610.1c1.5,0,2.9-0.4,3.9-1.3s1.9-2,2.5-3.4v-5    c0-3.7-0.6-6.6-1.7-8.5c-1.1-1.9-2.7-2.9-4.6-2.9c-1.7,0-3.1,1-4.2,3.1c-1.1,2.1-1.7,4.7-1.7,7.7c0,3.1,0.5,5.5,1.5,7.5    S-1257.4-6610.1-1255.5-6610.1z"></path>
		<path class="st3" d="M-1215.4-6608.7c0,5.6-1.1,9.9-3.2,12.9c-2.2,3-5.1,4.5-8.8,4.5c-3.7,0-6.7-1.5-8.8-4.5    c-2.2-3-3.3-7.3-3.3-12.9v-9.8c0-5.6,1.1-9.9,3.2-12.9c2.2-3,5.1-4.5,8.8-4.5s6.6,1.5,8.8,4.5c2.2,3,3.3,7.3,3.3,12.9V-6608.7z     M-1221.4-6619.4c0-3.9-0.5-6.9-1.6-8.9c-1-2-2.5-3-4.5-3s-3.4,1-4.5,3c-1,2-1.5,5-1.5,8.9v11.5c0,3.9,0.5,6.9,1.6,9    c1,2,2.5,3,4.5,3c1.9,0,3.4-1,4.4-3c1-2,1.5-5,1.5-9V-6619.4z"></path>
	</g>
	<g class="st2">
		<path class="st3" d="M-1513.1-6579.3c0-3.1-0.9-5.6-2.6-7.5c-1.7-2-4.7-3.7-9-5.2c-6.2-1.9-10.9-4.3-14.2-7.3    c-3.3-3-4.9-7-4.9-11.9c0-5.1,1.8-9.3,5.5-12.5c3.7-3.3,8.4-4.9,14.1-4.9c6,0,10.8,1.9,14.5,5.7c3.7,3.8,5.4,8.3,5.3,13.7    l-0.1,0.3h-8.7c0-3.8-1-6.8-2.9-9.2c-1.9-2.4-4.7-3.5-8.2-3.5c-3.3,0-5.9,1-7.8,3c-1.8,2-2.7,4.5-2.7,7.5c0,2.8,1,5.1,2.9,7    c2,1.9,5.2,3.6,9.7,5.1c5.9,1.8,10.4,4.3,13.5,7.5c3.1,3.2,4.6,7.3,4.6,12.3c0,5.3-1.8,9.5-5.5,12.6c-3.6,3.1-8.4,4.7-14.4,4.7    c-5.8,0-10.8-1.7-15.1-5.1c-4.3-3.4-6.4-8.2-6.2-14.5l0.1-0.3h8.7c0,4.4,1.2,7.7,3.5,9.8c2.3,2.1,5.4,3.2,9.1,3.2    c3.4,0,6-0.9,7.9-2.8C-1514.1-6573.6-1513.1-6576.1-1513.1-6579.3z"></path>
		<path class="st3" d="M-1493.6-6557.4h-7.1l21.4-70.3h7.1L-1493.6-6557.4z"></path>
	</g>
	<g class="st2">
		<path class="st3" d="M-1537.1-6271.1c0-0.6-0.2-1.1-0.6-1.5c-0.4-0.4-1.2-0.7-2.2-1c-1.9-0.5-3.3-1.2-4.2-1.9    c-1-0.7-1.4-1.7-1.4-3c0-1.3,0.5-2.3,1.6-3.1c1.1-0.8,2.5-1.2,4.2-1.2c1.7,0,3.1,0.5,4.2,1.4c1.1,0.9,1.6,2,1.6,3.4l0,0.1h-3    c0-0.7-0.2-1.3-0.7-1.8s-1.2-0.7-2-0.7c-0.8,0-1.5,0.2-1.9,0.6c-0.5,0.4-0.7,0.8-0.7,1.4c0,0.5,0.2,1,0.7,1.3    c0.5,0.3,1.3,0.7,2.5,1.1c1.7,0.5,3,1.1,3.9,1.9c0.9,0.8,1.3,1.8,1.3,3.1c0,1.3-0.5,2.4-1.6,3.2c-1.1,0.8-2.5,1.2-4.2,1.2    c-1.7,0-3.2-0.4-4.5-1.3c-1.3-0.9-1.9-2.1-1.8-3.7l0-0.1h3.1c0,0.9,0.3,1.6,0.9,2s1.4,0.7,2.4,0.7c0.9,0,1.5-0.2,2-0.5    C-1537.3-6270-1537.1-6270.5-1537.1-6271.1z"></path>
		<path class="st3" d="M-1528.3-6267h-3.1v-15.6h3.1V-6267z"></path>
		<path class="st3" d="M-1512.5-6267h-3.1l-6.3-10.7l-0.1,0v10.7h-3.1v-15.6h3.1l6.3,10.7l0.1,0v-10.7h3.1V-6267z"></path>
		<path class="st3" d="M-1500.9-6272.7v5.7h-3.1v-15.6h6.2c1.8,0,3.2,0.5,4.2,1.4c1,0.9,1.5,2.1,1.5,3.6c0,1.5-0.5,2.7-1.5,3.6    c-1,0.9-2.4,1.4-4.2,1.4H-1500.9z M-1500.9-6275.1h3.1c0.9,0,1.5-0.2,2-0.7c0.5-0.5,0.7-1.1,0.7-1.8c0-0.8-0.2-1.4-0.7-1.9    c-0.4-0.5-1.1-0.7-2-0.7h-3.1V-6275.1z"></path>
		<path class="st3" d="M-1483.2-6270.4h-5.5l-1.1,3.4h-3.2l5.4-15.6h3.2l5.4,15.6h-3.2L-1483.2-6270.4z M-1487.9-6272.8h3.9    l-1.9-6.1h-0.1L-1487.9-6272.8z"></path>
		<path class="st3" d="M-1465.5-6269.1c-0.5,0.6-1.2,1.2-2.2,1.6c-1,0.5-2.2,0.7-3.7,0.7c-1.9,0-3.5-0.6-4.7-1.8    c-1.2-1.2-1.8-2.7-1.8-4.6v-3.3c0-1.9,0.6-3.4,1.7-4.6c1.2-1.2,2.7-1.8,4.5-1.8c1.9,0,3.4,0.5,4.4,1.4c1,0.9,1.5,2.1,1.6,3.7    l0,0.1h-3c-0.1-0.8-0.3-1.5-0.8-2c-0.5-0.5-1.2-0.7-2.1-0.7c-1,0-1.7,0.4-2.3,1.1c-0.6,0.7-0.9,1.7-0.9,2.9v3.3    c0,1.2,0.3,2.2,0.9,2.9c0.6,0.7,1.4,1.1,2.5,1.1c0.7,0,1.3-0.1,1.8-0.2c0.4-0.2,0.8-0.3,1-0.6v-2.9h-2.8v-2.2h5.9V-6269.1z"></path>
		<path class="st3" d="M-1450.2-6273.4c0,1.9-0.6,3.5-1.8,4.8c-1.2,1.3-2.8,1.9-4.7,1.9c-1.9,0-3.5-0.6-4.7-1.9    c-1.2-1.3-1.8-2.8-1.8-4.8v-2.8c0-1.9,0.6-3.5,1.8-4.8c1.2-1.3,2.8-1.9,4.7-1.9c1.9,0,3.5,0.6,4.7,1.9c1.2,1.3,1.8,2.8,1.8,4.8    V-6273.4z M-1453.3-6276.2c0-1.2-0.3-2.2-0.9-3c-0.6-0.8-1.4-1.2-2.5-1.2c-1.1,0-1.9,0.4-2.5,1.2c-0.6,0.8-0.9,1.8-0.9,3v2.8    c0,1.2,0.3,2.3,0.9,3c0.6,0.8,1.4,1.2,2.5,1.2c1.1,0,1.9-0.4,2.5-1.2c0.6-0.8,0.9-1.8,0.9-3V-6276.2z"></path>
		<path class="st3" d="M-1442.3-6267v-15.6h5.4c1.9,0,3.5,0.6,4.7,1.8c1.2,1.2,1.9,2.8,1.9,4.7v2.6c0,1.9-0.6,3.5-1.9,4.7    c-1.2,1.2-2.8,1.8-4.7,1.8H-1442.3z M-1439.1-6280.2v10.8h2.1c1.1,0,2-0.4,2.6-1.1c0.6-0.8,1-1.8,1-3v-2.6c0-1.2-0.3-2.2-1-3    c-0.6-0.8-1.5-1.1-2.6-1.1H-1439.1z"></path>
		<path class="st3" d="M-1418.2-6273.9h-6.5v4.5h7.6v2.4h-10.7v-15.6h10.7v2.4h-7.6v3.9h6.5V-6273.9z"></path>
		<path class="st3" d="M-1401.3-6270.4h-5.5l-1.1,3.4h-3.2l5.4-15.6h3.2l5.4,15.6h-3.2L-1401.3-6270.4z M-1406.1-6272.8h3.9    l-1.9-6.1h-0.1L-1406.1-6272.8z"></path>
		<path class="st3" d="M-1386-6273.5h-6.6v6.5h-3.1v-15.6h10.8v2.4h-7.6v4.3h6.6V-6273.5z"></path>
		<path class="st3" d="M-1379.6-6267h-3.1v-15.6h3.1V-6267z"></path>
		<path class="st3" d="M-1373.4-6269.4h7v2.4h-10.1v-15.6h3.1V-6269.4z"></path>
		<path class="st3" d="M-1361.3-6267h-3.1v-15.6h3.1V-6267z"></path>
		<path class="st3" d="M-1349.7-6270.4h-5.5l-1.1,3.4h-3.2l5.4-15.6h3.2l5.4,15.6h-3.2L-1349.7-6270.4z M-1354.5-6272.8h3.9    l-1.9-6.1h-0.1L-1354.5-6272.8z"></path>
		<path class="st3" d="M-1332.2-6272.3L-1332.2-6272.3c0,1.7-0.5,3.1-1.5,4.1c-1.1,1-2.5,1.5-4.4,1.5c-1.9,0-3.4-0.6-4.6-1.8    c-1.2-1.2-1.8-2.8-1.8-4.7v-3.1c0-1.9,0.6-3.5,1.7-4.7c1.1-1.2,2.6-1.8,4.5-1.8c1.9,0,3.4,0.5,4.5,1.5c1.1,1,1.6,2.3,1.6,4.1    l0,0.1h-3.1c0-1-0.2-1.8-0.7-2.4c-0.5-0.5-1.3-0.8-2.3-0.8c-0.9,0-1.7,0.4-2.2,1.1c-0.6,0.8-0.8,1.7-0.8,2.9v3.1    c0,1.2,0.3,2.2,0.9,2.9c0.6,0.8,1.4,1.1,2.4,1.1c1,0,1.7-0.3,2.2-0.8c0.5-0.5,0.7-1.3,0.7-2.3H-1332.2z"></path>
		<path class="st3" d="M-1326.7-6267h-3.1v-15.6h3.1V-6267z"></path>
		<path class="st3" d="M-1311-6273.4c0,1.9-0.6,3.5-1.8,4.8c-1.2,1.3-2.8,1.9-4.7,1.9c-1.9,0-3.5-0.6-4.7-1.9    c-1.2-1.3-1.8-2.8-1.8-4.8v-2.8c0-1.9,0.6-3.5,1.8-4.8c1.2-1.3,2.8-1.9,4.7-1.9c1.9,0,3.5,0.6,4.7,1.9c1.2,1.3,1.8,2.8,1.8,4.8    V-6273.4z M-1314.1-6276.2c0-1.2-0.3-2.2-0.9-3c-0.6-0.8-1.4-1.2-2.5-1.2c-1.1,0-1.9,0.4-2.5,1.2c-0.6,0.8-0.9,1.8-0.9,3v2.8    c0,1.2,0.3,2.3,0.9,3c0.6,0.8,1.4,1.2,2.5,1.2c1.1,0,1.9-0.4,2.5-1.2c0.6-0.8,0.9-1.8,0.9-3V-6276.2z M-1316.9-6286.8h3.3l0,0.1    l-3,2.8h-2.5L-1316.9-6286.8z"></path>
		<path class="st3" d="M-1295.9-6267h-3.1l-6.3-10.7l-0.1,0v10.7h-3.1v-15.6h3.1l6.3,10.7l0.1,0v-10.7h3.1V-6267z"></path>
	</g>
</g>
</svg>