<svg xmlns="http://www.w3.org/2000/svg" xmlns:xlink="http://www.w3.org/1999/xlink" id="Capa_1" x="0px" y="0px" viewBox="0 0 1323.6 617.8" style="enable-background:new 0 0 1323.6 617.8;" xml:space="preserve">
<style type="text/css">
	.st0{fill:#FFDD81;}
	.st1{opacity:0.25;fill:#FFFFFF;enable-background:new    ;}
	.st2{fill:#27028A;}
	.st3{enable-background:new    ;}
	.st4{fill:#FFFFFF;}
	.st5{fill:#8BB367;}
	.st6{fill:#80A4D6;}
	.st7{fill:#C79972;}
	.st8{fill:#DBA97D;}
	.st9{opacity:0.5;}
	.st10{opacity:0.5;fill:#DE9A77;enable-background:new    ;}
	.st11{fill:#332517;}
	.st12{fill:#9B332C;}
	.st13{fill:#C06568;}
	.st14{fill:#3A2432;}
	.st15{fill:#503523;}
	.st16{fill:#F2D142;}
	.st17{fill:#D4D4D4;}
	.st18{fill:#779958;}
	.st19{fill:#EDC721;}
	.st20{fill:#ECC19E;}
	.st21{fill:#ECCEB6;}
	.st22{fill:#DBAE98;}
	.st23{opacity:0.5;fill:#ECB59F;enable-background:new    ;}
	.st24{fill:#467A8B;}
	.st25{fill:#D63D2C;}
	.st26{fill:#6E91B8;}
	.st27{fill:#B3B3B3;}
	.st28{fill:#E6DCC0;}
	.st29{fill:#C0735B;}
	.st30{fill:#DA7840;}
	.st31{fill:#888743;}
	.st32{fill:#354A9E;}
	.st33{fill:#C0674B;}
	.st34{fill:#822523;}
	.st35{fill:#E58494;}
	.st36{fill:#A24E39;}
	.st37{opacity:0.5;fill:#A24E39;enable-background:new    ;}
	.st38{fill:#4F3522;}
	.st39{fill:#343439;}
	.st40{fill:#43434A;}
	.st41{fill:#DBAC81;}
	.st42{fill:#E7BA91;}
	.st43{fill:#D9A16F;}
	.st44{opacity:0.5;fill:#E2846F;enable-background:new    ;}
	.st45{fill:#BA3F3F;}
	.st46{fill:#CD8170;}
</style>
<g id="Group_1304" transform="translate(930.683 6719.523)">
	<g id="Group_1182" transform="translate(-930.683 -6719.523)">
		<path id="Rectangle_149" class="st0" d="M10,0.5h1303.6c5.5,0,10,4.5,10,10v597.3c0,5.5-4.5,10-10,10H10c-5.5,0-10-4.5-10-10V10.5    C0,5,4.5,0.5,10,0.5z"></path>
		<path id="Path_1914" class="st1" d="M0,617.8V0h1323.2L0,617.8z"></path>
	</g>
	<path id="Rectangle_151" class="st2" d="M-852-6231.3h272.4c5.5,0,10,4.5,10,10v67.5c0,5.5-4.5,10-10,10H-852c-5.5,0-10-4.5-10-10   v-67.5C-862-6226.8-857.5-6231.3-852-6231.3z"></path>
	<g class="st3">
		<path class="st4" d="M-757.5-6183.8h-11l-2.5,6.8h-3.6l10.2-26.3h3.1l10,26.3h-3.6L-757.5-6183.8z M-767.4-6186.8h8.9l-4.3-12    h-0.1L-767.4-6186.8z"></path>
		<path class="st4" d="M-747-6177v-16.9h-3.1v-2.6h3.1v-2.5c0-2.1,0.5-3.7,1.6-4.8c1.1-1.1,2.6-1.7,4.6-1.7c0.4,0,0.8,0,1.2,0.1    c0.4,0.1,0.9,0.2,1.4,0.3l-0.4,2.7c-0.2,0-0.5-0.1-0.8-0.1c-0.3,0-0.6-0.1-1-0.1c-1,0-1.8,0.3-2.3,0.9s-0.8,1.5-0.8,2.7v2.5h4.1    v2.6h-4.1v16.9H-747z"></path>
		<path class="st4" d="M-731.9-6177h-3.6v-19.5h3.6V-6177z M-732-6203.8h4.2l0,0.1l-4.9,4.7h-2.7L-732-6203.8z"></path>
		<path class="st4" d="M-722.5-6177h-3.6v-28.2h3.6V-6177z"></path>
		<path class="st4" d="M-713.2-6201.6h-3.6v-3.6h3.6V-6201.6z M-713.2-6177h-3.6v-19.5h3.6V-6177z"></path>
		<path class="st4" d="M-695.7-6177c-0.1-0.6-0.2-1.1-0.3-1.6c-0.1-0.5-0.1-0.9-0.1-1.4c-0.7,0.9-1.5,1.7-2.6,2.4    c-1.1,0.6-2.2,0.9-3.4,0.9c-2,0-3.6-0.5-4.7-1.6c-1.1-1-1.6-2.5-1.6-4.3c0-1.9,0.8-3.3,2.3-4.4c1.5-1.1,3.6-1.6,6.2-1.6h3.9v-1.9    c0-1.1-0.3-2.1-1-2.7c-0.7-0.7-1.7-1-3-1c-1.1,0-2.1,0.3-2.8,0.9c-0.7,0.6-1.1,1.3-1.1,2.1h-3.4l0-0.1c-0.1-1.4,0.6-2.7,2-3.9    c1.4-1.2,3.2-1.8,5.5-1.8c2.2,0,4,0.6,5.3,1.7c1.3,1.1,2,2.7,2,4.9v9.4c0,0.7,0,1.4,0.1,2s0.2,1.3,0.4,1.9H-695.7z M-701.6-6179.6    c1.3,0,2.5-0.3,3.5-1c1-0.7,1.7-1.4,2-2.3v-3.2h-4c-1.4,0-2.6,0.4-3.4,1.1c-0.9,0.7-1.3,1.6-1.3,2.5c0,0.9,0.3,1.5,0.8,2.1    C-703.5-6179.9-702.7-6179.6-701.6-6179.6z M-698.6-6204.1h4.2l0,0.1l-4.9,4.7h-2.7L-698.6-6204.1z"></path>
		<path class="st4" d="M-682.7-6201.3v4.7h3.7v2.6h-3.7v11.9c0,0.9,0.2,1.6,0.6,1.9c0.4,0.4,0.9,0.6,1.5,0.6c0.2,0,0.4,0,0.7-0.1    c0.2,0,0.5-0.1,0.7-0.2l0.5,2.4c-0.3,0.2-0.7,0.4-1.2,0.5c-0.5,0.1-1,0.2-1.5,0.2c-1.4,0-2.6-0.4-3.5-1.3    c-0.9-0.9-1.3-2.2-1.3-4.1v-11.9h-3.1v-2.6h3.1v-4.7H-682.7z"></path>
		<path class="st4" d="M-666.5-6176.7c-2.7,0-4.9-0.9-6.5-2.7c-1.6-1.8-2.4-4.2-2.4-7.1v-0.8c0-2.8,0.8-5.1,2.5-6.9    c1.7-1.8,3.6-2.8,5.9-2.8c2.6,0,4.6,0.8,6,2.4c1.3,1.6,2,3.7,2,6.4v2.2h-12.7l-0.1,0.1c0,1.9,0.5,3.4,1.4,4.6    c0.9,1.2,2.2,1.8,3.8,1.8c1.2,0,2.3-0.2,3.2-0.5c0.9-0.3,1.7-0.8,2.4-1.4l1.4,2.3c-0.7,0.7-1.6,1.3-2.8,1.7    C-663.5-6176.9-664.9-6176.7-666.5-6176.7z M-667-6194.1c-1.2,0-2.2,0.5-3.1,1.5c-0.8,1-1.4,2.3-1.6,3.8l0,0.1h9v-0.5    c0-1.4-0.4-2.6-1.1-3.5C-664.5-6193.7-665.6-6194.1-667-6194.1z"></path>
	</g>
	<g class="st3">
		<path class="st2" d="M-853.3-6410.7v17.7h-3.5v-42.7h14.7c4.5,0,7.9,1.1,10.4,3.4c2.5,2.3,3.7,5.3,3.7,9c0,3.8-1.2,6.8-3.7,9.1    c-2.5,2.3-5.9,3.4-10.4,3.4H-853.3z M-853.3-6413.7h11.2c3.5,0,6.2-0.9,7.9-2.7c1.8-1.8,2.7-4,2.7-6.8c0-2.7-0.9-5-2.6-6.8    s-4.4-2.7-7.9-2.7h-11.2V-6413.7z"></path>
		<path class="st2" d="M-806.1-6421.7l-2.6-0.2c-2.2,0-4,0.6-5.4,1.9c-1.4,1.2-2.4,2.9-3,5.1v21.9h-3.5v-31.7h3.1l0.4,5.3v0.4    c0.9-2,2.1-3.5,3.7-4.6c1.5-1.1,3.4-1.6,5.5-1.6c0.4,0,0.9,0,1.3,0.1c0.4,0.1,0.8,0.1,1,0.2L-806.1-6421.7z"></path>
		<path class="st2" d="M-802.8-6409.3c0-4.7,1.3-8.5,3.8-11.5c2.6-3,5.9-4.5,10.2-4.5c4.2,0,7.6,1.5,10.2,4.5    c2.6,3,3.8,6.8,3.8,11.5v1c0,4.7-1.3,8.5-3.8,11.5s-5.9,4.5-10.2,4.5c-4.3,0-7.7-1.5-10.2-4.5c-2.6-3-3.8-6.8-3.8-11.5V-6409.3z     M-799.3-6408.4c0,3.7,0.9,6.8,2.8,9.2c1.9,2.5,4.4,3.7,7.8,3.7c3.3,0,5.8-1.2,7.7-3.7c1.9-2.5,2.8-5.6,2.8-9.2v-1    c0-3.6-0.9-6.7-2.8-9.2s-4.5-3.8-7.7-3.8s-5.8,1.3-7.7,3.8c-1.9,2.5-2.8,5.6-2.8,9.2V-6408.4z"></path>
		<path class="st2" d="M-768.8-6408.6c0-5.1,1.1-9.1,3.2-12.1c2.2-3,5.2-4.6,9-4.6c2.2,0,4.2,0.5,5.8,1.5s3,2.4,4.1,4.2l0.4-5.1h3    v31.3c0,4.1-1.1,7.3-3.4,9.7s-5.4,3.5-9.4,3.5c-1.5,0-3.1-0.2-4.9-0.6c-1.7-0.4-3.2-0.9-4.5-1.5l0.9-3c1.2,0.6,2.6,1.1,4,1.4    c1.4,0.3,2.9,0.5,4.5,0.5c3.1,0,5.4-0.9,7-2.7c1.6-1.8,2.4-4.2,2.4-7.4v-4c-1.1,1.6-2.4,2.8-4.1,3.7s-3.6,1.3-5.7,1.3    c-3.8,0-6.8-1.4-9-4.2c-2.2-2.8-3.2-6.6-3.2-11.3V-6408.6z M-765.3-6408c0,3.8,0.8,6.9,2.3,9.2c1.6,2.3,3.9,3.4,7,3.4    c2.3,0,4.2-0.5,5.7-1.6c1.5-1,2.7-2.5,3.5-4.3v-14.7c-0.8-1.9-1.9-3.4-3.4-4.6c-1.5-1.2-3.4-1.8-5.8-1.8c-3.1,0-5.4,1.3-7,3.8    c-1.6,2.6-2.4,5.8-2.4,9.9V-6408z"></path>
		<path class="st2" d="M-719.4-6421.7l-2.6-0.2c-2.2,0-4,0.6-5.4,1.9c-1.4,1.2-2.4,2.9-3,5.1v21.9h-3.5v-31.7h3.1l0.4,5.3v0.4    c0.9-2,2.1-3.5,3.7-4.6c1.5-1.1,3.4-1.6,5.5-1.6c0.4,0,0.9,0,1.3,0.1c0.4,0.1,0.8,0.1,1,0.2L-719.4-6421.7z"></path>
		<path class="st2" d="M-693.5-6393c-0.2-1.1-0.4-2-0.5-2.8c-0.1-0.8-0.1-1.6-0.1-2.4c-1.2,1.7-2.7,3-4.7,4.1    c-2,1.1-4.2,1.6-6.6,1.6c-3.1,0-5.5-0.8-7.2-2.5c-1.7-1.6-2.6-3.8-2.6-6.6c0-2.9,1.3-5.3,3.8-7c2.5-1.8,5.9-2.6,10.2-2.6h7v-3.9    c0-2.3-0.7-4-2.2-5.3c-1.5-1.3-3.5-1.9-6.1-1.9c-2.4,0-4.5,0.6-6.1,1.8s-2.4,2.7-2.4,4.5l-3.2,0l-0.1-0.2c-0.1-2.4,1-4.5,3.2-6.3    c2.3-1.9,5.2-2.8,8.7-2.8c3.5,0,6.3,0.9,8.4,2.7c2.1,1.8,3.2,4.3,3.2,7.6v15.6c0,1.1,0.1,2.2,0.2,3.3c0.1,1.1,0.3,2.1,0.6,3.1    H-693.5z M-705-6395.5c2.5,0,4.7-0.6,6.7-1.8s3.3-2.7,4.2-4.5v-6.6h-7.1c-3.2,0-5.7,0.7-7.6,2s-2.9,3-2.9,5.1    c0,1.7,0.6,3.1,1.8,4.2C-708.7-6396-707.1-6395.5-705-6395.5z"></path>
		<path class="st2" d="M-678.4-6424.7l0.3,5.2c1-1.9,2.4-3.3,4.1-4.3c1.7-1,3.7-1.5,6-1.5c2.4,0,4.4,0.6,6.1,1.8    c1.6,1.2,2.8,3,3.5,5.4c1-2.2,2.3-4,4.1-5.2c1.8-1.3,3.9-1.9,6.5-1.9c3.4,0,6,1.1,7.8,3.4c1.8,2.2,2.8,5.7,2.8,10.4v18.5h-3.5    v-18.6c0-3.9-0.7-6.7-2.1-8.3s-3.3-2.4-5.8-2.4c-2.7,0-4.8,0.9-6.3,2.6c-1.5,1.7-2.4,3.9-2.8,6.5c0,0.1,0,0.3,0,0.6    c0,0.3,0,0.4,0,0.6v19.1h-3.5v-18.6c0-3.8-0.7-6.6-2.1-8.2c-1.4-1.7-3.3-2.5-5.8-2.5c-2.5,0-4.4,0.6-5.9,1.9    c-1.5,1.3-2.5,3-3.1,5.1v22.3h-3.5v-31.7H-678.4z"></path>
		<path class="st2" d="M-608.1-6393c-0.2-1.1-0.4-2-0.5-2.8c-0.1-0.8-0.1-1.6-0.1-2.4c-1.2,1.7-2.7,3-4.7,4.1    c-2,1.1-4.2,1.6-6.6,1.6c-3.1,0-5.5-0.8-7.2-2.5c-1.7-1.6-2.6-3.8-2.6-6.6c0-2.9,1.3-5.3,3.8-7c2.5-1.8,5.9-2.6,10.2-2.6h7v-3.9    c0-2.3-0.7-4-2.2-5.3c-1.5-1.3-3.5-1.9-6.1-1.9c-2.4,0-4.5,0.6-6.1,1.8s-2.4,2.7-2.4,4.5l-3.2,0l-0.1-0.2c-0.1-2.4,1-4.5,3.2-6.3    c2.3-1.9,5.2-2.8,8.7-2.8c3.5,0,6.3,0.9,8.4,2.7c2.1,1.8,3.2,4.3,3.2,7.6v15.6c0,1.1,0.1,2.2,0.2,3.3c0.1,1.1,0.3,2.1,0.6,3.1    H-608.1z M-619.6-6395.5c2.5,0,4.7-0.6,6.7-1.8s3.3-2.7,4.2-4.5v-6.6h-7.1c-3.2,0-5.7,0.7-7.6,2s-2.9,3-2.9,5.1    c0,1.7,0.6,3.1,1.8,4.2C-623.3-6396-621.7-6395.5-619.6-6395.5z"></path>
	</g>
	<g class="st3">
		<path class="st2" d="M-849.3-6328h-8.6v-42.7h8.6V-6328z"></path>
		<path class="st2" d="M-833.7-6359.7l0.4,4.5c1.1-1.6,2.4-2.9,3.9-3.8c1.5-0.9,3.3-1.3,5.2-1.3c3.2,0,5.7,1,7.5,3    c1.8,2,2.7,5.2,2.7,9.5v19.8h-8.6v-19.8c0-2.1-0.4-3.6-1.3-4.5c-0.9-0.9-2.2-1.3-3.9-1.3c-1.1,0-2.1,0.2-3,0.7    c-0.9,0.5-1.7,1.1-2.3,2v23.1h-8.6v-31.7H-833.7z"></path>
		<path class="st2" d="M-805.4-6328v-25.7h-4.7v-6h4.7v-3.5c0-3.6,1-6.3,3.1-8.2s4.9-2.9,8.6-2.9c0.7,0,1.5,0.1,2.2,0.2    c0.8,0.1,1.6,0.3,2.5,0.5l-0.7,6.4c-0.5-0.1-0.9-0.1-1.4-0.2s-1-0.1-1.5-0.1c-1.4,0-2.4,0.4-3.1,1.1c-0.7,0.8-1.1,1.9-1.1,3.3v3.5    h6.3v6h-6.3v25.7H-805.4z"></path>
		<path class="st2" d="M-767.6-6328c-0.3-0.7-0.6-1.5-0.8-2.3c-0.2-0.8-0.4-1.6-0.5-2.5c-0.9,1.5-2,2.8-3.5,3.8s-3.1,1.5-5.1,1.5    c-3.3,0-5.9-0.9-7.7-2.6c-1.8-1.7-2.7-4-2.7-7c0-3.1,1.2-5.5,3.6-7.2c2.4-1.7,5.9-2.6,10.5-2.6h4.8v-2.5c0-1.5-0.4-2.7-1.2-3.5    c-0.8-0.8-2-1.3-3.5-1.3c-1.4,0-2.5,0.3-3.2,1c-0.8,0.7-1.1,1.6-1.1,2.8l-8.3,0l0-0.2c-0.1-2.7,1-5,3.5-6.9s5.7-2.9,9.7-2.9    c3.8,0,6.9,1,9.2,2.9c2.4,1.9,3.5,4.7,3.5,8.2v13.1c0,1.5,0.1,2.9,0.3,4.2c0.2,1.3,0.6,2.6,1.1,3.9H-767.6z M-775.4-6333.7    c1.5,0,2.8-0.4,4-1.1s2-1.6,2.4-2.6v-4.5h-4.8c-1.8,0-3.2,0.5-4.1,1.4s-1.4,2-1.4,3.3c0,1.1,0.4,1.9,1.1,2.5    S-776.6-6333.7-775.4-6333.7z"></path>
		<path class="st2" d="M-746.2-6359.7l0.4,4.5c1.1-1.6,2.4-2.9,3.9-3.8c1.5-0.9,3.3-1.3,5.2-1.3c3.2,0,5.7,1,7.5,3    c1.8,2,2.7,5.2,2.7,9.5v19.8h-8.6v-19.8c0-2.1-0.4-3.6-1.3-4.5c-0.9-0.9-2.2-1.3-3.9-1.3c-1.1,0-2.1,0.2-3,0.7    c-0.9,0.5-1.7,1.1-2.3,2v23.1h-8.6v-31.7H-746.2z"></path>
		<path class="st2" d="M-709.9-6367.5v7.8h5.3v6h-5.3v16.1c0,1.2,0.3,2.1,0.8,2.6c0.5,0.5,1.2,0.8,2.1,0.8c0.4,0,0.8,0,1.2-0.1    s0.7-0.1,1.1-0.2l0.7,6.2c-0.9,0.3-1.7,0.5-2.5,0.7s-1.7,0.2-2.7,0.2c-2.9,0-5.2-0.8-6.8-2.4c-1.6-1.6-2.4-4.2-2.4-7.7v-16.2h-4.6    v-6h4.6v-7.8H-709.9z"></path>
		<path class="st2" d="M-690.2-6367.3h-8.6v-6.4h8.6V-6367.3z M-690.2-6328h-8.6v-31.7h8.6V-6328z"></path>
		<path class="st2" d="M-674.1-6328h-8.6v-45.7h8.6V-6328z"></path>
	</g>
	<g id="Group_1191" transform="translate(-451.753 -6618.718)">
		<g id="Group_715" transform="translate(579.26 285.897)">
			<path id="Path_2065" class="st5" d="M37.3,1.4C27.9,0.4,18.2-1,9.8,1C0.2,3.3,1.2,9.9,1,18.5C0.8,29.3-0.2,39.9,0,50.7     c0.2,9.7,3,19.9,4.4,29.6c1.6,10.4,19.7,9.6,20.2-1.1c0.4-7.7-0.9-15.7-1.4-23.3c-0.2-4-0.2-8,0.3-11.9     c0.2-1.3,1.6-11.8,2.7-11.9c0.9-0.1,1.9-0.1,2.8,0c0.8,11.8,3.6,23.4,3.8,35.2c0.2,8.8-2,21.2,11.1,19.5c5.8-0.8,8.3-2,8.6-8     c0.8-18,5.6-36.5,2.4-54.5c-1.3-7.4-2.9-14.6-3.6-22C46.7,2.3,42,2,37.3,1.4z"></path>
		</g>
		<path id="Path_2066" class="st6" d="M614.3,221.2H598l-1.1,1.9c0,0,0.5,1.3,0.6,1.4c0,0.1,17.5-0.6,17.5-0.6v-1.3L614.3,221.2z"></path>
		<g id="Group_716" transform="translate(515.019 154.923)">
			<path id="Path_2067" class="st7" d="M2.2,5.4c6.5-9.6,17.2-4.9,22.5,2.9c3.9,5.9,5.7,18.6-2.7,21.6c-5.2,1.9-13-1.4-16.7-5.2     C0.4,19.6-2.1,11.7,2.2,5.4z"></path>
		</g>
		<g id="Group_717" transform="translate(671.107 157.813)">
			<path id="Path_2068" class="st7" d="M26.2,5.7c-6.1-9.8-17-5.5-22.5,2.1c-4.1,5.7-6.3,18.3,1.9,21.7c5.2,2.1,13-1,16.8-4.6     C27.5,20,30.3,12.2,26.2,5.7z"></path>
		</g>
		<path id="Path_2069" class="st8" d="M680.5,93c-8.5-17.2-31.7-20-48.8-21.9c-27.7-3.1-53.5-5.4-79.4,8.2    c-31,16.3-16.6,64.7-17.1,92.4c-0.5,25.6,19.5,34.1,36.1,37.9s27.6,6.4,26.6,12.4c-1,6-5.7,22.6,7.5,22.9h0.8    c13.3,0.2,9.7-16.8,7.8-22.9c-1.7-5.8,10.5-8,27.3-11.2c15.4-2.9,33.3-11.4,37.1-28.3c2.1-6.7,2.4-23.2,2.4-23.2    c1.1-19.3,7.9-46.1,0.5-64.4C681.1,94.3,680.8,93.6,680.5,93z"></path>
		<g id="Group_718" transform="translate(601.057 171.469)" class="st9">
			<path id="Path_2070" class="st8" d="M9.6,4.8c-1,0.6-2.2,0.9-3.4,1c-1.3-0.1-2.5-0.4-3.6-1C1.1,4.1-0.8,3.2,0.4,1.2     c0.7-1.2,2.2-0.9,3.3-0.6c1.3,0.5,2.7,0.7,4,0.5C9,0.9,10.2,0.1,11.5,0c1.7-0.1,1.9,2.2,1,3.2c-0.7,0.9-1.9,1-2.8,1.5     C9.6,4.7,9.6,4.8,9.6,4.8z"></path>
		</g>
		<path id="Path_2071" class="st10" d="M576.6,176.7c1.4-5.9-4.7-12.3-13.5-14.3s-17,1.1-18.4,6.9c-1.4,5.9,4.7,12.3,13.5,14.3    C567,185.7,575.2,182.6,576.6,176.7z"></path>
		<path id="Path_2072" class="st10" d="M578.2,177.1c1-4.3-5.3-9.6-14.1-11.6c-8.8-2-16.7-0.2-17.8,4.2c-1,4.4,5.3,9.6,14.1,11.6    C569.3,183.4,577.2,181.5,578.2,177.1z"></path>
		<path id="Path_2073" class="st10" d="M575.7,176.5c1.5-6.3-5-13.3-14.5-15.5c-9.5-2.2-18.4,1.2-19.8,7.5    c-1.5,6.3,5,13.3,14.5,15.5C565.3,186.2,574.2,182.9,575.7,176.5z"></path>
		<path id="Path_2074" class="st10" d="M580.3,177.6c1.4-5.9-6.2-12.7-17-15.2c-10.7-2.5-20.6,0.3-21.9,6.1    c-1.4,5.9,6.2,12.7,17,15.2C569.1,186.2,578.9,183.5,580.3,177.6z"></path>
		<path id="Path_2075" class="st10" d="M641.1,177.9c-1.2-5.9,5.1-12.1,14-13.9c8.9-1.7,17,1.7,18.1,7.6c1.2,5.9-5.1,12.1-14,13.9    C650.4,187.2,642.3,183.8,641.1,177.9z"></path>
		<path id="Path_2076" class="st10" d="M639.4,178.2c-0.9-4.4,5.6-9.4,14.5-11.1c8.9-1.7,16.7,0.4,17.6,4.8    c0.9,4.4-5.6,9.4-14.5,11.1C648.2,184.8,640.3,182.6,639.4,178.2z"></path>
		<path id="Path_2077" class="st10" d="M642,177.7c-1.2-6.4,5.5-13.1,15.1-14.9s18.3,1.8,19.6,8.2c1.2,6.4-5.5,13.1-15.1,14.9    C652,187.8,643.2,184.1,642,177.7z"></path>
		<path id="Path_2078" class="st10" d="M637.4,178.6c-1.2-5.9,6.7-12.4,17.5-14.5s20.5,1,21.7,6.9c1.2,5.9-6.7,12.4-17.5,14.5    C648.3,187.6,638.5,184.5,637.4,178.6z"></path>
		<g id="Group_719" transform="translate(562.471 155.131)">
			<path id="Path_2079" class="st11" d="M4.7,12.5c6.4,0.6,7.3-11,1.4-12.4C-1.9-1.7-1.7,12,4.7,12.5z"></path>
		</g>
		<g id="Group_720" transform="translate(642.369 156.598)">
			<path id="Path_2080" class="st11" d="M4.8,12.6c6.4,0.4,7-11.2,1.1-12.4C-2.1-1.5-1.5,12.2,4.8,12.6z"></path>
		</g>
		<g id="Group_721" transform="translate(593.217 184.689)">
			<path id="Path_2081" class="st12" d="M14.3,9.7c-4-0.1-10.2-1.2-12.9-4.4C-1,2.3-0.3,0.3,3.7,0c5.7-0.4,10.4,3.6,16.5,2.6     c2.2-0.4,6.8-1.8,6,2.1C25.5,8.6,17.4,9.7,14.3,9.7z"></path>
		</g>
		<g id="Group_722" transform="translate(594.761 185.802)">
			<path id="Path_2082" class="st13" d="M17.8,1.6c0.3,0.1,0.5,0.3,0.7,0.4c1.3,1.4,2.3,3.1,3.1,4.8c-2.8,1.2-5.8,1.8-8.8,1.8     C8.9,8.5,2.8,7.4,0,4.2C2.5,1.9,5.7,0.4,9.1,0C11.8,0.9,14.6,1.8,17.8,1.6z"></path>
		</g>
		<g id="Group_723" transform="translate(595.163 184.663)">
			<path id="Path_2083" class="st4" d="M22,4.8C19.7,5.5,2.6,5,0.7,2.9C0.1,2.2-0.2,1.3,0.1,0.3C0.6,0.2,1.2,0.1,1.8,0     c5.7-0.4,10.4,3.6,16.5,2.6c1.4-0.2,3.7-0.9,5.1-0.4C23.4,3.3,23.2,4.5,22,4.8z"></path>
		</g>
		<g id="Group_724" transform="translate(556.847 123.486)">
			<path id="Path_2084" class="st14" d="M15.3,5.1C15.3-5.2,2.1,2.4,0,7.9C1,7.4,15.3,3.1,15.3,5.1z"></path>
		</g>
		<g id="Group_725" transform="translate(640.021 124.537)">
			<path id="Path_2085" class="st14" d="M0.5,6.6C-3-3.1,12-0.4,15.9,4C14.8,3.9-0.2,4.7,0.5,6.6z"></path>
		</g>
		<g id="Group_726" transform="translate(530.625 58.903)">
			<path id="Path_2086" class="st15" d="M8.9,60c0.7-1.6,1.4-3.2,2.2-4.9c13-26.3,47.4-28.8,73.9-29.1c15-0.2,27,1.2,40.7,6.5     c-15.3,10.7,6.6,24.2,17,23.9c-0.8,12.1,0.2,23,5.6,34.2c-3.9,3.6-8.4,17.8-0.5,11.4c0-0.4,0-0.4,0,0c-0.6,1.8-0.1,3.7-0.4,5.5     c14.8-4.3,11.1-51.3,9.1-61.9C146.9-4.4,81.9-4.4,43.1,4.5C23,9.1,6.6,21,1.8,41.9c-2.2,9.4-1.8,19.3-1.6,28.8     c0.2,5.2-2.2,36.1,7.1,37.1c6,0.7,3.2-8.8,0.2-10.8c9-3.4,0.8-11.5-0.6-17.2C5.1,72.2,6.3,66.3,8.9,60z"></path>
		</g>
		<g id="Group_727" transform="translate(578.088 223.059)">
			<path id="Path_2087" class="st16" d="M37.7,1.8c-0.2-0.6-0.4-1.2-0.8-1.8c-0.1-0.1-0.1-0.1,0,0c5.2,3.5,7,10.8,8.7,16.5     c8.5,26.8,8,57,10.4,63.2c0.4,0.9,1.7,2.6,1.8,3.3c1.2,5.5-4.6,4.2-8.9,4.5c-11.9,0.9-24.8,4.2-36.7,2.6     c-2.9-0.4-10.6-1.4-12.1-4.4c-0.8-1.6,0.3-2,0.4-3.4c0.2-2.5,0.8-5.1,1.1-7.6c1.3-12.6,0.9-25.4,2.6-38C6,23.7,9.4,10.7,17.9,0.3     C18.6,11.2,21,13,30.8,12.7c2.5-0.1,5.8,0,7.1-2.5C38.7,8.6,38.4,4.4,37.7,1.8z"></path>
		</g>
		<g id="Group_728" transform="translate(577.493 371.626)">
			<path id="Path_2088" class="st6" d="M25.7,0c-0.4,2.6-3.5,3.7-5.7,4.2C16.3,5.2,8.7,5.2,8.1,0C6.8,1.6,5.7,3.3,4.8,5.1     c-1.1,1.8-2.1,3.7-3,5.6c-1,2.2-2.1,4.1-1.8,6.6c0.1,1.1-0.1,2.7,0.6,3.7c0.8,0.8,1.8,1.4,3,1.6c4.5,1.2,9.1,1.5,13.7,0.8     c1.6-0.2,3.3-0.1,4.6-1.1c1.1-0.8,1.9-1.8,2.4-3c1.7-4,4.2-10.1,3-14.6C27,3.5,27,0.7,25.7,0z"></path>
		</g>
		<path id="Path_2089" class="st4" d="M599.4,393.6c-1.5,3.2-5.4,2.5-8.2,2.5c-3.7-0.1-7.7,0.6-11.3-1.1c-4-2-0.7-6.6,1.9-8    c3.7-1.7,7.8-1.8,11.6-0.5C596.1,387.4,600.9,390.4,599.4,393.6z"></path>
		<path id="Path_2090" class="st17" d="M577.7,391.5c0,0,1.3,2.7,9.7,2.9c8.4,0.1,11.6-0.6,13-2.1c2-2.1,4.5-11.6,4.8-14.8    c0.2,1.6,0.2,3.2,0,4.8c-0.3,1.6-2,12.8-5,14c-3,1.2-8,1.9-12.6,1.6c-4.6-0.3-9-1.9-9.6-3.3C577.4,393.6,577.3,392.5,577.7,391.5z    "></path>
		<path id="Path_2091" class="st17" d="M583.9,376.6c4.8-3.1,12.3,0.2,15.5,2.2c0.5,0.3-0.7,2.5-1.3,2.2c-2.2-0.8-4.4-1.3-6.7-1.4    c2.4,0,4.8,0.8,6.8,2.1c0.3,0.2-0.4,1.5-0.8,1.3c-2.1-0.9-4.3-1.3-6.5-1.3c-2.6-0.1-5.3,0.6-7.8,0.5c-1.1,0,0.4-2.3,0.7-2.6    c0.7-0.7,1.6-1.3,2.6-1.7c-1.1,0.1-2.1,0.5-3,1.1C582.2,379.9,583,377.1,583.9,376.6z"></path>
		<g id="Group_729" transform="translate(611.056 371.048)">
			<path id="Path_2092" class="st6" d="M1.9,0c0.4,2.6,3.5,3.7,5.7,4.2c3.7,1,11.4,0.9,11.9-4.2c1.3,1.6,2.4,3.3,3.3,5.1     c1.1,1.8,2.1,3.7,3,5.6c1,2.2,2.1,4.1,1.8,6.6c-0.1,1.1,0.1,2.7-0.6,3.7c-0.8,0.8-1.8,1.4-3,1.6c-4.5,1.2-9.1,1.5-13.7,0.8     c-1.6-0.2-3.3-0.1-4.6-1.1c-1.1-0.8-1.9-1.8-2.4-3c-1.7-4-4.2-10.1-3-14.6C0.7,3.5,0.6,0.7,1.9,0z"></path>
		</g>
		<path id="Path_2093" class="st4" d="M616.8,393.1c1.5,3.2,5.4,2.5,8.2,2.5c3.7-0.1,7.7,0.6,11.3-1.1c4-2,0.7-6.6-1.9-8    c-3.7-1.7-7.8-1.8-11.6-0.5C620.1,386.9,615.3,389.8,616.8,393.1z"></path>
		<path id="Path_2094" class="st17" d="M638.5,391c0,0-1.3,2.7-9.7,2.9c-8.4,0.1-11.6-0.6-13-2.1c-2-2.1-4.5-11.6-4.8-14.8    c-0.2,1.6-0.2,3.2,0,4.8c0.3,1.6,2,12.8,5,14c3,1.2,8,1.9,12.6,1.6c4.6-0.3,9-1.9,9.6-3.3C638.8,393,638.9,391.9,638.5,391z"></path>
		<path id="Path_2095" class="st17" d="M631.7,376c-0.8-0.7-1.7-1.1-2.8-1.3c-2.8-0.4-6.2,0.5-8.7,1.6c-1.4,0.6-2.8,1.2-4.1,2    c-0.6,0.3-0.2,2.5,0.5,2.3c2.2-0.8,4.6-1.3,6.9-1.4c-2.5,0.1-5,0.8-7.2,2.1c-0.4,0.2-0.1,1.5,0.3,1.4c2.4-0.9,4.9-1.4,7.4-1.6    c2.9-0.5,5.8-0.6,8.7-0.4c1.5,0.2,1-1-0.1-1.3c-0.6,0-1.2-0.3-1.6-0.8c0.1,0.2,1.3-0.5,1.4-0.7c0.2-0.4,0.2-0.9-0.1-1.3    C632.2,376.5,632,376.2,631.7,376z"></path>
		<path id="Path_2096" class="st8" d="M598,221.9c0,0,2.1,16.6,8.1,16.6c1.4-0.5,2.6-1.3,3.5-2.4c3.6-4.3,4.6-14.2,4.6-14.2    S608.3,218,598,221.9z"></path>
		<g id="Group_730" transform="translate(582.566 365.064)">
			<path id="Path_2097" class="st18" d="M4.9,2.4c3,0.9,6.2,1.2,9.3,0.9c1.3-0.2,2.7-0.5,3.9-1.1c1-0.5,1.7-1.6,2.7-2     c1.2-0.5,1.6,0.2,1.7,1.3c0.1,0.6-0.3,1.1-0.3,1.7c0,0.7,0.5,1.4,0.5,2.1c0,1.1-2.3,3.7-3.1,4.4c-2.8,1.9-6.2,2.7-9.6,2.2     c-3.4-0.5-8.2-1-8.9-5.1C0.9,5.5-1,1.8,0.7,1c0.8-0.4,1.2,0.2,1.9,0.5C3.3,1.9,4.1,2.2,4.9,2.4z"></path>
		</g>
		<g id="Group_731" transform="translate(611.077 365.064)">
			<path id="Path_2098" class="st18" d="M17.8,2.4c-3,0.9-6.2,1.2-9.3,0.9C7.2,3.1,5.8,2.8,4.6,2.2c-1-0.5-1.7-1.6-2.7-2     C0.7-0.4,0.3,0.4,0.2,1.5C0.2,2.1,0.5,2.6,0.5,3.2C0.5,3.9,0,4.5,0,5.3C0,6.4,2.3,9,3.1,9.6c2.8,1.9,6.2,2.7,9.6,2.2     c3.4-0.5,8.2-1,8.9-5.1c0.2-1.2,2-4.9,0.4-5.7c-0.8-0.4-1.2,0.2-1.9,0.5C19.3,1.9,18.6,2.2,17.8,2.4z"></path>
		</g>
		<g id="Group_732" transform="translate(667.983 62.991)">
			<path id="Path_2099" class="st15" d="M16.9,37.9C7.2,34.4,2,25.9,0.5,16.2c-0.6-3.6-2-19.6,6-15.5c5,2.5,3.5,12.9,6,16.9     c5.5-5.5,10.9,2,6.9,6.9C30.8,28.4,30.8,42.8,16.9,37.9z"></path>
		</g>
		<g id="Group_733" transform="translate(510.004 0)">
			<path id="Path_2100" class="st15" d="M138.6,36.1c-3.2-5.7-7.7-10.3-15.1-12.4c-12.6-3.7-24.9,2-24.1,16     c-2.3-8.3-4.8-16.8-9.6-24.1C65.8-21.4,6.3,14.7,38.2,50.1c-8.8-5.3-17.3-12.7-28.3-8C-0.1,46.5-1.5,58.2,1.3,67.9     c2.1,7.3,6,11.5,10.5,17.4c11.4,15,10,26,7.3,43.6c-1.1,7.3-3.2,19.3,3.9,24.2c6.2-12.6,0.6-26.5,6.9-39.4     c11.4-23.2,33.7-31.3,58-32.5c25.4-1.3,56.1-1.2,75.1,18.8c3.7,3.9,5.4,9,10.9,10.8c1.8,0.6-7.1-18.1-7.7-19.3     c-5-9.6-11.5-18.4-16.4-28C145.3,54.6,143.5,44.6,138.6,36.1z"></path>
		</g>
		<path id="Path_2101" class="st6" d="M597.7,222.7c0,0,0.9,11.4,8.6,15.9l-7.7-1l-4.2-4.9l2.2-2.1l-3.3-1.2l2-6.4l2.7-1.9    C598.1,221.7,598,222.2,597.7,222.7z"></path>
		<path id="Path_2102" class="st6" d="M614.6,222.7c0,0-0.9,11.4-8.6,15.9l9.3-2.8l2.4-5.4l-1.1-0.7l1.8-1l-1.1-4.8l-2.9-2.8    C614.2,221.7,614.3,222.2,614.6,222.7z"></path>
		<path id="Path_2103" class="st6" d="M604.2,237.1l1.7,1.5l2.8-2.3l-0.2,1.5l-2.6,2.4l-2.1-1.9L604.2,237.1z"></path>
		<g id="Group_734" transform="translate(619.822 275.493)">
			<path id="Path_2104" class="st8" d="M0.9,13.1c0.2-0.3,0.4-0.5,0.7-0.8c2.3-1.7,4.7-2.8,6.5-5.1c1.2-1.6,2.1-3.3,2.8-5.1     c0.6-1.6,1.2-3.1,2.9-1.3C14.6,1.8,14.3,3,14.8,4c0.7,1.3,2.4,1.7,3.5,2.6c3.1,2.5,1.9,7.3-0.5,9.8c-2.2,2.3-6,6.6-9.5,4.3     c-0.9,0.9-3.5,1.9-4.1,0.1c-2.2,0.2-4-2.2-2.3-3.9C-0.7,17.1-0.2,14.6,0.9,13.1z"></path>
		</g>
		<path id="Path_2105" class="st6" d="M656.2,260.9c0.5-1.7,0.3-3.5-0.5-5c-2.6-4.5-7.6-8.4-11.5-11.8c-4.9-4.2-9.6-8.5-14.8-12.4    c-3.6-2.7-6.7-5.6-11.4-5.7c-0.9,6.1,3.7,12.3,8,17.2c2.1,2.4,4.2,4.9,6.3,7.3c1.1,1.3,8.5,8,7.9,9.1c-2.4,4.4-16.1,19.7-17,23    c-0.9,3.3-0.6,1.9,2.2,2.7c4,1.2,12.1,4.2,14.1,7c1.1-3.4,10.6-17.6,12.4-21.9C653.2,267.2,655.4,264.2,656.2,260.9z"></path>
		<g id="Group_735" transform="translate(572.724 275.205)">
			<path id="Path_2106" class="st8" d="M19,14.3c-0.2-0.3-0.4-0.6-0.7-0.8c-2.1-2-4.3-3.3-5.9-5.8c-1-1.7-1.7-3.5-2.2-5.4     C9.8,0.6,9.4-1,7.5,0.7c-0.9,0.8-0.7,2-1.4,3C5.3,4.9,3.5,5.2,2.4,5.9C-1,8.1-0.3,13,1.8,15.7c1.9,2.5,5.2,7.2,9,5.4     c0.8,1,3.3,2.3,4,0.6c2.1,0.5,4.2-1.7,2.7-3.7C20.2,18.4,19.9,15.9,19,14.3z"></path>
		</g>
		<path id="Path_2107" class="st6" d="M557.4,262.6c-0.5-2.3,0-4.7,1.4-6.6c3.1-3.7,6.4-7.2,9.6-10.8c3.4-3.9,18.8-18.9,25.6-19.3    c1.2,6-3.2,12.4-7.3,17.5c-2,2.5-4.1,5-6.1,7.6c-1.1,1.4-8.2,8.3-7.6,9.4c2.6,4.2,14.5,19.6,15.6,22.8c1,3.2,0.6,1.9-2.1,2.8    c-3.9,1.4-9.6,4.2-11.5,7c0.5-0.7-9.8-14.1-10.8-15.4C562,274.3,558.2,268,557.4,262.6z"></path>
		<circle id="Ellipse_69" class="st4" cx="569.1" cy="160.2" r="1.8"></circle>
		<circle id="Ellipse_70" class="st4" cx="649.2" cy="160.4" r="1.8"></circle>
		<g id="Group_736" transform="translate(2.135 54.071)">
			<path id="Path_2108" class="st19" d="M151.9,171c1.7-2.7,3.1-5.6,3.9-8.7c5.4,3.6,4.1,11.1,4.3,16.7     c10.5-4.4,17.8-16.3,17.8-27.6c0-12.4-8.5-23.1-6.2-35.9c1.3-7.2,5.9-12.9,7.9-19.9c6.5-22.4-8.9-60.8-25.2-75.4     C125.8-5.5,92.6-3,56.5,7.3C27.7,15.5-12.3,48.4,3.6,84c8.6,19.4,7.9,25.8-0.8,44.9c-6,13.2-1.9,30.5,8,40.9     c2.2-4.4,7.2-7.7,11.5-9.9c-0.3,9.9,4.5,18.6,13.5,22.5c1.2-5.1,6.2-11.8,10.6-14.3c1.5,9.5,10.8,17.1,19.2,20.6     c1.4-5.5,6.9-11.1,11.2-14.5c8.7,7.2,9.2,17.9,19.6,7.9c3.2-3.1,4.2-7.4,8.5-5.7c3.1,1.2,5.6,9.3,5.6,12.3     c4.3-1.8,8.1-5.6,11.2-9c1.7-2,6.2-11.8,8.8-11.9c5.9-0.3,6.1,12.5,5.5,16.1C142,182.9,148,177.1,151.9,171z"></path>
		</g>
		<g id="Group_737" transform="translate(0 152.886)">
			<path id="Path_2109" class="st20" d="M2.2,5.4c6.5-9.6,17.2-4.9,22.5,2.9c3.9,5.9,5.7,18.6-2.7,21.6c-5.2,1.9-13-1.4-16.7-5.2     C0.4,19.6-2.1,11.7,2.2,5.4z"></path>
		</g>
		<g id="Group_738" transform="translate(156.074 155.802)">
			<path id="Path_2110" class="st20" d="M26.2,5.7c-6.1-9.8-17-5.5-22.5,2.1c-4.1,5.7-6.3,18.3,1.9,21.7c5.2,2.1,13-1,16.8-4.6     C27.5,20,30.3,12.2,26.2,5.7z"></path>
		</g>
		<path id="Path_2111" class="st21" d="M165.5,91c-8.5-17.2-31.7-20-48.8-21.9c-27.7-3.1-53.5-5.4-79.4,8.2    c-31,16.3-16.6,64.7-17.1,92.4c-0.5,25.6,19.5,34.1,36.1,37.9c16.6,3.7,27.6,6.4,26.6,12.4s-5.7,22.6,7.6,22.9h0.8    c13.3,0.2,9.7-16.8,7.8-22.9c-1.7-5.8,10.5-8,27.3-11.2c15.4-2.9,33.3-11.4,37.1-28.3c2.1-6.7,2.4-23.2,2.4-23.2    c1.1-19.3,7.9-46.1,0.5-64.4C166.1,92.2,165.8,91.6,165.5,91z"></path>
		<g id="Group_739" transform="translate(86.929 167.648)">
			<path id="Path_2112" class="st22" d="M9.6,4.8c-1,0.6-2.2,0.9-3.4,1c-1.3-0.1-2.5-0.4-3.6-1C1.1,4.1-0.8,3.2,0.4,1.2     c0.7-1.2,2.2-0.9,3.3-0.6c1.3,0.5,2.7,0.7,4,0.5C9,0.9,10.2,0.1,11.5,0c1.7-0.1,1.9,2.2,1,3.2c-0.7,0.9-1.9,1-2.8,1.5     C9.6,4.7,9.6,4.7,9.6,4.8z"></path>
		</g>
		<path id="Path_2113" class="st23" d="M61.5,174.7c1.4-5.9-4.7-12.3-13.5-14.3s-17,1.1-18.4,6.9c-1.4,5.9,4.7,12.3,13.5,14.3    C51.9,183.7,60.2,180.6,61.5,174.7z"></path>
		
			<ellipse id="Ellipse_71" transform="matrix(0.226 -0.9741 0.9741 0.226 -130.3458 178.7204)" class="st23" cx="47.3" cy="171.4" rx="8.1" ry="16.3"></ellipse>
		<path id="Path_2114" class="st23" d="M60.7,174.5c1.5-6.3-5-13.3-14.5-15.5c-9.5-2.2-18.4,1.2-19.8,7.5c-1.5,6.3,5,13.3,14.5,15.5    C50.3,184.2,59.2,180.8,60.7,174.5z"></path>
		<path id="Path_2115" class="st23" d="M65.2,175.6c1.4-5.9-6.2-12.7-17-15.2c-10.7-2.5-20.6,0.3-21.9,6.1    c-1.4,5.9,6.2,12.7,17,15.2C54.1,184.2,63.9,181.4,65.2,175.6z"></path>
		<path id="Path_2116" class="st23" d="M126.1,175.9c-1.2-5.9,5.1-12.1,14-13.9s17,1.7,18.1,7.6c1.2,5.9-5.1,12.1-14,13.9    C135.4,185.2,127.2,181.8,126.1,175.9z"></path>
		<path id="Path_2117" class="st23" d="M124.4,176.2c-0.9-4.4,5.6-9.4,14.5-11.1c8.9-1.7,16.7,0.4,17.6,4.8    c0.9,4.4-5.6,9.4-14.5,11.1C133.1,182.7,125.3,180.6,124.4,176.2z"></path>
		
			<ellipse id="Ellipse_72" transform="matrix(0.9816 -0.1911 0.1911 0.9816 -30.2741 30.7504)" class="st23" cx="144.3" cy="172.3" rx="17.6" ry="11.8"></ellipse>
		<path id="Path_2118" class="st23" d="M122.4,176.6c-1.2-5.9,6.7-12.4,17.5-14.5c10.8-2.1,20.5,1,21.7,6.9    c1.2,5.9-6.7,12.4-17.5,14.5S123.5,182.5,122.4,176.6z"></path>
		<g id="Group_740" transform="translate(45.783 153.189)">
			<path id="Path_2119" class="st24" d="M6.1,12.4C12.4,11.7,11,0.2,5,0C-3.2-0.3-0.2,13.1,6.1,12.4z"></path>
		</g>
		<g id="Group_741" transform="translate(127.207 154.671)">
			<path id="Path_2120" class="st24" d="M6.1,12.4C12.4,11.7,11.1,0.2,5,0C-3.2-0.3-0.2,13.1,6.1,12.4z"></path>
		</g>
		<g id="Group_743" transform="translate(73.399 178.046)">
			<g id="Group_742">
				<path id="Path_2121" class="st21" d="M0.1,0.9c5.3,4.4,11.2,9.6,18.5,9.6c6.9-0.2,13.4-2.9,18.5-7.6c0.6-0.5,0.1-2.8-0.7-2.1      c-5.7,5.7-13,8.6-21,6.9C9.7,6.4,5.4,2.6,0.2,0C-0.1-0.1,0,0.7,0.1,0.9z"></path>
			</g>
		</g>
		<g id="Group_745" transform="translate(44.678 119.035)">
			<g id="Group_744">
				<path id="Path_2122" class="st14" d="M15.6,4.3c-2.1-3.5-6.1-5.3-10-3.8c-3.7,1.4-6.6,5.9-5.2,9.9c0.2,0.6,0.7,1.5,1.5,1.1      C3,10.8,2.9,9.4,3.6,8.4c0.8-1.1,2-1.9,3.3-2.2c2.6-0.6,5.4-0.3,7.9,0.9C16,7.6,15.9,4.8,15.6,4.3L15.6,4.3z"></path>
			</g>
		</g>
		<g id="Group_747" transform="translate(125.148 120.439)">
			<g id="Group_746">
				<path id="Path_2123" class="st14" d="M1.1,6.8c2.6-1.1,5.5-1.3,8.1-0.5c1.3,0.4,2.4,1.2,3.1,2.4c0.6,1.1,0.5,2.2,1.6,3.1      c0.5,0.4,1-0.3,1.2-0.7c1.9-3.7-1.2-8.8-4.7-10.4C6.5-1,2.4,0.6,0.2,4.1C-0.2,4.8-0.1,7.3,1.1,6.8L1.1,6.8z"></path>
			</g>
		</g>
		<g id="Group_748" transform="translate(15.353 56.908)">
			<path id="Path_2124" class="st19" d="M23.4,65.8c-3.3-9.1-3-22.7,0.2-31.7c-0.1,7.7,2.2,19.3,7.7,25.4c5,5.2,9.4,1.9,16.2,0.7     c19.5-3.9,39.4-4.4,59.1-1.5c0.8-2.4,1.4-4.8,1.8-7.2c1.7,3.4,1.6,7.3,2.8,9.9c3-2.9,3.6-7.6,4-11.5c2.5,5.2,0.7,8.1,5.8,11.2     c3.4,1.8,8.1,1.4,11.9,3.2c2.7-5.5,5.3-11,6.3-17.4c2.4,8.6,7,16.4,9,25c2,9.5-5.1,23.4,2.5,30c8.4-14.4,9.3-40,6.1-56.3     C147.2-4.4,82.1-4.4,43.3,4.5C23.2,9,6.9,21,2,41.9c-2.2,9.4-1.8,19.3-1.6,28.8c0.3,9.2-2.5,20.2,3.3,28.3     c6.2-7.6,9.1-17.2,8.3-27C11.5,61.7,7.2,51.1,11.9,41c-0.7,1.5,1.7,12.4,2.3,14.1C15.8,59.5,19.6,63,23.4,65.8z"></path>
		</g>
		<g id="Group_750" transform="translate(158.842 129.638)">
			<g id="Group_749">
				<path id="Path_2125" class="st25" d="M5.7,16.7c1.8-1.8,4-3,6.5-3.6c2.3-0.6,5.6-0.8,7.1-2.7C21,8.3,21.8,2.9,19,1      c-1.7-1.2-2.7-1.1-4.6-0.7c-1.5,0.3-3,0.8-4.5,1.3c-3,1.2-5.7,2.7-8.2,4.7C-2.2,9.4,1.4,21,5.7,16.7L5.7,16.7z"></path>
			</g>
		</g>
		<g id="Group_752" transform="translate(9.044 129.586)">
			<g id="Group_751">
				<path id="Path_2126" class="st25" d="M18.9,6.3C16.4,4.4,13.8,3,11,1.8c-2.1-1-6.6-2.7-8.6-1.3c-3.2,2.2-2.8,7.3-0.6,10.1      c1.5,1.8,4.9,2,7.1,2.6c2.5,0.6,4.7,1.8,6.5,3.6c2,2.1,4.4-0.3,5.1-2.3C21.2,12.1,21.1,8,18.9,6.3L18.9,6.3z"></path>
			</g>
		</g>
		<g id="Group_753" transform="translate(68.118 305.936)">
			<path id="Path_2127" class="st21" d="M19.1,8.4C17.1,3,11.6-2.6,5.9,1.3c-7.3,5.1-5.9,24.1-5.5,32c0.3,6.2,1.5,12.6,2.4,18.8     C3.5,57,2.1,65.2,5,69.4c2.4,3.4,9,4.4,12.1,1.6c3.8-3.4,2.8-8.7,2.4-13.1c-0.7-8.4-1.5-17-0.9-26.1C19.1,24,21.8,16.3,19.1,8.4z     "></path>
		</g>
		<g id="Group_754" transform="translate(95.966 306.102)">
			<path id="Path_2128" class="st21" d="M1.8,32.7c-0.1-5.3-1.1-10.5-1.7-15.8c-0.7-4.8,0.9-9.6,4.3-13C7.2,1,12.7-1.6,16.6,1.1     c4.5,3.1,4.5,10.2,4.5,15.1c0,6.1,0.4,11.8,0.1,17.8c-0.4,7.6-1.6,14.8-2.1,22.4c-0.2,3.5,1.1,9.2-1,12.3     c-2.4,3.6-9.5,5.2-12.8,2.2c-2.9-2.6-2-6.5-2.2-10.1C2.6,51.6,2,41.9,1.8,32.7z"></path>
		</g>
		<g id="Group_755" transform="translate(57.653 284.905)">
			<path id="Path_2129" class="st25" d="M43.7,1.7c-10.9-0.5-22.1-2.8-33-1.1C9.9,3.2,0.1,36,0,36c19.1,9.1,41.2,7,60.9,3     c3.2-0.7,6.3-1.6,9.3-2.9c-1.2-11.8-8.2-22.6-10.9-34C54.2,2.1,48.9,1.9,43.7,1.7z"></path>
		</g>
		<g id="Group_756" transform="translate(58.86 222.082)">
			<path id="Path_2130" class="st6" d="M10,17.8C10.5,11.6,14.8-0.6,23.2,0c-0.5,4.2-0.5,2.2-0.2,5.8c0.5,7.2,5,6,12.1,5.8     c10.3-0.3,6.9-3.8,6.2-10.7c10.2-0.6,11.9,16.8,14,23.6c4.2,13.9,11.1,44.1,12.6,51.3c-4.8,3.3-21.3,4-26.8,4     c-10.8,0.2-37.2-3.1-41-2.5C2.9,64.8,9,29.4,10,17.8z"></path>
		</g>
		<path id="Path_2131" class="st26" d="M81.4,221.7c0,0-7.4,14.6,9.6,14.4c17-0.1,9.6-14.4,9.6-14.4S93.7,217.1,81.4,221.7z"></path>
		<g id="Group_757" transform="translate(107.532 234.579)">
			<path id="Path_2132" class="st21" d="M3.4,17.7c-2-3.7-5.5-12.3-1.8-16c6.8-6.8,11.2,8.9,13,12.8c3,6.3,7.4,13.3,7.5,20.5     c0.1,3-2.9,5.3-6.3,3.8c-5.1-2.1-6.5-6.5-8.5-11.3C6,24.4,5.1,20.7,3.4,17.7z"></path>
		</g>
		<g id="Group_758" transform="translate(63.115 254.907)">
			<path id="Path_2133" class="st21" d="M6.8,0.2c-2.5,0.5-4.6,2-6,5.1c-3.4,7.6,5,4.6,9.2,5.1c4.6,0.5,8.3,2.7,12.6,4.1     c5,1.6,25.1,5,29.8,5.5c3.7,0.5,18.4,0.1,12.8-7.5c-4.3-5.9-14-6.2-20.6-6.2c-5.5,0.1-11.1-0.3-16.5-1.2C22.1,4.2,13.2-1,6.8,0.2     z"></path>
		</g>
		<g id="Group_759" transform="translate(102.886 222.606)">
			<path id="Path_2134" class="st26" d="M7.6,30.8C-6.4-9.3,1.9-1,9.2,5.2c2.5,2.1,15.1,14.9,14.6,15C17,22.7,13.4,27.9,7.6,30.8z"></path>
		</g>
		<g id="Group_760" transform="translate(48.541 237.21)">
			<path id="Path_2135" class="st21" d="M20.2,17.5c2.4-3.5,7.2-11.3,4-15.3c-6-7.4-13.1,6.6-15.4,10.3c-3.6,6-7.8,11.9-8.7,19.1     c-0.4,3-0.3,7.5,4.1,6.1c5.3-1.7,8.1-6.9,10.6-11.5C16.4,23.2,18.3,20.3,20.2,17.5z"></path>
		</g>
		<g id="Group_761" transform="translate(63.114 254.899)">
			<path id="Path_2136" class="st21" d="M6.8,0.2c-2.5,0.5-4.6,2-6,5.1c-0.5,1-1.2,3.2-0.5,4.2c0.6,0.9,2,1,3,1c3,0.1,6,0,9-0.3     c2.1-0.1,5.3-0.5,6.9-1.9c1.5-1.3,1.3-3.5,0.2-5c-1.2-1.7-3.6-2.2-5.5-2.7C11.6,0,9.2-0.2,6.8,0.2z"></path>
		</g>
		<g id="Group_762" transform="translate(48.839 253.358)">
			<path id="Path_2137" class="st21" d="M58.6,0.1c2.8,0.4,5.2,2.1,6.4,4.7c3.9,7.4-4.7,5-8.9,5.7c-4.6,0.8-8.1,3.2-12.3,4.9     c-4.9,2-24.7,6.6-29.4,7.5c-3.7,0.7-18.6,1.1-13.3-6.6c4.1-6,13.6-7.1,20.1-7.5c5.5-0.3,11-1,16.4-2.2     C43.6,5.1,52.1-0.7,58.6,0.1z"></path>
		</g>
		<g id="Group_763" transform="translate(57.644 223.723)">
			<path id="Path_2138" class="st26" d="M13.7,28.5c15.6-36.3,4.8-29.8-1.4-24c-2.1,2-12.7,14-12.3,14.1     C5.7,20.9,8.8,25.9,13.7,28.5z"></path>
		</g>
		<g id="Group_764" transform="translate(69.25 365.493)">
			<path id="Path_2139" class="st4" d="M3,1.7C3.1,1.8,3.3,1.9,3.4,2c1.1,0.9,2.4,1.4,3.8,1.4c2.8,0.2,5.5-0.3,8-1.4     c1.3-0.6,5.4-4,4.7-0.3c-0.2,1.1-1,2.1-1.3,3.2c-0.3,1.2,0,1.7-1.2,2.5c-1.8,1.3-3.8,2.3-5.9,2.8C9,10.8,4.3,10.7,2.3,8.6     C1.1,7.3,1.7,5.5,1.5,4c-0.2-1-2.2-2.1-1.2-3.2C0.9,0.1,2.2,1.1,3,1.7z"></path>
		</g>
		<g id="Group_765" transform="translate(62.485 369.59)">
			<path id="Path_2140" class="st6" d="M25.7,0c-0.4,2.6-3.5,3.7-5.7,4.2C16.3,5.2,8.7,5.2,8.1,0C6.8,1.6,5.7,3.3,4.8,5.1     c-1.1,1.8-2.1,3.7-3,5.6c-1,2.2-2.1,4.1-1.8,6.6c0.1,1.1-0.1,2.7,0.6,3.7c0.8,0.8,1.8,1.4,3,1.6c4.5,1.2,9.1,1.5,13.7,0.8     c1.6-0.2,3.3-0.1,4.6-1.1c1.1-0.8,1.9-1.8,2.4-3c1.7-4,4.2-10.1,3-14.6C27,3.5,27,0.7,25.7,0z"></path>
		</g>
		<path id="Path_2141" class="st27" d="M62.7,388.8c0,0,1.3,2.6,9.7,2.7s11.6-0.6,13-2c2-2,4.5-11.1,4.8-14.1c0.2,1.5,0.2,3,0,4.5    c-0.3,1.5-2,12.2-5,13.4c-4.1,1.3-8.3,1.8-12.6,1.5c-4.6-0.3-9-1.8-9.6-3.1C62.4,390.8,62.3,389.8,62.7,388.8z"></path>
		<g id="Group_767" transform="translate(68.484 372.866)">
			<g id="Group_766">
				<path id="Path_2142" class="st28" d="M0.7,9.6c2.4-0.7,5-0.7,7.4-0.2c2.4,0.4,4.5,1.6,6.8,2c1.8,0.3,1.1-4.4,0.8-5.2      C13.5,1,5.5,1.6,0.9,2.8c0.1,1.5,0.3,3,0.4,4.6c3.3-1.6,12-3.5,14.5,0.2c0.8,1.1,1.5-0.5,1.7-1.1c0.4-1.4,0.2-2.8-0.6-4      C13.5-2.1,4.8,0.8,0.7,2.8C-0.4,3.3-0.1,7.7,1,7.4C5,6.3,12,6,14,10.5c0.3-1.7,0.5-3.4,0.8-5.2C9.7,5.1,5.2,4.1,0.5,6.8      C-0.2,7.1,0,9.8,0.7,9.6L0.7,9.6z"></path>
			</g>
		</g>
		<g id="Group_768" transform="translate(97.027 365.493)">
			<path id="Path_2143" class="st4" d="M17.1,1.7c-0.2,0.1-0.3,0.2-0.4,0.3c-1.1,0.9-2.4,1.4-3.8,1.4c-2.8,0.2-5.5-0.3-8-1.4     C3.5,1.4-0.6-2,0.1,1.7c0.2,1.1,1,2.1,1.3,3.2c0.3,1.2,0,1.7,1.2,2.5c1.8,1.3,3.8,2.3,5.9,2.8c2.6,0.5,7.3,0.4,9.3-1.7     C19,7.3,18.3,5.5,18.6,4c0.2-1,2.2-2.1,1.2-3.2C19.1,0.1,17.9,1.1,17.1,1.7z"></path>
		</g>
		<g id="Group_769" transform="translate(96.199 369.59)">
			<path id="Path_2144" class="st6" d="M1.9,0c0.4,2.6,3.5,3.7,5.7,4.2c3.7,1,11.4,0.9,11.9-4.2c1.3,1.6,2.4,3.3,3.3,5.1     c1.1,1.8,2.1,3.7,3,5.6c1,2.2,2.1,4.1,1.8,6.6c-0.1,1.1,0.1,2.7-0.6,3.7c-0.8,0.8-1.8,1.4-3,1.6c-4.5,1.2-9.1,1.5-13.7,0.8     c-1.6-0.2-3.3-0.1-4.6-1.1c-1.1-0.8-1.9-1.8-2.4-3c-1.7-4-4.2-10.1-3-14.6C0.7,3.5,0.6,0.7,1.9,0z"></path>
		</g>
		<path id="Path_2145" class="st27" d="M123.7,388.8c0,0-1.3,2.6-9.7,2.7s-11.6-0.6-13-2c-2-2-4.5-11.1-4.8-14.1    c-0.2,1.5-0.2,3,0,4.5c0.3,1.5,2,12.2,5,13.4c4.1,1.3,8.3,1.8,12.6,1.5c4.6-0.3,9-1.8,9.6-3.1C124,390.8,124.1,389.8,123.7,388.8z    "></path>
		<g id="Group_771" transform="translate(100.411 372.876)">
			<g id="Group_770">
				<path id="Path_2146" class="st28" d="M16.9,6.8C12.2,4.1,7.7,5.2,2.5,5.4c0.4,1.7,0.7,3.4,1.1,5.1c2-4.5,9.1-4.2,13-3.1      c1.2,0.3,1.2-4.1,0.2-4.6c-4.1-2-12.8-4.9-16.3-0.4c-1.1,1.4,0.2,6.9,1.4,5.1C4.3,3.7,13,5.7,16.3,7.3c0-1.5,0.1-3,0.2-4.6      C11.8,1.5,3.9,0.9,1.6,6.3c-0.4,0.8-0.7,5.4,1.1,5.1c2.1-0.3,4.1-1.5,6.3-1.9c2.5-0.6,5.2-0.6,7.7,0C17.6,9.8,17.6,7.1,16.9,6.8      L16.9,6.8z"></path>
			</g>
		</g>
		<path id="Path_2147" class="st21" d="M83,219.9c0,0-6.2,14,8.1,13.9c14.3-0.1,8.1-13.9,8.1-13.9S93.3,216,83,219.9z"></path>
		<circle id="Ellipse_73" class="st4" cx="51.8" cy="156.7" r="2"></circle>
		<circle id="Ellipse_74" class="st4" cx="133.3" cy="157.7" r="2"></circle>
		<path id="Path_2148" class="st29" d="M283.5,238.1c-0.3,0.3-0.7,0.6-1,0.9c4,6.9,9.8,12.4,14.9,18.6c3.7,4.4,10.2,9.4,5.2,15.1    c-5.9,6.7-12.4,12.9-19.3,18.6c-2,1.6-11.9,7-10.7,9.6c1,2.1,5.4,2.5,7.4,2.5c6.6-0.1,11-4.4,15.8-8.1    c6.9-5.4,12.9-11.7,19.4-17.5c9.8-9,5.5-14.7,1.8-21.5c-2.4-4.3-5.9-7.6-8.5-11.8c-2.7-4.3-5.1-9-8.8-12.6    c-2.7-2.6-2.9-1.7-6.1,0.2C290.2,234,286.5,235.5,283.5,238.1z"></path>
		<path id="Path_2149" class="st29" d="M249,228c-6.2,6.9-14.5,10.7-22.1,16c-6.9,4.8-8.7,10.1-15.3,5.4    c-7.5-5.5-14.5-11.6-21.1-18.2c-1.8-1.9-8.1-11.5-10.9-10c-2.2,1.1-2.6,5.5-2.5,7.6c0.3,6.6,5.2,10.7,9.4,15.3    c6.1,6.6,13.3,12.2,19.9,18.3c10.2,9.2,16.4,4.6,23.8,0.4c8.6-4.9,16.3-13.6,22.9-18.3C257.1,241.5,252,224.6,249,228L249,228z"></path>
		<g id="Group_772" transform="translate(226.616 223.944)">
			<path id="Path_2150" class="st30" d="M15.5,32c-1.7-0.2-3.3-3-4.5-4.1c-1.8-1.8-3.8-3.5-5.8-5c-1.3-0.9-4.2-1.3-5-2.8     c-1.8-4.3,7-9.7,9.6-12c5-4.4,12-9,19.1-7.9c5.2,0.8,3,4.7,1.2,8.2c-2.2,4.4-4.3,9.6-7.4,13.4C21.9,22.9,16.7,32.1,15.5,32z"></path>
		</g>
		<g id="Group_773" transform="translate(276.219 223.808)">
			<path id="Path_2151" class="st30" d="M17.7,28.8c3.2-2.9,7.5-5.3,10.9-7.5c0.7-0.5,2.6-1.8,2.9-2.5c1.1-3.1-5-8.6-7-10.4     c-5.1-4.7-14.3-9.6-21.4-8c-7.7,1.7,1.1,17.2,3.5,20.4c0.6,0.9,7.7,11.8,8.9,10.3C16.2,30.2,16.9,29.5,17.7,28.8z"></path>
		</g>
		<g id="Group_774" transform="translate(273.204 369.388)">
			<path id="Path_2152" class="st31" d="M1.9,0.3c0.4,2.6,3.5,3.6,5.7,4.1C11.3,5.3,18.9,5.2,19.5,0c1.3,1.6,2.4,3.3,3.4,5.1     c1.1,1.8,2.2,3.6,3.1,5.6c1.1,2.1,2.1,4.1,1.9,6.5c-0.1,1.1,0.1,2.7-0.5,3.7c-0.8,0.8-1.8,1.4-2.9,1.7c-4.4,1.3-9.1,1.6-13.7,1     c-1.6-0.2-3.3,0-4.7-1c-1.1-0.8-1.9-1.8-2.5-3C1.7,15.5-0.9,9.4,0.3,5C0.7,3.7,0.6,0.9,1.9,0.3z"></path>
		</g>
		<path id="Path_2153" class="st4" d="M279.2,391.6c1.5,3.2,5.4,2.5,8.2,2.3c3.7-0.2,7.7,0.5,11.2-1.3c4-2,0.7-6.6-2-8    c-3.7-1.6-7.9-1.7-11.6-0.3C282.4,385.4,277.6,388.3,279.2,391.6z"></path>
		<path id="Path_2154" class="st17" d="M300.9,389.2c0,0-1.3,2.8-9.7,3c-8.4,0.3-11.6-0.4-13-1.9c-2-2.1-4.6-11.6-5-14.8    c-0.1,1.6-0.1,3.2,0.1,4.8c0.3,1.6,2.2,12.7,5.2,14s8,1.8,12.6,1.4c4.6-0.4,9-2,9.6-3.4C301.2,391.3,301.3,390.2,300.9,389.2z"></path>
		<path id="Path_2155" class="st28" d="M293.9,374.3c-0.8-0.7-1.8-1.1-2.8-1.2c-3-0.2-6,0.4-8.7,1.7c-1.4,0.6-2.7,1.3-4,2    c-0.6,0.4-0.1,2.5,0.5,2.3c2.2-0.8,4.5-1.3,6.9-1.5c-2.5,0.1-5,0.9-7.2,2.2c-0.4,0.2,0,1.5,0.3,1.4c2.4-0.9,4.9-1.5,7.4-1.7    c2.9-0.5,5.8-0.7,8.7-0.5c1.5,0.1,0.9-1-0.1-1.3c-0.6,0-1.2-0.3-1.6-0.8c0.1,0.2,1.3-0.5,1.4-0.7c0.2-0.4,0.2-0.9-0.2-1.2    C294.4,374.8,294.1,374.6,293.9,374.3z"></path>
		<g id="Group_775" transform="translate(230.377 364.76)">
			<path id="Path_2156" class="st4" d="M38.5,12.4c0.1,0.2,0.1,0.3,0.1,0.5c1.8,7.9-8.4,9.7-13.9,10.2c-1.7,0.2-3.3,0.2-5,0.4     c-6.6,0.7-13.2,0.3-19.7-1.2c-0.5-0.1,2.5-5.7,2.8-6.2C4,14.4,5.6,12.9,7.5,12c3.1-1.3,8.2-1.4,9.4-5.3c2.5,1.9,5.4,0.6,7.7-1     C27,4,29,2.8,30.3,0c0.1-0.1,3,3.8,3.2,4.1c1,1.5,2.1,2.8,3.1,4.3C37.5,9.7,38.1,11,38.5,12.4z"></path>
		</g>
		<g id="Group_776" transform="translate(228.82 378.389)">
			<path id="Path_2157" class="st4" d="M11.2,9.8C7.5,9.6,3.7,9.1,0,8.3C0,8.2,0,8.1,0,8c0.1-4,2.4-6.4,5.4-8     C9.8,0.8,12.1,4.4,11.2,9.8z"></path>
		</g>
		<g id="Group_777" transform="translate(263.658 375.8)">
			<path id="Path_2158" class="st4" d="M5.2,0c0.1,0.6,0.1,1,0.2,1.4c0.5,2,0.7,4.2,0.5,6.3C4.2,8.4,2.3,9,0.5,9.6     C-1,5.9,0.9,1.7,4.6,0.2C4.8,0.1,5,0.1,5.2,0z"></path>
		</g>
		<g id="Group_778" transform="translate(234.276 370.067)">
			<path id="Path_2159" class="st31" d="M33.2,6.3c-0.5,0.3-1,0.7-1.4,1.2c-0.7,0.6-1.2,1.3-1.7,2.1c-0.9,1.8-0.9,3.9-0.2,5.8     c-7.5,2.3-15.6,4.4-23.9,4C6.9,14,4.3,9.1,0,8.3c0.9-0.5,1.9-1,2.9-1.4c3.4-1.4,7.7-2.3,9.9-5.5c2,1.8,7,1.8,9.4,2     c1.8,0.3,3.6,0.2,5.3-0.1C28.2,3.2,31.7,1,30.7,0c0.6,0.5,1.2,1,1.7,1.6c0.5,0.6,0.9,1.3,1.4,2c0.4,0.7,0.7,1.5,0.9,2.4     C34.1,5.9,33.6,6,33.2,6.3z"></path>
		</g>
		<g id="Group_779" transform="translate(228.82 383.468)">
			<path id="Path_2160" class="st27" d="M40.7,0c-0.2,1.1,0.1,3.8-0.9,4.5C32,9.3,20.3,10.1,11.9,9.6C10.9,9.6,0.1,9,0,7.1     C0,5.4,0.1,4.1,0,3c6.4,2.4,13.8,2.2,21,1.7C27.8,4.2,34.4,2.6,40.7,0z"></path>
		</g>
		<path id="Path_2161" class="st28" d="M244.8,373.3c1.5,1,2.9,2.4,3.1,3.7c0.1,0.8-0.4,1.3-1.5,1.5c-0.2,0-0.4,0-0.6,0    c-0.3,0.5-0.8,0.7-1.3,0.6c-1,0-1.9-0.6-2.4-1.5c0,0,0-0.1-0.1-0.1c0,0,0,0,0,0c-0.1-0.1-0.2-0.2-0.2-0.3l-0.1,0l-0.1-0.1    c-0.2-0.2-0.4-0.4-0.6-0.6l-0.1,0c0,0-0.1-0.1-0.1-0.1l-0.5-0.3c-1-0.6-1.2-1.6-0.7-2.1c0.5-0.4,1.3-0.5,1.9-0.3    C242.6,372.8,243.9,372.7,244.8,373.3z"></path>
		<g id="Group_780" transform="translate(241.183 284.663)">
			<path id="Path_2162" class="st32" d="M36.4,1.2c-9.4-0.9-19.1-2.1-27.4,0c-9.7,2.4-8.5,9-8.6,17.6C0.2,32.9-0.8,46.3,1.5,60.3     c0.9,5.3,2.6,11.2,1.8,16.6c-0.2,1.2-1.1,2.2-1.1,3.4c0.1,1.8,1.3,4.1,1.6,6c0.5,3.2,0.5,3.2,3.8,3.9c9,1.9,20.2,1,17.6-10.8     c-2.7-12.4-5.5-30.3-0.7-42.6c1.2-3.2,1.4-1,4.4-2.4C27.6,35,31.7,48.1,32,49.5c1.4,7,0.4,15.4,0.3,22.5c0,1.4-0.1,10.6,1.4,11.2     c-1-0.4-0.2,5.1,0.4,5.8c1,1.1,3.1,1.8,4.6,2.1c4.1,1.1,8.4,0.4,11.9-1.9c3.8-2.5,2.8-4.7,3.2-8.8c0.6-5.7-1.2-11.4-0.4-17     c0.7-4.9,1-9.8,0.9-14.7c0-3.6-0.6-47.1-3.6-47C45.8,1.9,41.1,1.7,36.4,1.2z"></path>
		</g>
		<g id="Group_781" transform="translate(174.439 154.669)">
			<path id="Path_2163" class="st33" d="M2.1,5.5c6.3-9.7,17.1-5.2,22.5,2.6c4,5.8,5.9,18.5-2.4,21.7c-5.2,2-13-1.3-16.7-5     C0.5,19.8-2.1,11.9,2.1,5.5z"></path>
		</g>
		<g id="Group_782" transform="translate(330.632 155.444)">
			<path id="Path_2164" class="st33" d="M26,5.6C19.8-4.1,9,0.3,3.5,8c-4.1,5.8-6.1,18.4,2.2,21.7c5.2,2,13-1.1,16.8-4.8     C27.5,19.8,30.2,12,26,5.6z"></path>
		</g>
		<g id="Group_783" transform="translate(191.18 67.48)">
			<path id="Path_2165" class="st29" d="M147.8,23.2c-8.7-17.1-32-19.6-49-21.3c-27.7-2.7-53.6-4.7-79.3,9.2     C-11.4,27.8,3.7,76.1,3.6,103.8c-0.1,25.7,19.9,33.9,36.6,37.4c16.7,3.5,27.7,6.1,26.8,12.1s-5.4,22.7,7.8,22.8h0.8     c13.3,0.1,9.5-16.9,7.5-23c-1.8-5.8,10.4-8.2,27.1-11.5c15.4-3.1,33.1-11.8,36.7-28.8c2-6.7,2.1-23.2,2.1-23.2     c0.9-19.3,7.3-46.2-0.4-64.4C148.4,24.5,148.1,23.8,147.8,23.2z"></path>
		</g>
		<g id="Group_785" transform="translate(252.332 182.848)">
			<g id="Group_784">
				<path id="Path_2166" class="st34" d="M14.6,14.2c-2.8,0.1-5.6-0.5-8.1-1.8c-3-1.6-8-5.9-6-9.8C2-0.6,5.7,1.7,8,2.7      c3.7,1.6,7.1,2.4,11,0.6c2.9-1.3,7.1-5.4,10.1-2c3.9,4.3-5,10.3-8.2,11.6C18.9,13.7,16.7,14.1,14.6,14.2z"></path>
			</g>
		</g>
		<g id="Group_787" transform="translate(255.923 188.479)">
			<g id="Group_786">
				<path id="Path_2167" class="st35" d="M0,4.7c0.9,0.8,1.8,1.4,2.9,2C5.4,8,8.2,8.6,11,8.5c2.2-0.1,4.3-0.5,6.3-1.3      c1.5-0.7,2.9-1.5,4.2-2.5c-5.4-6-14.6-6.4-20.6-1C0.6,4.1,0.3,4.4,0,4.7z"></path>
			</g>
		</g>
		<g id="Group_788" transform="translate(253.768 182.87)">
			<path id="Path_2168" class="st4" d="M1.5,7.1c2.8,1,7.6,1.1,14.9,0.9c7.2-0.3,9.4-0.4,9.7-2.3c0-1.9-0.1-3.7-0.5-5.6     c-2.7-0.4-5.7,2.3-7.9,3.3c-3.9,1.8-7.3,0.9-11-0.6C4.7,1.9,2,0.3,0.2,1.2C-0.1,3.5-0.2,6.5,1.5,7.1z"></path>
		</g>
		<g id="Group_789" transform="translate(261.406 168.25)">
			<path id="Path_2169" class="st36" d="M9.6,4.8c-1,0.6-2.2,0.9-3.4,1C5,5.8,3.7,5.4,2.6,4.9C1.1,4.3-0.8,3.3,0.4,1.4     c0.7-1.2,2.2-0.9,3.3-0.6c1.3,0.5,2.7,0.6,4,0.5C8.9,1,10.2,0.1,11.4,0c1.7-0.1,1.9,2.1,1.1,3.1C11.8,4,10.6,4.2,9.6,4.8     C9.7,4.7,9.7,4.8,9.6,4.8z"></path>
		</g>
		<path id="Path_2170" class="st37" d="M236.1,175.8c1.3-5.9-4.8-12.2-13.6-14.2c-8.8-1.9-17,1.3-18.3,7.2    c-1.3,5.9,4.8,12.2,13.6,14.2C226.6,184.9,234.8,181.7,236.1,175.8z"></path>
		<path id="Path_2171" class="st37" d="M237.8,176.2c1-4.4-5.4-9.5-14.2-11.4c-8.8-1.9-16.7,0.1-17.7,4.4c-1,4.4,5.4,9.5,14.2,11.4    C228.9,182.5,236.8,180.5,237.8,176.2z"></path>
		
			<ellipse id="Ellipse_75" transform="matrix(0.2133 -0.977 0.977 0.2133 3.6043 348.1799)" class="st37" cx="218" cy="171.9" rx="11.8" ry="17.6"></ellipse>
		<path id="Path_2172" class="st37" d="M239.8,176.6c1.3-5.9-6.4-12.6-17.2-14.9c-10.8-2.4-20.6,0.5-21.8,6.4    c-1.3,5.9,6.4,12.6,17.2,14.9C228.7,185.4,238.5,182.5,239.8,176.6z"></path>
		<path id="Path_2173" class="st37" d="M300.6,176.1c-1.2-5.9,4.9-12.2,13.8-14c8.8-1.8,17,1.5,18.2,7.4s-4.9,12.2-13.8,14    C310.1,185.3,301.9,182,300.6,176.1z"></path>
		<path id="Path_2174" class="st37" d="M299,176.5c-0.9-4.4,5.5-9.4,14.4-11.3c8.8-1.8,16.7,0.2,17.6,4.6c0.9,4.4-5.5,9.4-14.4,11.3    S299.9,180.8,299,176.5z"></path>
		<path id="Path_2175" class="st37" d="M301.5,175.9c-1.3-6.4,5.3-13.1,14.9-15.1c9.5-2,18.3,1.6,19.7,7.9    c1.3,6.4-5.3,13.1-14.9,15.1C311.7,185.9,302.9,182.3,301.5,175.9z"></path>
		<path id="Path_2176" class="st37" d="M297,176.9c-1.2-5.9,6.5-12.5,17.3-14.8c10.8-2.3,20.5,0.7,21.8,6.6s-6.5,12.5-17.3,14.8    C307.9,185.8,298.2,182.8,297,176.9z"></path>
		<g id="Group_790" transform="translate(220.276 154.309)">
			<path id="Path_2177" class="st11" d="M3.1,12.3c6,2.2,9.9-8.7,4.5-11.6C0.4-3.2-2.9,10.1,3.1,12.3z"></path>
		</g>
		<g id="Group_791" transform="translate(301.561 154.826)">
			<path id="Path_2178" class="st11" d="M6.2,12.4C12.5,11.6,11,0.1,4.9,0C-3.2-0.1-0.1,13.2,6.2,12.4z"></path>
		</g>
		<g id="Group_792" transform="translate(215.796 122.685)">
			<path id="Path_2179" class="st38" d="M15.3,5.1C15.1-5.3,2,2.5,0,8C1,7.5,15.3,3,15.3,5.1z"></path>
		</g>
		<g id="Group_793" transform="translate(298.936 122.704)">
			<path id="Path_2180" class="st38" d="M0.6,6.7C-3.1-3,12-0.5,15.9,3.9C14.7,3.8-0.2,4.8,0.6,6.7z"></path>
		</g>
		<g id="Group_794" transform="translate(181.785 50.872)">
			<path id="Path_2181" class="st15" d="M19.3,71.6c8,3.2,12.8-8,6.9-12.8c3.5-2.1,4.2-6.6,1.8-9.1c4.9,1.3,10.5,2.1,12.8-3.5     c-0.5,7.6,11.1,8.1,15.3,3.9c-2.3,8.4,8.3,11.5,12.4,4.8c2,5.9,9.2,7,13.5,2.8c0.9,4.3,7.3,5.4,9.6,1.5c0,8.2,13.2,8.3,14.4,0.1     c0-0.4-0.1-0.4,0,0c2.7,7,14.2,4.9,14.5-1.9c1.2,4.4,9.2,8,10.9,2.1c0-0.4,0-0.4,0,0c0.5,5.2,6.3,6.2,10.3,3.9     c-3.7,4.6,1.9,9.8,4.2,4.4c0-0.4,0-0.4,0,0c0.4,2.8,1.7,4.8,4.5,5.6c-3.3,2.5-3.6,7.4,0.5,9.3c-5,3.1-1.6,9.5,2.5,6     c-3.1,2.8-1.3,6.4,2.4,7.3c-4.1,1.5-5.9,8.5-0.2,9.5c0.2,1.4,0.5,2.8,1,4.2c4-1.4,14.1-10.3,8.7-14.7c4.3-2.4,6.7-9.3,2.3-12.6     c3.6-3.3,6.9-10.6,1.2-13.4c2-4,3.8-10.5-2-11.9c2.3-4.2,3.2-11.3-2.3-12.9c4.3-4.6,2.8-12.8-4.6-12.3c3.5-0.3-9.6-11.1-9.3-10.9     c-5.2-4.1-8.4-9.6-16.2-7.1c-1.1-5.2-8.4-9.8-12.6-5.4c-2.2-4.8-8-7-12.3-3.7c-2.2-3.8-7.1-5-10.9-2.8C98,2,97.6,2.2,97.2,2.6     c-3.7-3.2-12.6-4-14.8,1.3c0.2-0.4-13.4-5-15.1,2.1C63,2.5,53.1,1.9,54,9.7c-4.8-2-15.5-3.4-14.1,4.7c0.3,0.2,0.4,0.2,0.2,0     c-5.6-2.7-12.3-1.8-12.4,5.7c0.3,0.1,0.4,0,0.3-0.3c-4.8-0.7-11.2,0.4-11,6c-5.7-0.1-15.6,8.2-9.3,13.5c-4.6,0.9-6.6,6.9-2.3,9.4     c-4.9,1.6-7.4,9.8-1.3,11C1.9,63.9-3,70.2,3.7,73.3c-4,3.3-6,10.2,0.6,11.5c-2.5,3.3-2.7,8.1,1.6,9.4c-6.1-1.9,3.1,9.7,2.7,9.1     c1.7,2.3,3.2,6.1,4.9,8.3c6.3,7.9,6.3-1.6,2.4-7.8c4.9-2.7,7.3-10.5,0.8-13.2c2.9-1.9,3.2-5.3,0.4-7.5     C22.7,82.4,24.5,74.2,19.3,71.6z"></path>
		</g>
		<g id="Group_795" transform="translate(239.356 220.523)">
			<path id="Path_2182" class="st25" d="M37.2,2.3c4.1,4.1,5.7,9.7,7.5,15.2c4.1,12.4,6.3,25.3,7.9,38.2C54,66.9,56.8,77.9,57.9,89     c-14,11.1-41.3,3-57.7,2.7c-0.8-17.5,1.5-35.9,3.5-53.3c1.3-11.1,4-21.9,9.6-31.7C14,5.3,14.9,4,15.8,2.8c0.6-0.7,2.1-2.6,3-2.7     c-1,4.3-0.4,8.5,4.6,9.6c3.8,0.9,10.3,0,11.9-4.2C35.8,3.7,35.7,1.7,35,0C35.8,0.7,36.5,1.5,37.2,2.3z"></path>
		</g>
		<path id="Path_2183" class="st30" d="M258.2,220.4c0,0-1.4,5.6,1.6,7.7c3,2.1,12.9,1.3,14-1.5c0.6-2,0.8-4.1,0.6-6.1l1,1    c0,0,1.9,8.1-1.3,9.8c-3.2,1.7-10,2.4-14,1c-4-1.4-5.2-8.7-3.1-10.9L258.2,220.4z"></path>
		<g id="Group_796" transform="translate(158.22 208.724)">
			<path id="Path_2184" class="st29" d="M34.8,8.3c1.1-2.4,2-5-1.1-5.6c-5.2-1-5.3,9.4-8.5,7.9c-4-1.8-9.6-14.5-14.8-9.6     C6.6,4.8,17,12.6,18.8,14.8c-3.2-1.7-12.3-12-16.4-6.1c-2.8,3.9,8.4,8.6,12.7,11.9C12.2,20.6,0.2,13.3,0,19.9     c-0.1,2.8,2.3,4.3,4.7,4.9c2.8,0.7,5.7,0.7,8.5,1.5l0,0c-2.6,0.6-7.9,0.1-9.1,3.2c-0.5,1.5,0.1,3.1,1.5,3.9     c1.5,0.8,3.3,0,4.9-0.4c1.9-0.5,3.9-0.5,5.8-0.1c1.8,0.5,3.3,1.6,5.1,1.9c2.5,0.5,5-0.1,7-1.6c3.1-2.3,7.4-5,8.1-9     c0.8-4.2-2.8-8-2.9-12.3C33.8,10.7,34.2,9.5,34.8,8.3z"></path>
		</g>
		<g id="Group_797" transform="translate(277.146 279.824)">
			<path id="Path_2185" class="st29" d="M20.6,15.3c0.3-0.4,0.5-0.8,0.6-1.2c1.2-4.2-3.5-11.6-7.2-13.4c-4.3-2-6.9,0.3-10.4,2.9     C2.2,4.6-0.4,6,0,8.1C0.5,10.2,2.8,9.7,4,8.4c-1,1.1-2.5,1.7-2.5,3.3c-0.1,1.4,1,2.6,2.4,2.6c0.2,0,0.3,0,0.5,0     c-2,2.9,1.9,2.8,3.4,2.9C7,18.5,8,19.5,9.2,19.4c2.1-0.1,3.9-3.3,6.4-3.6C17.5,15.5,19.5,16.8,20.6,15.3z"></path>
		</g>
		<circle id="Ellipse_76" class="st4" cx="227.3" cy="158.6" r="1.9"></circle>
		<circle id="Ellipse_77" class="st4" cx="307.9" cy="158.6" r="1.9"></circle>
		<g id="Group_798" transform="translate(348.059 53.759)">
			<path id="Path_2186" class="st39" d="M179.5,164.5c-2.5-10.6-5.3-21.3-8.6-31.7c-2.9-9-1.5-14.8,0-24.2c3.7-21.7,2.1-44-6-64.5     c-7.4-18.9-12.8-26.2-31.4-35.3c-41-20.2-111-5.1-128.5,40.6C-2.7,69.8,4.8,91.7,7,112.5c2.2,20.3,1.4,41.9-3.6,61.8     c-3.9,15.8-7.8,33.1,8.6,43.4c7,4.4,14.1,6.6,21.2,0.9c5.4,15.1,23,5.2,30.2-3c5.1,4.7,11.5,10.9,18.6,11.8c8.1,1,12.1-6,17.7-6     c5.7,0,9.5,6.4,16.8,5.4c5.8-0.9,12.6-7.7,16.9-11.2c8.9,11.3,24.4,4.8,31-5.2C188,215.3,185.7,190.3,179.5,164.5z"></path>
		</g>
		<g id="Group_799" transform="translate(470.091 175.594)">
			<path id="Path_2187" class="st40" d="M41.9,79.9c9.9-6.5-0.5-18.4-1-26.3C34.5,65,28.5,75.9,35,88.8C20.6,86.3,18.6,66,18.1,54.1     c-5.5,4-9.9,15.4-5.5,22.4C4.2,66-1.2,58.1,0.2,43.7C1.7,30.8,4.7,19.8,4.7,6.4c9.4,13.4,16.4,23.8,21.3,39.7     c6-15.9-1-30.3,0.5-46.2C31,5.5,35,13.9,37,21.3c0-6.5,0-13.4,1-19.4C37.3,5.7,69.3,91.5,41.9,79.9z"></path>
		</g>
		<g id="Group_800" transform="translate(358.603 179.567)">
			<path id="Path_2188" class="st40" d="M13.9,80.9C-0.5,83.4,0.2,62.4,1.7,53.6C4.8,35.2,15.9,19.1,15.9,0c1,12.9,5,26.3,5.5,39.7     c7.4,0.5,9.9-9.4,13.9-14.4c1.5,12.9-15.9,59.6,10.4,60.1c-9.4,19.9-26.8-14.9-28.3-22.8c-4.5,4-5,12.9-1,17.9     C7.9,82.9,0.5,74.5,0,66.5"></path>
		</g>
		<g id="Group_801" transform="translate(342.811 153.565)">
			<path id="Path_2189" class="st41" d="M2.2,5.4c6.5-9.6,17.2-4.9,22.5,2.9c3.9,5.9,5.7,18.6-2.7,21.6c-5.2,1.9-13-1.4-16.7-5.2     C0.4,19.6-2.1,11.7,2.2,5.4z"></path>
		</g>
		<g id="Group_802" transform="translate(498.885 156.455)">
			<path id="Path_2190" class="st41" d="M26.2,5.7c-6.1-9.8-17-5.5-22.5,2.1c-4.1,5.7-6.3,18.3,1.9,21.7c5.2,2.1,13-1,16.8-4.6     C27.5,20,30.3,12.2,26.2,5.7z"></path>
		</g>
		<path id="Path_2191" class="st42" d="M508.3,91.6c-8.5-17.2-31.7-20-48.8-21.9c-27.7-3.1-53.5-5.4-79.4,8.2    c-31,16.3-16.6,64.7-17.1,92.4c-0.5,25.6,19.5,34.1,36.1,37.9c16.6,3.7,27.6,6.4,26.6,12.4c-1,6-5.7,22.6,7.5,22.9h0.8    c13.3,0.2,9.7-16.8,7.8-22.9c-1.7-5.8,10.5-8,27.3-11.2c15.4-2.9,33.3-11.4,37.1-28.3c2.1-6.7,2.4-23.2,2.4-23.2    c1.1-19.3,7.9-46.1,0.5-64.4C508.9,92.9,508.6,92.2,508.3,91.6z"></path>
		<g id="Group_803" transform="translate(428.231 169.181)">
			<path id="Path_2192" class="st43" d="M9.6,4.8c-1,0.6-2.2,0.9-3.4,1c-1.3-0.1-2.5-0.4-3.6-1C1.1,4.1-0.8,3.2,0.4,1.2     c0.7-1.2,2.2-0.9,3.3-0.6c1.3,0.5,2.7,0.7,4,0.5C9,0.9,10.2,0.1,11.5,0c1.7-0.1,1.9,2.2,1,3.2c-0.7,0.9-1.9,1-2.8,1.5     C9.6,4.7,9.6,4.7,9.6,4.8z"></path>
		</g>
		<path id="Path_2193" class="st44" d="M404.4,175.4c1.4-5.9-4.7-12.3-13.5-14.3c-8.8-2-17,1.1-18.4,6.9    c-1.4,5.9,4.7,12.3,13.5,14.3C394.8,184.3,403,181.3,404.4,175.4z"></path>
		
			<ellipse id="Ellipse_78" transform="matrix(0.226 -0.9741 0.9741 0.226 134.3312 513.1548)" class="st44" cx="390.1" cy="172" rx="8.1" ry="16.3"></ellipse>
		<path id="Path_2194" class="st44" d="M403.5,175.2c1.5-6.3-5-13.3-14.5-15.5c-9.5-2.2-18.4,1.2-19.8,7.5    c-1.5,6.3,5,13.3,14.5,15.5S402,181.5,403.5,175.2z"></path>
		<path id="Path_2195" class="st44" d="M408,176.2c1.4-5.9-6.2-12.7-17-15.2c-10.7-2.5-20.6,0.3-21.9,6.1c-1.4,5.9,6.2,12.7,17,15.2    C396.9,184.8,406.7,182.1,408,176.2z"></path>
		<path id="Path_2196" class="st44" d="M468.9,176.5c-1.2-5.9,5.1-12.1,14-13.9c8.9-1.7,17,1.7,18.1,7.6c1.2,5.9-5.1,12.1-14,13.9    C478.2,185.9,470.1,182.4,468.9,176.5z"></path>
		<path id="Path_2197" class="st44" d="M467.2,176.9c-0.9-4.4,5.6-9.4,14.5-11.1c8.9-1.7,16.7,0.4,17.6,4.8    c0.9,4.4-5.6,9.4-14.5,11.1C475.9,183.4,468.1,181.3,467.2,176.9z"></path>
		<path id="Path_2198" class="st44" d="M469.8,176.3c-1.2-6.4,5.5-13.1,15.1-14.9c9.6-1.9,18.3,1.8,19.6,8.2    c1.2,6.4-5.5,13.1-15.1,14.9C479.8,186.4,471,182.7,469.8,176.3z"></path>
		<path id="Path_2199" class="st44" d="M465.2,177.3c-1.2-5.9,6.7-12.4,17.5-14.5s20.5,1,21.7,6.9c1.2,5.9-6.7,12.4-17.5,14.5    C476,186.3,466.3,183.2,465.2,177.3z"></path>
		<g id="Group_804" transform="translate(388.78 153.728)">
			<path id="Path_2200" d="M3.9,12.5c6.3,1.3,8.5-10.1,2.8-12.1C-0.9-2.4-2.3,11.2,3.9,12.5z"></path>
		</g>
		<g id="Group_805" transform="translate(470.173 155.211)">
			<path id="Path_2201" d="M4.7,12.6c6.4,0.6,7.2-11,1.3-12.4C-1.9-1.7-1.6,12,4.7,12.6z"></path>
		</g>
		<g id="Group_807" transform="translate(414.809 175.672)">
			<g id="Group_806">
				<path id="Path_2202" class="st42" d="M0,0.7c4.4,13.7,22,13.2,32.9,8.5c0.7-0.3,0.5-2.7-0.4-2.3c-6.8,3.2-12.3,4.7-19.7,2.4      C7.6,7.7,3,5.1,0.3,0.1C0.1-0.3,0,0.5,0,0.7L0,0.7z"></path>
			</g>
		</g>
		<g id="Group_808" transform="translate(352.408 57.536)">
			<path id="Path_2203" class="st39" d="M32.9,74.4c20.8-9.3,42.3-5.8,64.4-11.9c14.5-4,27.7-5.3,34.5-21.2     c-4.6,10.8,5.3,24.2,10.7,32.5c8.3,12.6,7.4,20.8,10.1,34.9c0.7-1.5,2.2-3.2,2.9-4.9c-0.2,1.8,0,3.9-0.3,5.7     c6.7-22.6,11.8-40,7.3-63.9C152.9-4.4,87.9-4.4,49.1,4.5C9.3,13.5-12.1,60.3,7.2,96.4c5.7-5.7,10.1-13,17.6-17.7     C27.3,77.1,30.1,75.6,32.9,74.4z"></path>
		</g>
		<path id="Path_2204" class="st39" d="M401.8,133.3c-2.1-2.8-5.8-4-9.1-2.9c-3.2,1-5.3,4-5.3,7.3c0,0.5,0.6,2,1.1,0.9    c1.3-2.8,2.2-4.7,5.5-5.4c2.6-0.5,5.3,0.1,7.4,1.7C402.1,135.2,402,133.5,401.8,133.3L401.8,133.3z"></path>
		<path id="Path_2205" class="st39" d="M468.1,136c2.1-1.3,4.6-1.9,7-1.5c3.3,0.4,4.6,2.7,5.7,5.5c0.4,1,1.1,0.6,1.2-0.4    c0.8-7.9-9.6-10.8-14.3-5.2C467.5,134.8,467.5,136.4,468.1,136L468.1,136z"></path>
		<g id="Group_809" transform="translate(410.929 306.589)">
			<path id="Path_2206" class="st42" d="M19.1,8.4C17.1,3,11.6-2.6,5.9,1.3c-7.3,5.1-5.9,24.1-5.5,32c0.3,6.2,1.5,12.6,2.4,18.8     C3.5,57,2.1,65.2,5,69.4c2.4,3.4,9,4.4,12.1,1.6c3.8-3.4,2.8-8.7,2.4-13.1c-0.7-8.4-1.5-17-0.9-26.1     C19.1,24.1,21.8,16.3,19.1,8.4z"></path>
		</g>
		<g id="Group_810" transform="translate(438.777 306.756)">
			<path id="Path_2207" class="st42" d="M1.8,32.7c-0.1-5.3-1.1-10.5-1.7-15.8c-0.7-4.8,0.9-9.6,4.3-13C7.2,1,12.7-1.6,16.6,1.1     c4.5,3.1,4.5,10.2,4.4,15.1C21,22.3,21.5,28,21.2,34c-0.4,7.6-1.6,14.8-2.1,22.4c-0.2,3.5,1.1,9.2-1,12.3     c-2.4,3.6-9.5,5.2-12.8,2.2c-2.9-2.6-2-6.5-2.2-10.1C2.6,51.6,2,41.9,1.8,32.7z"></path>
		</g>
		<g id="Group_811" transform="translate(412.06 366.172)">
			<path id="Path_2208" class="st4" d="M3,1.7C3.1,1.8,3.3,1.9,3.4,2c1.1,0.9,2.4,1.4,3.8,1.4c2.8,0.2,5.5-0.3,8-1.4     c1.3-0.6,5.4-4,4.7-0.3c-0.2,1.1-1,2.1-1.3,3.2c-0.3,1.2,0.1,1.7-1.2,2.5c-1.8,1.3-3.8,2.3-5.9,2.8C9,10.8,4.3,10.7,2.3,8.6     C1.1,7.3,1.7,5.5,1.5,4c-0.2-1-2.2-2.1-1.2-3.2C0.9,0.1,2.2,1.1,3,1.7z"></path>
		</g>
		<g id="Group_812" transform="translate(405.296 370.092)">
			<path id="Path_2209" class="st15" d="M25.7,0c-0.4,2.6-3.5,3.7-5.7,4.2C16.3,5.2,8.7,5.2,8.1,0C6.8,1.6,5.7,3.3,4.8,5.1     c-1.1,1.8-2.1,3.7-3,5.6c-1,2.2-2.1,4.1-1.8,6.6c0.1,1.1-0.1,2.7,0.6,3.7c0.8,0.8,1.8,1.4,3,1.6c4.5,1.2,9.1,1.5,13.7,0.8     c1.6-0.2,3.3-0.1,4.6-1.1c1.1-0.8,1.9-1.8,2.4-3c1.7-4,4.2-10.1,3-14.6C27,3.5,27,0.7,25.7,0z"></path>
		</g>
		<path id="Path_2210" class="st17" d="M405.5,389.5c0,0,1.3,2.6,9.7,2.7s11.6-0.6,13-2c2-2,4.5-11.1,4.8-14.1c0.2,1.5,0.2,3,0,4.5    c-0.3,1.5-2,12.2-5,13.4c-4.1,1.3-8.3,1.8-12.6,1.5c-4.6-0.3-9-1.8-9.6-3.1C405.2,391.5,405.1,390.4,405.5,389.5z"></path>
		<g id="Group_813" transform="translate(439.837 366.172)">
			<path id="Path_2211" class="st4" d="M17.1,1.7c-0.2,0.1-0.3,0.2-0.4,0.3c-1.1,0.9-2.4,1.4-3.8,1.4c-2.8,0.2-5.5-0.3-8-1.4     C3.5,1.4-0.6-2,0.1,1.7c0.2,1.1,1,2.1,1.3,3.2c0.3,1.2-0.1,1.7,1.2,2.5c1.8,1.3,3.8,2.3,5.9,2.8c2.6,0.5,7.3,0.4,9.3-1.7     C19,7.3,18.3,5.5,18.6,4c0.2-1,2.2-2.1,1.2-3.2C19.1,0.1,17.8,1.1,17.1,1.7z"></path>
		</g>
		<g id="Group_814" transform="translate(439.01 370.268)">
			<path id="Path_2212" class="st15" d="M1.9,0c0.4,2.6,3.5,3.7,5.7,4.2c3.7,1,11.4,0.9,11.9-4.2c1.3,1.6,2.4,3.3,3.3,5.1     c1.1,1.8,2.1,3.7,3,5.6c1,2.2,2.1,4.1,1.8,6.6c-0.1,1.1,0.1,2.7-0.6,3.7c-0.8,0.8-1.8,1.4-3,1.6c-4.5,1.2-9.1,1.5-13.7,0.8     c-1.6-0.2-3.3-0.1-4.6-1.1c-1.1-0.8-1.9-1.8-2.4-3c-1.7-4-4.2-10.1-3-14.6C0.7,3.4,0.6,0.7,1.9,0z"></path>
		</g>
		<path id="Path_2213" class="st17" d="M466.5,389.5c0,0-1.3,2.6-9.7,2.7c-8.4,0.1-11.6-0.6-13-2c-2-2-4.5-11.1-4.8-14.1    c-0.2,1.5-0.2,3,0,4.5c0.3,1.5,2,12.2,5,13.4c4.1,1.3,8.3,1.8,12.6,1.5c4.6-0.3,9-1.8,9.6-3.1    C466.8,391.5,466.9,390.4,466.5,389.5z"></path>
		<path id="Path_2214" class="st28" d="M412.1,377.2c-0.6,0.3-0.5,2.9,0.2,2.8c2.3-0.6,4.7-0.8,7.1-0.6c-2.6-0.3-5.2,0.2-7.5,1.5    c-0.4,0.2-0.3,1.8,0.1,1.7c2.2-0.7,4.6-0.9,6.9-0.6c2.5,0.3,4.8,1.5,7.3,1.8c1.1,0.1,0.7-2.7,0.5-3.1c-0.4-0.9-1-1.7-1.8-2.3    c1,0.3,1.8,0.9,2.4,1.7c0.8,1.1,1.3-2.3,0.7-3.1C424.7,372.6,416,375.3,412.1,377.2z"></path>
		<path id="Path_2215" class="st28" d="M460,380.9c-2.2-1.2-4.7-1.7-7.2-1.5c2.3-0.2,4.7,0,6.9,0.6c0.7,0.2,0.7-2.5,0.1-2.8    c-4-2-12.7-4.6-15.9-0.3c-0.6,0.8,0,4.2,0.8,3.1c0.6-0.8,1.3-1.3,2.2-1.6c-0.8,0.6-1.3,1.4-1.7,2.3c-0.2,0.5-0.4,3.2,0.6,3.1    c2.1-0.3,4.1-1.3,6.3-1.6c2.6-0.5,5.3-0.4,7.8,0.4C460.5,382.7,460.5,381.1,460,380.9z"></path>
		<g id="Group_815" transform="translate(412.154 223.512)">
			<path id="Path_2216" class="st42" d="M8.2,0.5c3,5,2.8,12.5,0.3,17.6c-1,1.9-2.8,5.5-5.4,5.6c-4.6,0.3-3-6.9-2.3-10.7     C1.5,9.1,6.4-2.5,8.2,0.5z"></path>
		</g>
		<g id="Group_816" transform="translate(445.128 223.41)">
			<path id="Path_2217" class="st42" d="M2.4,0.5c-3,5-3.1,13.3-0.7,18.3c1,1.9,2.8,5.6,5.4,5.6c4.6,0,3-6.9,2.3-10.7     C8.7,9.8,4.2-2.5,2.4,0.5z"></path>
		</g>
		<g id="Group_817" transform="translate(403.283 221.438)">
			<path id="Path_2218" class="st45" d="M61.7,78.8c-0.3-1.2-0.7-2.5-1.1-3.7c-2-5.8-3.3-11.9-3.9-18c-0.8-7.8-2.2-15.5-3.1-23.3     c-0.2-1.7-2.2-11.5-1.4-12.2c-1.2,1.2-3.2,1.2-4.4,0c0,0-0.1-0.1-0.1-0.1c-4.1-4.2-3.4-14.1-2.3-19.3c-1.9-0.6-4.4-2.3-6.4-2     c0.2,1.7,1.3,3.8,0.5,5.4c-0.6,1-1.5,1.8-2.5,2.3c-3.2,1.8-6.9,2.2-10.4,1.3c-4.4-1.1-4.8-4.9-4.1-9.1c-2.2-0.2-4.9,1.2-6.7,2.3     c4.2,5,2.7,15.9-2,20c-1.2,1.2-3.1,1.5-4.7,0.7c0.6,0.3-1,19-1.1,20.7c-0.1,7.6-0.7,15.2-2,22.8C3.9,77.2,5.2,89,1.3,99.3     c-1.4,3.6-2.9,6.5,2.2,8.3c5.2,1.8,11.5-0.8,16.8-1.2c6.4-0.5,12.8-0.8,18.9,1.7c8.9,3.7,17.6-1.7,25.9-5     c1.1-0.5,2.2-0.9,3.3-1.3c-0.7-4.1-2.7-7.7-4-11.6C63.2,86.4,62.7,82.6,61.7,78.8z"></path>
		</g>
		<g id="Group_818" transform="translate(448.854 225.073)">
			<path id="Path_2219" class="st42" d="M21.8,31.8c-0.1-0.1-0.1-0.2-0.2-0.3c-3.4-7.5-6.5-15.6-10.9-22.6C9.7,7.3,1.2-3.8,0.3,1.3     C-1.3,11,3.5,18,5.6,24c5,13.9,16.5,27.7,14.3,43.3c-0.3,2.2-0.9,4.3-1.5,6.4c-0.5,1.5-3.1,3.7-2.4,5.4c1.1,2.8,5,0,5.8-1.5     c0.6-1.1,0.8-2.6,1.9-3.4c1.2-0.9,2.1,0.7,2.9,1.4c1.4,1.2,2.7,2.5,3.9,3.8c0.7,1,1.6,1.8,2.7,2.4c1.1,0.4,2.4-0.2,2.7-1.4     c0-0.1,0.1-0.2,0.1-0.3c0.4-1.5-0.7-2.5-1.7-3.5c-1.4-1.2-2.9-2.5-4.1-3.8c2,1.4,4,2.9,5.8,4.6c1.1,1.1,2.1,2.2,3.6,1.1     c0.7-0.5,1.5-1.6,1.2-2.5c-0.4-1.1-2-2.1-2.8-2.8c-1.8-1.4-3.8-2.7-5.7-4c1.5,1,3,1.8,4.7,2.5c1.6,0.7,4,2.4,5.2,0.2     c0.9-1.7-0.8-2.3-2.2-2.8c-1.8-0.8-3.6-1.5-5.5-2c1.4-0.2,2.7,0.1,4.1-0.2c3.3-0.6,1.1-3.3-1.4-2.9c-2.6,0.3-5.3,0.4-7.9,0.2     c0.1-2.7,0-5.4-0.2-8.1C28.3,47.8,25.2,39.4,21.8,31.8z"></path>
		</g>
		<g id="Group_819" transform="translate(377.337 225.048)">
			<path id="Path_2220" class="st42" d="M25.3,48.7c3.3-8.5,8.3-16.2,11.4-24.7c2.2-6,6.9-13,5.3-22.7c-0.9-5.1-9.4,6-10.3,7.5     c-4.4,6.9-7.5,15-10.9,22.6c-0.1,0.1-0.1,0.2-0.2,0.3c-3.5,7.6-6.5,16-7.2,24.4c-0.2,2.5-1.1,7-1,10.8c-0.3,0.1-0.5,0.1-0.8,0.1     c-2.9,0.5-5.8,1.3-8.5,2.4c-1,0.4-1.8,1-2.7,1.4c-0.6,1.8,0,3.7,2.1,3c-1.9,1.4-1.2,5.7,1.6,4.3c-0.5,0.2-0.4,1.4-0.2,1.8     c0.2,0.5,0.6,0.8,1.1,1.1c0.9,0.4,1.9,0.4,2.7-0.2c-0.4,1,0.6,1.8,1.5,2.1c1.1,0.2,2.2-0.1,3.1-0.8c2.3-2,4.1-7,7.9-5.4     c2.3,0.9,3,4.5,6.1,3.2c3.7-1.5-1.5-5-3-6.1c0.5,0.3,0.4-4.5-0.1-5.2c-0.2-0.3-0.4-0.6-0.7-0.8c-0.4-2.1-0.5-4.2-0.3-6.2     C22.5,57.3,23.7,52.9,25.3,48.7z"></path>
		</g>
		<g id="Group_820" transform="translate(356.214 63.457)">
			<path id="Path_2221" class="st40" d="M99.8,2.8C81.3-3,59.5,0.8,42,8.3c-8.3,3.5-15.9,8.5-22.5,14.8c-3.9,3.4-7.4,7.3-10.6,11.4     C6.4,38,5.2,45,2.5,47.8c7.1-7.4,20.9-13.6,31.2-13.7C20.9,42.7,4.9,51.1,0,66.8c6-6.4,15.5-12.1,24.2-13.8     c-5.9,6.6-12.2,12-15.9,20.6c8.7-6.8,18.3-12.2,28.5-16.2c22.9-8.9,52.4-3.6,70.8-22.9c-12.9,4-25.3-3.5-38.2-1.5     c2.2-0.4,8.5-7.2,11.3-8.6c4.6-2.3,9.6-3.6,14.2-5.8c-7.8-2.6-20.2-5.5-27.9-1.1C75.5,9.4,88.4,2.7,99.8,2.8z"></path>
		</g>
		<g id="Group_821" transform="translate(488.712 78.245)">
			<path id="Path_2222" class="st40" d="M21.3,60.6C18.1,55,9.9,54.5,6.4,47.1c-4.1-8.8-6.2-18.5-5.9-28.2c2.5,3.5,5,7.4,8.4,10.9     C8.9,18.9,5,9.4,0,0c12.9,10.9,17.9,26.8,20.8,42.7c-2.5-2-5-4-7.9-5C12.9,45.7,17.3,53.6,21.3,60.6z"></path>
		</g>
		<path id="Path_2223" class="st45" d="M362.5,156.6c0,0-27.8-48.4,15.4-77.8s90.6-19.5,106.9-9c16.3,10.5,34.9,31.8,25.6,87.9    c0,0,24.3-51.2-13.4-84.7s-92.6-21.4-124.5-0.2C340.8,94.2,345,136.1,362.5,156.6z"></path>
		<g id="Group_822" transform="translate(468.196 50.564)">
			<path id="Path_2224" class="st46" d="M0,10.7C7.1,6.2,21.4,19.8,23.3,23c5.7-4.3,3.3-24.8-0.8-22.9C14.5,3.8,7.3,6.1,0,10.7z"></path>
		</g>
		<g id="Group_823" transform="translate(494.344 69.976)">
			<path id="Path_2225" class="st46" d="M19.3,26.4c1-8.4-16-15.7-19.3-16.1C1.4,3.4,19.5-3,19.5,1.5C19.5,10.4,20.4,17.9,19.3,26.4     z"></path>
		</g>
		<g id="Group_824" transform="translate(482.941 65.921)">
			<path id="Path_2226" class="st46" d="M5.4,1C0.9,3.6-1.5,7.3,1.1,12.1c0.7,1.3,9.3,9.2,10.2,8.7c4.6-2.5,11.9-5.3,8.3-11.5     C16.6,4.2,10.7-2.6,5.4,1z"></path>
		</g>
		<circle id="Ellipse_79" class="st4" cx="395.7" cy="158.3" r="2"></circle>
		<circle id="Ellipse_80" class="st4" cx="476.7" cy="159.5" r="2"></circle>
	</g>
	<g class="st3">
		<path class="st2" d="M-692.8-6494.4h-81.4v-13.4l39.8-52.4c6.4-9.1,10.9-16.6,13.5-22.6c2.6-6,3.8-11.7,3.8-17.3    c0-7.7-1.6-13.9-4.8-18.7c-3.2-4.8-7.7-7.3-13.3-7.3c-7.1,0-12.4,2.7-16,8c-3.6,5.3-5.3,12.6-5.3,21.9h-19.4l-0.2-0.5    c-0.3-12.6,3.3-23.1,10.7-31.8c7.4-8.6,17.5-12.9,30.3-12.9c11.8,0,21.2,3.7,28,11.2s10.3,17.3,10.3,29.6c0,8.3-2.1,16.5-6.3,24.6    c-4.2,8.1-10.3,17.1-18.4,27l-27.4,39.3h56.1V-6494.4z"></path>
		<path class="st2" d="M-649.7-6507.7c7.4,0,13.3-3.4,17.9-10.3c4.5-6.8,6.8-16.7,6.8-29.6v-7.1c-2.8,4.8-6.2,8.4-10.3,10.8    c-4.1,2.5-8.5,3.7-13.2,3.7c-11.6,0-20.7-4.5-27.4-13.4c-6.7-8.9-10.1-21-10.1-36.3c0-14.8,3.8-27.1,11.4-37    c7.6-9.9,17-14.8,28.2-14.8c12.6,0,22.6,4.8,30.2,14.3c7.6,9.6,11.4,23.3,11.4,41.3v37.9c0,17.7-4.2,31.4-12.6,41.1    c-8.4,9.7-19.2,14.6-32.4,14.6c-4.1,0-8.4-0.5-12.9-1.5c-4.5-1-8.7-2.5-12.6-4.4l2.7-14.7c3.5,1.9,7.1,3.3,10.7,4.1    C-658.2-6508.1-654.1-6507.7-649.7-6507.7z M-646.4-6555.4c5.2,0,9.6-1.5,13.2-4.4c3.6-3,6.4-6.8,8.2-11.4v-16.8    c0-12.5-1.9-22-5.6-28.4c-3.7-6.5-8.9-9.7-15.5-9.7c-5.6,0-10.3,3.5-14.1,10.5c-3.8,7-5.6,15.6-5.6,25.8c0,10.2,1.7,18.5,5.1,25    C-657.3-6558.6-652.5-6555.4-646.4-6555.4z"></path>
	</g>
	<g class="st3">
		<path class="st2" d="M-584.9-6591.9h-6.1v-6h6.1V-6591.9z"></path>
		<path class="st2" d="M-569.5-6595.9c2.2,0,4-1,5.3-3.1c1.4-2,2-5,2-8.8v-2.1c-0.8,1.4-1.9,2.5-3.1,3.2c-1.2,0.7-2.5,1.1-4,1.1    c-3.5,0-6.2-1.3-8.2-4c-2-2.7-3-6.3-3-10.9c0-4.4,1.1-8.1,3.4-11.1c2.3-2.9,5.1-4.4,8.4-4.4c3.8,0,6.8,1.4,9,4.3    c2.3,2.9,3.4,7,3.4,12.4v11.3c0,5.3-1.3,9.4-3.8,12.3c-2.5,2.9-5.7,4.4-9.7,4.4c-1.2,0-2.5-0.2-3.9-0.5c-1.4-0.3-2.6-0.8-3.8-1.3    l0.8-4.4c1.1,0.6,2.1,1,3.2,1.2C-572.1-6596-570.9-6595.9-569.5-6595.9z M-568.5-6610.1c1.5,0,2.9-0.4,3.9-1.3    c1.1-0.9,1.9-2,2.5-3.4v-5c0-3.7-0.6-6.6-1.7-8.5c-1.1-1.9-2.7-2.9-4.6-2.9c-1.7,0-3.1,1-4.2,3.1c-1.1,2.1-1.7,4.7-1.7,7.7    c0,3.1,0.5,5.5,1.5,7.5C-571.8-6611.1-570.4-6610.1-568.5-6610.1z"></path>
		<path class="st2" d="M-528.4-6608.7c0,5.6-1.1,9.9-3.2,12.9c-2.2,3-5.1,4.5-8.8,4.5c-3.7,0-6.7-1.5-8.8-4.5    c-2.2-3-3.3-7.3-3.3-12.9v-9.8c0-5.6,1.1-9.9,3.2-12.9c2.2-3,5.1-4.5,8.8-4.5s6.6,1.5,8.8,4.5c2.2,3,3.3,7.3,3.3,12.9V-6608.7z     M-534.4-6619.4c0-3.9-0.5-6.9-1.6-8.9c-1-2-2.5-3-4.5-3c-1.9,0-3.4,1-4.5,3c-1,2-1.5,5-1.5,8.9v11.5c0,3.9,0.5,6.9,1.6,9    c1,2,2.5,3,4.5,3c1.9,0,3.4-1,4.4-3c1-2,1.5-5,1.5-9V-6619.4z"></path>
	</g>
	<g class="st3">
		<path class="st2" d="M-826.1-6579.3c0-3.1-0.9-5.6-2.6-7.5c-1.7-2-4.7-3.7-9-5.2c-6.2-1.9-10.9-4.3-14.2-7.3    c-3.3-3-4.9-7-4.9-11.9c0-5.1,1.8-9.3,5.5-12.5c3.7-3.3,8.4-4.9,14.1-4.9c6,0,10.8,1.9,14.5,5.7c3.7,3.8,5.4,8.3,5.3,13.7    l-0.1,0.3h-8.7c0-3.8-1-6.8-2.9-9.2c-1.9-2.4-4.7-3.5-8.2-3.5c-3.3,0-5.9,1-7.8,3c-1.8,2-2.7,4.5-2.7,7.5c0,2.8,1,5.1,2.9,7    c2,1.9,5.2,3.6,9.7,5.1c5.9,1.8,10.4,4.3,13.5,7.5c3.1,3.2,4.6,7.3,4.6,12.3c0,5.3-1.8,9.5-5.5,12.6c-3.6,3.1-8.4,4.7-14.4,4.7    c-5.8,0-10.8-1.7-15.1-5.1c-4.3-3.4-6.4-8.2-6.2-14.5l0.1-0.3h8.7c0,4.4,1.2,7.7,3.5,9.8c2.3,2.1,5.4,3.2,9.1,3.2    c3.4,0,6-0.9,7.9-2.8C-827.1-6573.6-826.1-6576.1-826.1-6579.3z"></path>
		<path class="st2" d="M-806.6-6557.4h-7.1l21.4-70.3h7.1L-806.6-6557.4z"></path>
	</g>
	<g class="st3">
		<path class="st2" d="M-849.1-6271.1c0-0.6-0.2-1.1-0.6-1.5c-0.4-0.4-1.2-0.7-2.2-1c-1.9-0.5-3.3-1.2-4.2-1.9c-1-0.7-1.4-1.7-1.4-3    c0-1.3,0.5-2.3,1.6-3.1c1.1-0.8,2.5-1.2,4.2-1.2c1.7,0,3.1,0.5,4.2,1.4c1.1,0.9,1.6,2,1.6,3.4l0,0.1h-3c0-0.7-0.2-1.3-0.7-1.8    s-1.2-0.7-2-0.7c-0.8,0-1.5,0.2-1.9,0.6c-0.5,0.4-0.7,0.8-0.7,1.4c0,0.5,0.2,1,0.7,1.3c0.5,0.3,1.3,0.7,2.5,1.1    c1.7,0.5,3,1.1,3.9,1.9c0.9,0.8,1.3,1.8,1.3,3.1c0,1.3-0.5,2.4-1.6,3.2c-1.1,0.8-2.5,1.2-4.2,1.2c-1.7,0-3.2-0.4-4.5-1.3    c-1.3-0.9-1.9-2.1-1.8-3.7l0-0.1h3.1c0,0.9,0.3,1.6,0.9,2s1.4,0.7,2.4,0.7c0.9,0,1.5-0.2,2-0.5    C-849.3-6270-849.1-6270.5-849.1-6271.1z"></path>
		<path class="st2" d="M-840.3-6267h-3.1v-15.6h3.1V-6267z"></path>
		<path class="st2" d="M-824.5-6267h-3.1l-6.3-10.7l-0.1,0v10.7h-3.1v-15.6h3.1l6.3,10.7l0.1,0v-10.7h3.1V-6267z"></path>
		<path class="st2" d="M-812.9-6272.7v5.7h-3.1v-15.6h6.2c1.8,0,3.2,0.5,4.2,1.4c1,0.9,1.5,2.1,1.5,3.6c0,1.5-0.5,2.7-1.5,3.6    c-1,0.9-2.4,1.4-4.2,1.4H-812.9z M-812.9-6275.1h3.1c0.9,0,1.5-0.2,2-0.7c0.5-0.5,0.7-1.1,0.7-1.8c0-0.8-0.2-1.4-0.7-1.9    c-0.4-0.5-1.1-0.7-2-0.7h-3.1V-6275.1z"></path>
		<path class="st2" d="M-795.2-6270.4h-5.5l-1.1,3.4h-3.2l5.4-15.6h3.2l5.4,15.6h-3.2L-795.2-6270.4z M-799.9-6272.8h3.9l-1.9-6.1    h-0.1L-799.9-6272.8z"></path>
		<path class="st2" d="M-777.5-6269.1c-0.5,0.6-1.2,1.2-2.2,1.6c-1,0.5-2.2,0.7-3.7,0.7c-1.9,0-3.5-0.6-4.7-1.8    c-1.2-1.2-1.8-2.7-1.8-4.6v-3.3c0-1.9,0.6-3.4,1.7-4.6c1.2-1.2,2.7-1.8,4.5-1.8c1.9,0,3.4,0.5,4.4,1.4c1,0.9,1.5,2.1,1.6,3.7    l0,0.1h-3c-0.1-0.8-0.3-1.5-0.8-2c-0.5-0.5-1.2-0.7-2.1-0.7c-1,0-1.7,0.4-2.3,1.1c-0.6,0.7-0.9,1.7-0.9,2.9v3.3    c0,1.2,0.3,2.2,0.9,2.9c0.6,0.7,1.4,1.1,2.5,1.1c0.7,0,1.3-0.1,1.8-0.2c0.4-0.2,0.8-0.3,1-0.6v-2.9h-2.8v-2.2h5.9V-6269.1z"></path>
		<path class="st2" d="M-762.2-6273.4c0,1.9-0.6,3.5-1.8,4.8c-1.2,1.3-2.8,1.9-4.7,1.9c-1.9,0-3.5-0.6-4.7-1.9    c-1.2-1.3-1.8-2.8-1.8-4.8v-2.8c0-1.9,0.6-3.5,1.8-4.8c1.2-1.3,2.8-1.9,4.7-1.9c1.9,0,3.5,0.6,4.7,1.9c1.2,1.3,1.8,2.8,1.8,4.8    V-6273.4z M-765.3-6276.2c0-1.2-0.3-2.2-0.9-3c-0.6-0.8-1.4-1.2-2.5-1.2c-1.1,0-1.9,0.4-2.5,1.2c-0.6,0.8-0.9,1.8-0.9,3v2.8    c0,1.2,0.3,2.3,0.9,3c0.6,0.8,1.4,1.2,2.5,1.2c1.1,0,1.9-0.4,2.5-1.2c0.6-0.8,0.9-1.8,0.9-3V-6276.2z"></path>
		<path class="st2" d="M-754.3-6267v-15.6h5.4c1.9,0,3.5,0.6,4.7,1.8c1.2,1.2,1.9,2.8,1.9,4.7v2.6c0,1.9-0.6,3.5-1.9,4.7    c-1.2,1.2-2.8,1.8-4.7,1.8H-754.3z M-751.1-6280.2v10.8h2.1c1.1,0,2-0.4,2.6-1.1c0.6-0.8,1-1.8,1-3v-2.6c0-1.2-0.3-2.2-1-3    c-0.6-0.8-1.5-1.1-2.6-1.1H-751.1z"></path>
		<path class="st2" d="M-730.2-6273.9h-6.5v4.5h7.6v2.4h-10.7v-15.6h10.7v2.4h-7.6v3.9h6.5V-6273.9z"></path>
		<path class="st2" d="M-713.3-6270.4h-5.5l-1.1,3.4h-3.2l5.4-15.6h3.2l5.4,15.6h-3.2L-713.3-6270.4z M-718.1-6272.8h3.9l-1.9-6.1    h-0.1L-718.1-6272.8z"></path>
		<path class="st2" d="M-698-6273.5h-6.6v6.5h-3.1v-15.6h10.8v2.4h-7.6v4.3h6.6V-6273.5z"></path>
		<path class="st2" d="M-691.6-6267h-3.1v-15.6h3.1V-6267z"></path>
		<path class="st2" d="M-685.4-6269.4h7v2.4h-10.1v-15.6h3.1V-6269.4z"></path>
		<path class="st2" d="M-673.3-6267h-3.1v-15.6h3.1V-6267z"></path>
		<path class="st2" d="M-661.7-6270.4h-5.5l-1.1,3.4h-3.2l5.4-15.6h3.2l5.4,15.6h-3.2L-661.7-6270.4z M-666.5-6272.8h3.9l-1.9-6.1    h-0.1L-666.5-6272.8z"></path>
		<path class="st2" d="M-644.2-6272.3L-644.2-6272.3c0,1.7-0.5,3.1-1.5,4.1c-1.1,1-2.5,1.5-4.4,1.5c-1.9,0-3.4-0.6-4.6-1.8    c-1.2-1.2-1.8-2.8-1.8-4.7v-3.1c0-1.9,0.6-3.5,1.7-4.7c1.1-1.2,2.6-1.8,4.5-1.8c1.9,0,3.4,0.5,4.5,1.5c1.1,1,1.6,2.3,1.6,4.1    l0,0.1h-3.1c0-1-0.2-1.8-0.7-2.4c-0.5-0.5-1.3-0.8-2.3-0.8c-0.9,0-1.7,0.4-2.2,1.1c-0.6,0.8-0.8,1.7-0.8,2.9v3.1    c0,1.2,0.3,2.2,0.9,2.9c0.6,0.8,1.4,1.1,2.4,1.1c1,0,1.7-0.3,2.2-0.8c0.5-0.5,0.7-1.3,0.7-2.3H-644.2z"></path>
		<path class="st2" d="M-638.7-6267h-3.1v-15.6h3.1V-6267z"></path>
		<path class="st2" d="M-623-6273.4c0,1.9-0.6,3.5-1.8,4.8c-1.2,1.3-2.8,1.9-4.7,1.9c-1.9,0-3.5-0.6-4.7-1.9    c-1.2-1.3-1.8-2.8-1.8-4.8v-2.8c0-1.9,0.6-3.5,1.8-4.8c1.2-1.3,2.8-1.9,4.7-1.9c1.9,0,3.5,0.6,4.7,1.9c1.2,1.3,1.8,2.8,1.8,4.8    V-6273.4z M-626.1-6276.2c0-1.2-0.3-2.2-0.9-3c-0.6-0.8-1.4-1.2-2.5-1.2c-1.1,0-1.9,0.4-2.5,1.2c-0.6,0.8-0.9,1.8-0.9,3v2.8    c0,1.2,0.3,2.3,0.9,3c0.6,0.8,1.4,1.2,2.5,1.2c1.1,0,1.9-0.4,2.5-1.2c0.6-0.8,0.9-1.8,0.9-3V-6276.2z M-628.9-6286.8h3.3l0,0.1    l-3,2.8h-2.5L-628.9-6286.8z"></path>
		<path class="st2" d="M-607.9-6267h-3.1l-6.3-10.7l-0.1,0v10.7h-3.1v-15.6h3.1l6.3,10.7l0.1,0v-10.7h3.1V-6267z"></path>
	</g>
</g>
</svg>