<svg xmlns="http://www.w3.org/2000/svg" xmlns:xlink="http://www.w3.org/1999/xlink" id="Capa_1" x="0px" y="0px" viewBox="0 0 1366 768" style="enable-background:new 0 0 1366 768;" xml:space="preserve">
<style type="text/css">
	.st0{fill:#E20000;}
</style>
<path class="st0" d="M1246.43,350.27c9.51,3.11,17.24,8.51,24.96,14.58c-4.13-20.02-17.55-33.13-34.17-33.39  c-14.54-0.23-31.34,11.99-34.27,24.99c4.39-2.45,20.06-8.95,27.83-8.17c-2.17,8.61-4.19,17.93-6.47,24.98  c-16.37,50.52-50.25,85.96-96.53,110.1c-67.4,35.15-138.82,39.37-212.28,26.15c-31.12-5.6-61.38-14.24-90.76-26.02l-1.99,2.08  c14.14,13.01,27.57,26.92,42.55,38.87c64.35,51.36,136.21,77.84,219.59,63.04c65.69-11.66,113.52-46.87,140.27-108.81  c16.28-37.69,21.9-77.42,21.29-118.21C1246.4,357.9,1246.43,355.33,1246.43,350.27z M139.73,312.23h19.99  c3.47,4.15,6.95,8.79,10.43,13.89c3.47,5.11,6.99,10.52,10.56,16.23c3.56,5.71,7.03,11.6,10.42,17.66  c3.39,6.06,6.73,12.03,10.04,17.92h45.28c-3.12-6.58-6.49-13.28-10.13-20.12c-3.63-6.84-7.4-13.41-11.29-19.73  c-3.9-6.32-7.84-12.38-11.82-18.18c-3.98-5.8-7.79-10.95-11.43-15.45c10.91-4.5,19.26-10.69,25.06-18.57  c5.8-7.87,8.7-18.13,8.7-30.77c0-20.25-7.19-35.18-21.55-44.79c-14.37-9.61-35.05-14.41-62.06-14.41c-7.44,0-15.88,0.35-25.32,1.04  c-9.44,0.7-18.57,1.91-27.39,3.64v177.35h40.51V312.23z M139.73,231.22c2.08-0.17,4.28-0.34,6.62-0.52  c2.34-0.17,4.97-0.26,7.92-0.26c12.98,0,22.81,1.86,29.47,5.58c6.66,3.72,10,10,10,18.83c0,9.18-3.29,15.67-9.87,19.47  c-6.58,3.81-17.49,5.71-32.72,5.71h-11.42V231.22z M956.73,272.51c2.42-0.34,5.19-0.65,8.31-0.91c3.12-0.26,6.06-0.39,8.83-0.39  c9,0,15.14,2.6,18.44,7.79c3.29,5.19,4.93,14.02,4.93,26.49v72.45h38.69v-77.12c0-9.35-0.95-17.83-2.86-25.45  c-1.91-7.62-5.11-14.19-9.61-19.73c-4.5-5.54-10.6-9.82-18.31-12.85c-7.7-3.03-17.36-4.54-28.95-4.54  c-11.42,0-22.33,0.82-32.72,2.47c-10.39,1.65-18.87,3.42-25.45,5.32v131.91h38.69V272.51z M269.51,361.7  c5.88,6.32,12.94,11.21,21.16,14.67c8.22,3.46,17.35,5.19,27.39,5.19c10.21,0,19.43-1.73,27.65-5.19  c8.22-3.46,15.27-8.35,21.16-14.67c5.88-6.32,10.39-13.93,13.5-22.85c3.12-8.91,4.67-18.74,4.67-29.47  c0-10.73-1.65-20.51-4.93-29.34c-3.29-8.83-7.88-16.36-13.76-22.59c-5.89-6.23-12.94-11.08-21.16-14.54  c-8.22-3.46-17.27-5.19-27.13-5.19c-9.7,0-18.65,1.73-26.87,5.19c-8.22,3.46-15.32,8.31-21.29,14.54  c-5.97,6.23-10.65,13.76-14.02,22.59c-3.38,8.83-5.06,18.61-5.06,29.34c0,10.74,1.64,20.56,4.93,29.47  C259.04,347.77,263.63,355.38,269.51,361.7z M297.56,281.2c4.84-6.84,11.68-10.26,20.51-10.26c8.83,0,15.62,3.42,20.38,10.26  c4.76,6.84,7.14,16.23,7.14,28.17c0,11.94-2.38,21.42-7.14,28.43c-4.76,7.01-11.55,10.52-20.38,10.52c-8.83,0-15.67-3.5-20.51-10.52  c-4.85-7.01-7.27-16.49-7.27-28.43C290.29,297.43,292.71,288.05,297.56,281.2z M551.06,218.63c4.58,4.07,10,6.1,16.23,6.1  c6.23,0,11.64-2.03,16.23-6.1c4.58-4.07,6.88-9.65,6.88-16.75c0-7.1-2.3-12.68-6.88-16.75c-4.59-4.07-10-6.1-16.23-6.1  c-6.23,0-11.64,2.04-16.23,6.1c-4.59,4.07-6.88,9.65-6.88,16.75C544.18,208.98,546.47,214.56,551.06,218.63z M1074.83,364.82  c4.16,5.11,9.69,9.09,16.62,11.94c6.92,2.85,15.66,4.29,26.22,4.29c8.31,0,15.32-0.7,21.03-2.08c5.71-1.38,10.91-3.03,15.58-4.93  l-5.45-30.12c-3.64,1.39-7.66,2.47-12.07,3.25c-4.41,0.78-8.7,1.17-12.85,1.17c-8.66,0-14.41-2.42-17.27-7.27  c-2.86-4.85-4.29-11.34-4.29-19.48v-48.04h46.48v-32.2h-46.48V201.1l-38.69,6.23V322.1c0,8.83,0.82,16.88,2.47,24.15  C1067.77,353.52,1070.67,359.71,1074.83,364.82z M548.08,377.93h38.69V241.34h-38.69V377.93z M533.59,241.34h-40.01  c-1.74,6.75-3.78,14.07-6.13,21.94c-2.34,7.88-4.78,15.84-7.3,23.89c-2.52,8.05-5.08,15.88-7.69,23.5  c-2.6,7.62-5.04,14.54-7.3,20.77c-2.43-6.23-4.91-13.15-7.44-20.77c-2.52-7.62-5.04-15.45-7.56-23.5  c-2.52-8.05-4.96-16.01-7.3-23.89c-2.35-7.88-4.39-15.19-6.13-21.94h-41.03c8.16,27.35,16.81,52.63,25.93,75.82  c9.12,23.2,18.12,43.45,26.98,60.76h32.11c8.85-17.31,17.84-37.56,26.95-60.76C516.79,293.97,525.42,268.7,533.59,241.34z   M849.65,380.78c4.84-0.52,9.39-1.17,13.63-1.95c4.24-0.78,8.09-1.69,11.55-2.73c3.46-1.04,6.23-2.08,8.31-3.12l-5.19-31.42  c-4.33,1.91-9.91,3.5-16.75,4.8c-6.84,1.3-13.81,1.95-20.9,1.95c-11.08,0-19.91-2.34-26.48-7.01c-6.58-4.68-10.3-10.99-11.17-18.96  h87.76c0.17-2.08,0.34-4.46,0.52-7.14c0.17-2.68,0.26-5.15,0.26-7.4c0-23.02-5.63-40.46-16.88-52.32  c-11.25-11.86-26.57-17.78-45.96-17.78c-8.31,0-16.4,1.56-24.28,4.67c-7.88,3.12-14.84,7.7-20.9,13.76  c-6.06,6.06-10.95,13.63-14.67,22.72c-3.72,9.09-5.58,19.69-5.58,31.81c0,10.04,1.43,19.39,4.29,28.04  c2.86,8.66,7.27,16.15,13.24,22.46c5.97,6.32,13.5,11.29,22.59,14.93c9.09,3.64,19.77,5.45,32.07,5.45  C839.95,381.56,844.8,381.3,849.65,380.78z M805.11,286.14c1.12-3.2,2.73-6.01,4.8-8.44c2.08-2.42,4.67-4.37,7.79-5.84  c3.12-1.47,6.84-2.21,11.16-2.21c4.5,0,8.27,0.78,11.3,2.34c3.03,1.56,5.54,3.55,7.53,5.97c1.99,2.42,3.46,5.19,4.41,8.31  c0.95,3.12,1.51,6.32,1.69,9.61h-51.15C803.17,292.59,803.99,289.34,805.11,286.14z M697.38,244.46c-4.33-1.9-8.61-3.38-12.85-4.41  c-4.24-1.04-9.05-1.56-14.41-1.56c-9.7,0-18.31,1.65-25.84,4.93c-7.53,3.29-13.89,8.05-19.08,14.28  c-5.19,6.23-9.18,13.81-11.94,22.72c-2.77,8.92-4.16,18.92-4.16,29.99c0,10.9,1.6,20.73,4.8,29.47c3.2,8.74,7.83,16.19,13.89,22.33  c6.06,6.15,13.5,10.87,22.33,14.15c8.83,3.29,18.87,4.93,30.12,4.93c4.67,0,9.56-0.22,14.67-0.65c5.1-0.43,10.13-1,15.06-1.69  c4.93-0.7,9.65-1.52,14.15-2.47c4.5-0.95,8.48-1.95,11.94-2.99V176.43l-38.69,6.23V244.46z M697.38,347.03  c-1.91,0.35-4.33,0.65-7.27,0.91c-2.95,0.26-6.15,0.39-9.61,0.39c-10.56,0-18.53-3.63-23.89-10.9c-5.37-7.27-8.05-16.88-8.05-28.82  c0-24.93,9.17-37.39,27.52-37.39c3.98,0,7.92,0.52,11.82,1.56c3.89,1.04,7.05,2.34,9.48,3.89V347.03z M589.69,471.22h7.89v-33.71  h-7.89V471.22z M657.49,437.13c-2.78,0-5.41,0.36-7.89,1.07c-2.48,0.72-4.61,1.75-6.38,3.09l3.09,5.75  c1.26-1.05,2.81-1.87,4.64-2.46c1.83-0.59,3.69-0.88,5.59-0.88c2.78,0,4.87,0.63,6.28,1.89c1.41,1.26,2.12,3.07,2.12,5.43v0.51  h-8.71c-4.84,0-8.39,0.91-10.64,2.75c-2.25,1.83-3.38,4.26-3.38,7.29c0,1.94,0.52,3.67,1.55,5.21c1.03,1.54,2.49,2.74,4.39,3.6  c1.89,0.86,4.1,1.29,6.63,1.29c2.53,0,4.68-0.39,6.47-1.17c1.79-0.78,3.17-1.9,4.13-3.38v4.1h7.45v-19.76  c0-4.8-1.32-8.39-3.95-10.76C666.26,438.32,662.46,437.13,657.49,437.13z M664.94,460.68c-0.63,1.68-1.72,2.98-3.25,3.88  c-1.54,0.91-3.29,1.36-5.27,1.36c-2.02,0-3.6-0.42-4.74-1.26c-1.14-0.84-1.7-1.98-1.7-3.41c0-2.99,2.27-4.48,6.82-4.48h8.14V460.68z   M571.83,441.99c-1.35-1.64-3.02-2.86-5.02-3.66c-2-0.8-4.22-1.2-6.66-1.2c-3.2,0-6.09,0.67-8.68,2.02  c-2.59,1.35-4.63,3.25-6.12,5.71c-1.49,2.46-2.24,5.29-2.24,8.49c0,3.2,0.75,6.04,2.24,8.52c1.49,2.48,3.54,4.41,6.12,5.78  c2.59,1.37,5.48,2.05,8.68,2.05c2.31,0,4.44-0.38,6.38-1.14c1.94-0.76,3.58-1.87,4.92-3.35v1.77c0,3.45-0.86,6.02-2.59,7.7  c-1.73,1.68-4.44,2.53-8.14,2.53c-2.32,0-4.6-0.37-6.85-1.11c-2.25-0.74-4.11-1.72-5.59-2.94l-3.54,5.93  c1.89,1.56,4.29,2.75,7.2,3.57c2.9,0.82,5.98,1.23,9.22,1.23c12.12,0,18.18-5.93,18.18-17.8v-28.6h-7.51V441.99z M568.7,460.33  c-1.92,1.79-4.37,2.68-7.35,2.68c-3.03,0-5.5-0.89-7.42-2.68c-1.92-1.79-2.87-4.11-2.87-6.98c0-2.82,0.96-5.11,2.87-6.88  c1.91-1.77,4.39-2.65,7.42-2.65c2.99,0,5.44,0.88,7.35,2.65c1.91,1.77,2.87,4.06,2.87,6.88  C571.57,456.22,570.62,458.54,568.7,460.33z M396.44,437.13c-2.48,0-4.71,0.4-6.69,1.2c-1.98,0.8-3.62,1.98-4.92,3.54v-4.36h-7.51  v33.71h7.89v-17.05c0-3.28,0.84-5.8,2.53-7.54c1.68-1.75,3.98-2.62,6.88-2.62c2.57,0,4.54,0.75,5.93,2.24  c1.39,1.49,2.08,3.71,2.08,6.66v18.31h7.89V451.9c0-4.88-1.28-8.56-3.85-11.05C404.1,438.37,400.69,437.13,396.44,437.13z   M623.34,443.82c1.73,0,3.31,0.39,4.77,1.17c1.45,0.78,2.66,1.95,3.63,3.5l6.06-3.54c-1.26-2.53-3.15-4.46-5.65-5.81  c-2.5-1.35-5.42-2.02-8.74-2.02c-3.54,0-6.68,0.74-9.44,2.21c-2.76,1.47-4.91,3.51-6.47,6.12c-1.56,2.61-2.34,5.58-2.34,8.9  c0,3.33,0.78,6.3,2.34,8.93c1.56,2.63,3.72,4.68,6.5,6.15c2.78,1.47,5.91,2.21,9.41,2.21c3.28,0,6.18-0.68,8.68-2.05  c2.5-1.37,4.41-3.31,5.71-5.84l-6.06-3.54c-0.97,1.56-2.18,2.73-3.63,3.5c-1.45,0.78-3.04,1.17-4.77,1.17  c-2.99,0-5.44-0.96-7.35-2.87c-1.92-1.91-2.87-4.47-2.87-7.67c0-3.2,0.97-5.76,2.9-7.67C617.95,444.78,620.39,443.82,623.34,443.82z   M593.67,422.48c-1.43,0-2.63,0.45-3.6,1.36c-0.97,0.91-1.45,2.03-1.45,3.38s0.48,2.47,1.45,3.38c0.97,0.91,2.17,1.36,3.6,1.36  c1.47,0,2.68-0.47,3.63-1.42c0.95-0.95,1.42-2.11,1.42-3.5c0-1.3-0.48-2.39-1.45-3.25C596.3,422.92,595.1,422.48,593.67,422.48z   M129.17,451.34c1.62-2.4,2.43-5.26,2.43-8.59c0-3.24-0.76-6.04-2.27-8.4c-1.52-2.36-3.69-4.17-6.53-5.43  c-2.84-1.26-6.18-1.89-10.01-1.89H94.61v44.19h8.21v-12.88h9.97c0.76,0,1.33-0.02,1.7-0.06l9.03,12.94h8.84L122.2,456.7  C125.23,455.52,127.55,453.74,129.17,451.34z M120.56,449.28c-1.85,1.54-4.57,2.3-8.14,2.3h-9.6v-17.61h9.6  c3.58,0,6.29,0.76,8.14,2.27c1.85,1.52,2.78,3.68,2.78,6.5C123.33,445.57,122.41,447.75,120.56,449.28z M529.59,439.34  c-2.74-1.47-5.83-2.21-9.28-2.21c-3.41,0-6.48,0.74-9.22,2.21c-2.74,1.47-4.87,3.51-6.41,6.12c-1.54,2.61-2.3,5.58-2.3,8.9  c0,3.33,0.77,6.3,2.3,8.93c1.54,2.63,3.67,4.68,6.41,6.15c2.74,1.47,5.81,2.21,9.22,2.21c3.45,0,6.54-0.74,9.28-2.21  c2.74-1.47,4.87-3.52,6.41-6.15c1.54-2.63,2.3-5.61,2.3-8.93c0-3.32-0.77-6.29-2.3-8.9C534.46,442.86,532.32,440.81,529.59,439.34z   M527.51,462c-1.89,1.94-4.29,2.9-7.2,2.9c-2.9,0-5.29-0.97-7.17-2.9c-1.87-1.93-2.81-4.48-2.81-7.64c0-3.16,0.94-5.7,2.81-7.64  c1.87-1.94,4.26-2.9,7.17-2.9c2.9,0,5.3,0.97,7.2,2.9c1.89,1.94,2.84,4.48,2.84,7.64C530.35,457.52,529.4,460.07,527.51,462z   M318.35,441.68c-1.31-1.52-2.88-2.65-4.74-3.41c-1.85-0.76-3.89-1.14-6.12-1.14c-3.24,0-6.16,0.72-8.74,2.15  c-2.59,1.43-4.62,3.45-6.09,6.06c-1.47,2.61-2.21,5.62-2.21,9.03c0,3.41,0.74,6.43,2.21,9.06c1.47,2.63,3.5,4.66,6.09,6.09  c2.59,1.43,5.5,2.15,8.74,2.15c2.31,0,4.43-0.4,6.34-1.2c1.91-0.8,3.52-2,4.83-3.6v4.36h7.58v-46.85h-7.89V441.68z M317.15,459.92  c-0.88,1.6-2.08,2.83-3.6,3.69c-1.52,0.86-3.22,1.29-5.11,1.29c-1.89,0-3.6-0.43-5.11-1.29c-1.52-0.86-2.71-2.09-3.6-3.69  c-0.88-1.6-1.33-3.45-1.33-5.56c0-2.1,0.44-3.96,1.33-5.56c0.88-1.6,2.08-2.83,3.6-3.69c1.52-0.86,3.22-1.29,5.11-1.29  c1.89,0,3.6,0.43,5.11,1.29c1.51,0.86,2.71,2.09,3.6,3.69c0.88,1.6,1.33,3.45,1.33,5.56C318.48,456.47,318.03,458.32,317.15,459.92z   M434.2,465.16c-1.52,0-2.67-0.43-3.47-1.29c-0.8-0.86-1.2-2.11-1.2-3.76v-16.04h9.03v-6.31h-9.03v-7.7h-7.89v7.7h-5.56v6.31h5.56  v16.23c0,3.7,1.01,6.52,3.03,8.46c2.02,1.94,4.88,2.9,8.59,2.9c1.47,0,2.87-0.19,4.2-0.57c1.33-0.38,2.45-0.95,3.38-1.7l-2.21-5.62  C437.44,464.7,435.96,465.16,434.2,465.16z M361.03,439.34c-2.74-1.47-5.83-2.21-9.28-2.21c-3.41,0-6.48,0.74-9.22,2.21  c-2.74,1.47-4.87,3.51-6.41,6.12c-1.54,2.61-2.3,5.58-2.3,8.9c0,3.33,0.77,6.3,2.3,8.93c1.54,2.63,3.67,4.68,6.41,6.15  c2.74,1.47,5.81,2.21,9.22,2.21c3.45,0,6.54-0.74,9.28-2.21c2.74-1.47,4.87-3.52,6.41-6.15c1.54-2.63,2.3-5.61,2.3-8.93  c0-3.32-0.77-6.29-2.3-8.9C365.9,442.86,363.76,440.81,361.03,439.34z M358.94,462c-1.89,1.94-4.29,2.9-7.2,2.9  c-2.9,0-5.29-0.97-7.17-2.9c-1.87-1.93-2.81-4.48-2.81-7.64c0-3.16,0.94-5.7,2.81-7.64c1.87-1.94,4.26-2.9,7.17-2.9  c2.9,0,5.3,0.97,7.2,2.9c1.89,1.94,2.84,4.48,2.84,7.64C361.78,457.52,360.84,460.07,358.94,462z M470.63,439.34  c-2.74-1.47-5.83-2.21-9.28-2.21c-3.41,0-6.48,0.74-9.22,2.21c-2.74,1.47-4.87,3.51-6.41,6.12c-1.54,2.61-2.3,5.58-2.3,8.9  c0,3.33,0.77,6.3,2.3,8.93c1.54,2.63,3.67,4.68,6.41,6.15c2.74,1.47,5.81,2.21,9.22,2.21c3.45,0,6.54-0.74,9.28-2.21  c2.74-1.47,4.87-3.52,6.41-6.15c1.54-2.63,2.3-5.61,2.3-8.93c0-3.32-0.77-6.29-2.3-8.9C475.5,442.86,473.36,440.81,470.63,439.34z   M468.54,462c-1.89,1.94-4.29,2.9-7.2,2.9c-2.9,0-5.29-0.97-7.17-2.9c-1.87-1.93-2.81-4.48-2.81-7.64c0-3.16,0.94-5.7,2.81-7.64  c1.87-1.94,4.26-2.9,7.17-2.9c2.9,0,5.3,0.97,7.2,2.9c1.89,1.94,2.84,4.48,2.84,7.64C471.38,457.52,470.44,460.07,468.54,462z   M163.45,439.31c-2.59-1.45-5.52-2.18-8.81-2.18c-3.33,0-6.31,0.74-8.96,2.21c-2.65,1.47-4.72,3.53-6.22,6.16  c-1.49,2.63-2.24,5.59-2.24,8.87c0,3.33,0.77,6.3,2.3,8.93c1.54,2.63,3.71,4.68,6.53,6.15c2.82,1.47,6.08,2.21,9.79,2.21  c2.9,0,5.51-0.46,7.83-1.39c2.31-0.93,4.23-2.29,5.74-4.1l-4.23-4.86c-2.4,2.44-5.45,3.66-9.15,3.66c-2.9,0-5.33-0.73-7.29-2.18  c-1.96-1.45-3.17-3.42-3.63-5.9h26.45c0.08-1.01,0.13-1.79,0.13-2.34c0-3.45-0.73-6.49-2.18-9.12  C168.06,442.8,166.04,440.76,163.45,439.31z M145.05,451.65c0.38-2.48,1.44-4.47,3.19-5.97c1.75-1.49,3.88-2.24,6.41-2.24  c2.57,0,4.71,0.76,6.44,2.27c1.73,1.52,2.76,3.49,3.09,5.93H145.05z M486.91,471.22h7.89v-46.85h-7.89V471.22z M204.39,441.68  c-1.31-1.52-2.88-2.65-4.74-3.41c-1.85-0.76-3.89-1.14-6.12-1.14c-3.24,0-6.16,0.72-8.74,2.15c-2.59,1.43-4.62,3.45-6.09,6.06  c-1.47,2.61-2.21,5.62-2.21,9.03c0,3.41,0.74,6.43,2.21,9.06c1.47,2.63,3.5,4.66,6.09,6.09c2.59,1.43,5.5,2.15,8.74,2.15  c2.31,0,4.43-0.4,6.34-1.2c1.91-0.8,3.53-2,4.83-3.6v4.36h7.58v-46.85h-7.89V441.68z M203.2,459.92c-0.88,1.6-2.08,2.83-3.6,3.69  c-1.52,0.86-3.22,1.29-5.11,1.29c-1.89,0-3.6-0.43-5.11-1.29c-1.52-0.86-2.71-2.09-3.6-3.69c-0.88-1.6-1.33-3.45-1.33-5.56  c0-2.1,0.44-3.96,1.33-5.56c0.88-1.6,2.08-2.83,3.6-3.69c1.52-0.86,3.22-1.29,5.11-1.29c1.89,0,3.6,0.43,5.11,1.29  c1.51,0.86,2.71,2.09,3.6,3.69c0.88,1.6,1.33,3.45,1.33,5.56C204.52,456.47,204.08,458.32,203.2,459.92z M273.65,429.33  c-3.62-1.96-7.68-2.94-12.19-2.94c-4.5,0-8.57,0.98-12.18,2.94c-3.62,1.96-6.46,4.67-8.52,8.14c-2.06,3.47-3.09,7.35-3.09,11.65  s1.03,8.18,3.09,11.65c2.06,3.47,4.9,6.19,8.52,8.14c3.62,1.96,7.68,2.94,12.18,2.94c4.5,0,8.56-0.98,12.19-2.94  c3.62-1.96,6.46-4.66,8.52-8.11c2.06-3.45,3.09-7.34,3.09-11.68c0-4.33-1.03-8.23-3.09-11.68  C280.11,434,277.27,431.29,273.65,429.33z M274.98,457.11c-1.35,2.38-3.2,4.23-5.56,5.56c-2.36,1.33-5.01,1.99-7.95,1.99  c-2.95,0-5.6-0.66-7.95-1.99c-2.36-1.33-4.21-3.18-5.56-5.56c-1.35-2.38-2.02-5.04-2.02-7.99c0-2.95,0.67-5.61,2.02-7.99  s3.2-4.23,5.56-5.56c2.36-1.33,5.01-1.99,7.95-1.99c2.95,0,5.6,0.66,7.95,1.99c2.36,1.33,4.21,3.18,5.56,5.56  c1.35,2.38,2.02,5.04,2.02,7.99C277,452.07,276.32,454.74,274.98,457.11z"></path>
<g>
	<path d="M103,602.68c4.84,2.48,12.29,4.96,19.96,4.96c8.27,0,12.64-3.43,12.64-8.62c0-4.96-3.78-7.8-13.35-11.22   c-13.23-4.61-21.85-11.93-21.85-23.51c0-13.58,11.34-23.98,30.12-23.98c8.98,0,15.59,1.89,20.32,4.02l-4.02,14.53   c-3.19-1.54-8.86-3.78-16.66-3.78s-11.58,3.54-11.58,7.68c0,5.08,4.49,7.33,14.77,11.22c14.06,5.2,20.67,12.52,20.67,23.74   c0,13.35-10.28,24.69-32.13,24.69c-9.1,0-18.07-2.36-22.56-4.84L103,602.68z"></path>
	<path d="M182.38,600.79l-5.67,20.44h-18.67l24.34-79.62H206l24.69,79.62h-19.37l-6.14-20.44H182.38z M202.58,587.33l-4.96-16.89   c-1.42-4.72-2.83-10.63-4.02-15.36h-0.24c-1.18,4.73-2.36,10.75-3.66,15.36l-4.73,16.89H202.58z"></path>
	<path d="M238.96,621.23v-79.62h21.03l16.54,29.18c4.73,8.39,9.45,18.31,12.99,27.29h0.35c-1.18-10.51-1.54-21.26-1.54-33.2v-23.27   h16.54v79.62h-18.9l-17.01-30.71c-4.73-8.51-9.92-18.78-13.82-28.12l-0.35,0.12c0.47,10.51,0.71,21.74,0.71,34.73v23.98H238.96z"></path>
	<path d="M339.6,542.67c4.73-0.95,14.29-1.65,23.27-1.65c10.99,0,17.72,1.06,23.51,4.49c5.55,2.95,9.57,8.39,9.57,15.59   c0,7.09-4.13,13.7-13.11,17.01v0.24c9.1,2.48,15.83,9.33,15.83,19.61c0,7.21-3.31,12.88-8.27,16.89   c-5.79,4.61-15.48,7.21-31.31,7.21c-8.86,0-15.48-0.59-19.49-1.18V542.67z M357.44,573.15h5.91c9.45,0,14.53-3.9,14.53-9.81   c0-6.02-4.61-9.21-12.76-9.21c-3.9,0-6.14,0.24-7.68,0.47V573.15z M357.44,608.47c1.77,0.24,3.9,0.24,6.97,0.24   c8.15,0,15.36-3.07,15.36-11.46c0-8.03-7.21-11.22-16.18-11.22h-6.14V608.47z"></path>
	<path d="M481.48,580.59c0,26.11-15.83,41.94-39.1,41.94c-23.63,0-37.45-17.84-37.45-40.52c0-23.86,15.24-41.7,38.75-41.7   C468.13,540.31,481.48,558.62,481.48,580.59z M423.94,581.65c0,15.59,7.32,26.58,19.37,26.58c12.17,0,19.14-11.58,19.14-27.05   c0-14.29-6.85-26.58-19.26-26.58C431.03,554.6,423.94,566.18,423.94,581.65z"></path>
	<path d="M490.92,542.67c5.79-0.95,14.41-1.65,23.98-1.65c11.81,0,20.08,1.77,25.75,6.26c4.73,3.78,7.32,9.33,7.32,16.66   c0,10.16-7.21,17.13-14.06,19.61v0.35c5.55,2.24,8.62,7.56,10.63,14.88c2.48,8.98,4.96,19.37,6.5,22.45h-18.43   c-1.3-2.24-3.19-8.74-5.55-18.55c-2.13-9.92-5.55-12.64-12.88-12.76h-5.43v31.31h-17.84V542.67z M508.76,576.93h7.09   c8.98,0,14.29-4.49,14.29-11.46c0-7.32-4.96-10.99-13.23-11.1c-4.37,0-6.85,0.35-8.15,0.59V576.93z"></path>
	<path d="M574.91,541.61h17.96v50.33c0,22.68-10.87,30.6-28.35,30.6c-4.13,0-9.57-0.71-13.11-1.89l2.01-14.53   c2.48,0.83,5.67,1.42,9.21,1.42c7.56,0,12.29-3.43,12.29-15.83V541.61z"></path>
	<path d="M624.05,600.79l-5.67,20.44h-18.67l24.34-79.62h23.63l24.69,79.62h-19.37l-6.14-20.44H624.05z M644.25,587.33l-4.96-16.89   c-1.42-4.72-2.84-10.63-4.02-15.36h-0.24c-1.18,4.73-2.36,10.75-3.66,15.36l-4.73,16.89H644.25z"></path>
</g>
</svg>