<svg xmlns="http://www.w3.org/2000/svg" viewBox="0 0 38.744 38.744"><defs><style>.a{fill:#23bde6;}.b{fill:#fff;}</style></defs><g transform="translate(-992 -3752)"><g transform="translate(591 -20.064)"><ellipse class="a" cx="19.372" cy="19.372" rx="19.372" ry="19.372" transform="translate(401 3772.064)"></ellipse><path class="b" d="M13.07,67.3a.157.157,0,0,1,.252.122v5.321a1.249,1.249,0,0,1-1.249,1.249H1.249A1.249,1.249,0,0,1,0,72.743V67.424A.156.156,0,0,1,.252,67.3c.583.453,1.356,1.028,4.01,2.956a4.655,4.655,0,0,0,2.4,1.239,4.657,4.657,0,0,0,2.4-1.239C11.717,68.33,12.487,67.752,13.07,67.3ZM6.661,70.661c.6.01,1.473-.76,1.91-1.077,3.453-2.506,3.716-2.724,4.512-3.349a.623.623,0,0,0,.239-.492v-.494A1.249,1.249,0,0,0,12.073,64H1.249A1.249,1.249,0,0,0,0,65.249v.494a.626.626,0,0,0,.239.492c.8.622,1.059.843,4.512,3.349C5.188,69.9,6.058,70.672,6.661,70.661Z" transform="translate(413.621 3722.789)"></path></g></g></svg>