<svg xmlns="http://www.w3.org/2000/svg" viewBox="0 0 38.744 38.744"><defs><style>
      .cls-1 {
        fill: #23bde6;
      }

      .cls-2 {
        fill: #fff;
      }
    </style></defs><g id="Group_1177" data-name="Group 1177" transform="translate(-992 -3690)"><g id="Group_18" data-name="Group 18" transform="translate(591 12.595)"><ellipse id="Ellipse_50" data-name="Ellipse 50" class="cls-1" cx="19.372" cy="19.372" rx="19.372" ry="19.372" transform="translate(401 3677.405)"></ellipse><path id="phone-alt-solid" class="cls-2" d="M12.261,8.925,9.5,7.742a.592.592,0,0,0-.69.17L7.587,9.406A9.137,9.137,0,0,1,3.219,5.038L4.713,3.815a.59.59,0,0,0,.17-.69L3.7.364A.6.6,0,0,0,3.022.021L.459.613A.592.592,0,0,0,0,1.189,11.437,11.437,0,0,0,11.438,12.628a.592.592,0,0,0,.577-.459l.592-2.564a.6.6,0,0,0-.345-.68Z" transform="translate(414.322 3690.721)"></path></g></g></svg>