<svg xmlns="http://www.w3.org/2000/svg" xmlns:xlink="http://www.w3.org/1999/xlink" viewBox="0 0 109.684 109.684"><defs><style>
      .cls-1 {
        fill: #fff;
      }

      .cls-2 {
        clip-path: url(#clip-path);
      }

      .cls-3 {
        fill: #ece7ea;
      }

      .cls-4 {
        fill: #f14742;
      }

      .cls-5 {
        fill: #1b4145;
      }

      .cls-6 {
        fill: #c2b8b9;
      }
    </style><clipPath id="clip-path"><path id="Path_3026" data-name="Path 3026" class="cls-1" d="M5.683,0H104a5.9,5.9,0,0,1,5.683,6.094v97.5A5.9,5.9,0,0,1,104,109.684H5.683A5.9,5.9,0,0,1,0,103.59V6.094A5.9,5.9,0,0,1,5.683,0Z" transform="translate(3472.225 -4408.269)"></path></clipPath></defs><g id="Mask_Group_15" data-name="Mask Group 15" class="cls-2" transform="translate(-3472.225 4408.269)"><g id="motor-de-busqueda" transform="translate(3488.362 -4394.976)"><rect id="Rectangle_160" data-name="Rectangle 160" class="cls-3" width="2.695" height="16.778" transform="translate(29.509 53.235) rotate(-135)"></rect><circle id="Ellipse_86" data-name="Ellipse 86" class="cls-4" cx="24.915" cy="24.915" r="24.915" transform="translate(31.005 0)"></circle><circle id="Ellipse_87" data-name="Ellipse 87" class="cls-3" cx="19.58" cy="19.58" r="19.58" transform="translate(36.34 5.335)"></circle><path id="Path_2298" data-name="Path 2298" class="cls-1" d="M283.691,66.57a1.347,1.347,0,0,1-.953-2.3,15.484,15.484,0,0,1,21.9,0,1.347,1.347,0,1,1-1.905,1.9,12.79,12.79,0,0,0-18.088,0A1.343,1.343,0,0,1,283.691,66.57Z" transform="translate(-237.767 -50.304)"></path><path id="Path_2299" data-name="Path 2299" class="cls-5" d="M29.745,331.438,8.962,352.221c-2.164,2.164-4.41.9-6.575-1.265s-3.429-4.41-1.265-6.575L21.905,323.6l6.46,1.379Z" transform="translate(0 -272.508)"></path><path id="Path_2300" data-name="Path 2300" class="cls-6" d="M149.116,306.744l-2.532,2.532-7.84-7.84,2.532-2.532a5.544,5.544,0,0,1,7.84,7.84Z" transform="translate(-116.84 -250.347)"></path></g></g></svg>