<svg xmlns="http://www.w3.org/2000/svg" xmlns:xlink="http://www.w3.org/1999/xlink" viewBox="0 0 109.684 109.684"><defs><style>
      .cls-1 {
        fill: #fff;
      }

      .cls-2 {
        clip-path: url(#clip-path);
      }

      .cls-3 {
        fill: #c2b8b9;
      }

      .cls-4 {
        fill: #463836;
      }

      .cls-5 {
        fill: #ffd24d;
      }

      .cls-6 {
        fill: #f14742;
      }
    </style><clipPath id="clip-path"><path id="Path_3025" data-name="Path 3025" class="cls-1" d="M5.683,0H104a5.9,5.9,0,0,1,5.683,6.094v97.5A5.9,5.9,0,0,1,104,109.684H5.683A5.9,5.9,0,0,1,0,103.59V6.094A5.9,5.9,0,0,1,5.683,0Z" transform="translate(3255.229 -4407.269)"></path></clipPath></defs><g id="Mask_Group_14" data-name="Mask Group 14" class="cls-2" transform="translate(-3255.229 4407.269)"><g id="telefono-movil" transform="translate(3279.539 -4398.344)"><g id="Group_873" data-name="Group 873" transform="translate(0 19.004)"><path id="Path_2292" data-name="Path 2292" class="cls-3" d="M101.158,116.1a6.258,6.258,0,0,0-6.24-6.24H66.335a6.258,6.258,0,0,0-6.24,6.24v7.988l20.531,4.026,20.531-4.026Z" transform="translate(-60.095 -109.859)"></path><path id="Path_2293" data-name="Path 2293" class="cls-3" d="M60.095,418.489a6.258,6.258,0,0,0,6.24,6.24H94.918a6.258,6.258,0,0,0,6.24-6.24V410.5l-20.531-4.026L60.095,410.5Z" transform="translate(-60.095 -355.166)"></path></g><rect id="Rectangle_156" data-name="Rectangle 156" class="cls-4" width="41.063" height="41.107" transform="translate(0 33.231)"></rect><path id="Path_2294" data-name="Path 2294" class="cls-5" d="M196.882,21.181C196.882,9.484,184.941,0,170.212,0s-26.671,9.484-26.671,21.181c0,10.451,9.531,19.133,22.066,20.866h-.038a13.218,13.218,0,0,1-3.643,11.447,13.077,13.077,0,0,0,12.922-11.447h-.038C187.348,40.317,196.882,31.634,196.882,21.181Z" transform="translate(-129.106)"></path><g id="Group_874" data-name="Group 874" transform="translate(22.153 14.639)"><path id="Path_2295" data-name="Path 2295" class="cls-6" d="M193.225,97.714c-2.374,0-4.231-1.055-4.845-2.754a1.51,1.51,0,1,1,2.839-1.027c.137.378.87.761,2.006.761.707,0,2.045-.211,2.045-1.007,0-.452-.093-.667-2.289-1.026-1.8-.295-4.82-.788-4.82-4,0-2.371,2.083-4.027,5.064-4.027,2.373,0,4.23,1.054,4.845,2.752a1.51,1.51,0,0,1-2.839,1.029c-.137-.378-.87-.761-2.006-.761-.707,0-2.045.211-2.045,1.007,0,.451.093.665,2.288,1.024,1.8.295,4.821.788,4.821,4.006C198.289,96.058,196.207,97.714,193.225,97.714Z" transform="translate(-188.161 -84.63)"></path><path id="Path_2296" data-name="Path 2296" class="cls-6" d="M353.8,97.714c-2.374,0-4.231-1.055-4.845-2.753a1.51,1.51,0,1,1,2.839-1.028c.137.378.87.762,2.007.762.707,0,2.045-.211,2.045-1.007,0-.452-.093-.667-2.289-1.026-1.8-.295-4.82-.788-4.82-4,0-2.371,2.082-4.027,5.064-4.027,2.373,0,4.23,1.054,4.845,2.752a1.51,1.51,0,1,1-2.838,1.029c-.137-.378-.87-.761-2.006-.761-.707,0-2.045.211-2.045,1.007,0,.451.093.665,2.288,1.024,1.8.295,4.821.788,4.821,4.006C358.865,96.058,356.783,97.714,353.8,97.714Z" transform="translate(-320.96 -84.63)"></path><path id="Path_2297" data-name="Path 2297" class="cls-6" d="M274.267,97.714a1.509,1.509,0,0,1-1.51-1.51v-5.97l-1.637,1.918a1.509,1.509,0,0,1-2.3,0l-1.637-1.918V96.2a1.51,1.51,0,1,1-3.019,0V86.14a1.51,1.51,0,0,1,2.658-.98l3.147,3.687,3.147-3.687a1.51,1.51,0,0,1,2.658.98V96.2A1.51,1.51,0,0,1,274.267,97.714Z" transform="translate(-251.019 -84.63)"></path></g></g></g></svg>