<svg xmlns="http://www.w3.org/2000/svg" xmlns:xlink="http://www.w3.org/1999/xlink" viewBox="0 0 109.684 109.684"><defs><style>
      .cls-1 {
        fill: #fff;
      }

      .cls-2 {
        clip-path: url(#clip-path);
      }

      .cls-3 {
        fill: #d6ced1;
      }

      .cls-4 {
        fill: #c2b8b9;
      }

      .cls-5 {
        fill: #ece7ea;
      }

      .cls-6 {
        fill: #f14742;
      }
    </style><clipPath id="clip-path"><path id="Path_3024" data-name="Path 3024" class="cls-1" d="M5.683,0H104a5.9,5.9,0,0,1,5.683,6.094v97.5A5.9,5.9,0,0,1,104,109.684H5.683A5.9,5.9,0,0,1,0,103.59V6.094A5.9,5.9,0,0,1,5.683,0Z" transform="translate(3037.233 -4412.269)"></path></clipPath></defs><g id="Mask_Group_13" data-name="Mask Group 13" class="cls-2" transform="translate(-3037.233 4412.269)"><g id="envio" transform="translate(3057.244 -4383.749)"><path id="Path_2288" data-name="Path 2288" class="cls-3" d="M66.891,69.528,34.034,90.409,1.177,69.528A3.618,3.618,0,0,0,0,72.192v41.048a3.618,3.618,0,0,0,1.187,2.674L34.034,95.043l33.754,21.828h.28V72.192A3.617,3.617,0,0,0,66.891,69.528Z" transform="translate(0 -68.562)"></path><path id="Path_2289" data-name="Path 2289" class="cls-4" d="M10.054,242.337H74.212L51.3,218.183H29.616l-22.005,23.2A3.611,3.611,0,0,0,10.054,242.337Z" transform="translate(-6.424 -194.028)"></path><path id="Path_2290" data-name="Path 2290" class="cls-5" d="M10,63.335a3.611,3.611,0,0,0-2.454.966L37.9,96.152a3.435,3.435,0,0,0,5.009,0L73.258,64.3a3.611,3.611,0,0,0-2.454-.966H10Z" transform="translate(-6.367 -63.335)"></path><circle id="Ellipse_85" data-name="Ellipse 85" class="cls-6" cx="11.798" cy="11.798" r="11.798" transform="translate(56.27 36.51)"></circle><path id="Path_2291" data-name="Path 2291" class="cls-1" d="M419.176,347.01a1.361,1.361,0,0,1-1.361-1.361v-5.977a1.362,1.362,0,0,1-1.417-2.247l1.815-1.815a1.361,1.361,0,0,1,2.324.963v9.076A1.361,1.361,0,0,1,419.176,347.01Z" transform="translate(-351.109 -292.802)"></path></g></g></svg>