<svg xmlns="http://www.w3.org/2000/svg" xmlns:xlink="http://www.w3.org/1999/xlink" id="Capa_1" x="0px" y="0px" viewBox="0 0 40 40" style="enable-background:new 0 0 40 40;" xml:space="preserve">
<style type="text/css">
	.st0{fill:url(#SVGID_1_);}
	.st1{fill:url(#SVGID_2_);}
</style>
<g>
	<circle cx="20" cy="20" r="17.61"></circle>
	<linearGradient id="SVGID_1_" gradientUnits="userSpaceOnUse" x1="10.9639" y1="3.3243" x2="29.9002" y2="38.2705">
		<stop offset="0" style="stop-color:#9C5F34"></stop>
		<stop offset="0.1152" style="stop-color:#FAD973"></stop>
		<stop offset="0.2604" style="stop-color:#D9992F"></stop>
		<stop offset="0.3749" style="stop-color:#FFF6AD"></stop>
		<stop offset="0.4106" style="stop-color:#FAEDA3"></stop>
		<stop offset="0.4716" style="stop-color:#EED587"></stop>
		<stop offset="0.5502" style="stop-color:#DAAE5B"></stop>
		<stop offset="0.6145" style="stop-color:#C78932"></stop>
		<stop offset="0.7818" style="stop-color:#C97D22"></stop>
		<stop offset="0.88" style="stop-color:#BE7F33"></stop>
		<stop offset="1" style="stop-color:#F4D26A"></stop>
	</linearGradient>
	<path class="st0" d="M20,0.5C9.23,0.5,0.5,9.23,0.5,20S9.23,39.5,20,39.5S39.5,30.77,39.5,20S30.77,0.5,20,0.5z M20,37.61   c-9.72,0-17.61-7.88-17.61-17.61S10.28,2.39,20,2.39S37.61,10.28,37.61,20S29.72,37.61,20,37.61z"></path>
	<linearGradient id="SVGID_2_" gradientUnits="userSpaceOnUse" x1="14.75" y1="7.0884" x2="25.4275" y2="33.0607">
		<stop offset="0.0602" style="stop-color:#9C5F34"></stop>
		<stop offset="0.2538" style="stop-color:#FAD973"></stop>
		<stop offset="0.3658" style="stop-color:#F6F1A6"></stop>
		<stop offset="0.3672" style="stop-color:#F6F0A5"></stop>
		<stop offset="0.4404" style="stop-color:#E2C777"></stop>
		<stop offset="0.5103" style="stop-color:#D3A652"></stop>
		<stop offset="0.5754" style="stop-color:#C88F38"></stop>
		<stop offset="0.6337" style="stop-color:#C18129"></stop>
		<stop offset="0.6794" style="stop-color:#BF7C23"></stop>
		<stop offset="0.7693" style="stop-color:#D39734"></stop>
		<stop offset="0.8526" style="stop-color:#E8B446"></stop>
		<stop offset="0.9383" style="stop-color:#BE7F33"></stop>
	</linearGradient>
	<path class="st1" d="M23.1,17.64c-0.12-1.8-1.3-2.98-3.14-2.98c-1.84,0-3.06,1.19-3.11,2.98l0,12.61c0,0,0,0.05,0,0.05   c-0.04,1.73,1.21,3.15,3.08,3.15c1.95,0,3.19-1.43,3.19-3.16c0-0.01,0-0.04,0-0.04L23.1,17.64z M19.94,12.86   c2.06,0,3.38-1.4,3.38-3.13C23.28,7.91,22,6.55,19.98,6.55c-2.02,0-3.34,1.36-3.3,3.18C16.64,11.46,17.96,12.86,19.94,12.86z"></path>
</g>
</svg>